<?xml version="1.0" encoding="UTF-8" standalone="no"?>
<!-- Created with Inkscape (http://www.inkscape.org/) -->

<svg
   xmlns:dc="http://purl.org/dc/elements/1.1/"
   xmlns:cc="http://creativecommons.org/ns#"
   xmlns:rdf="http://www.w3.org/1999/02/22-rdf-syntax-ns#"
   xmlns:svg="http://www.w3.org/2000/svg"
   xmlns="http://www.w3.org/2000/svg"
   xmlns:sodipodi="http://sodipodi.sourceforge.net/DTD/sodipodi-0.dtd"
   xmlns:inkscape="http://www.inkscape.org/namespaces/inkscape"
   width="900"
   height="900"
   viewBox="0 0 238.12499 238.12501"
   version="1.1"
   id="svg828"
   sodipodi:docname="icon_adaptive.svg"
   inkscape:version="0.92.4 (5da689c313, 2019-01-14)"
   inkscape:export-filename="C:\Users\sever\code\flutter\tichumate-flutter\assets\launcher\icon_foreground.png"
   inkscape:export-xdpi="96"
   inkscape:export-ydpi="96">
  <defs
     id="defs822">
    <clipPath
       id="clipPath1364"
       clipPathUnits="userSpaceOnUse">
      <path
         inkscape:connector-curvature="0"
         id="path1362"
         d="m 612.105,7300 v 87.89 l -424.21,424.22 V 7300 Z" />
    </clipPath>
    <clipPath
       id="clipPath1382"
       clipPathUnits="userSpaceOnUse">
      <path
         inkscape:connector-curvature="0"
         id="path1380"
         d="m 700,7387.89 h -87.895 l -424.21,424.22 H 700 Z" />
    </clipPath>
    <clipPath
       id="clipPath1400"
       clipPathUnits="userSpaceOnUse">
      <path
         inkscape:connector-curvature="0"
         id="path1398"
         d="m 7300,7387.89 h 87.9 l 424.2,424.22 H 7300 Z" />
    </clipPath>
    <clipPath
       id="clipPath1418"
       clipPathUnits="userSpaceOnUse">
      <path
         inkscape:connector-curvature="0"
         id="path1416"
         d="m 7387.9,7300 v 87.89 l 424.2,424.22 V 7300 Z" />
    </clipPath>
    <clipPath
       id="clipPath1436"
       clipPathUnits="userSpaceOnUse">
      <path
         inkscape:connector-curvature="0"
         id="path1434"
         d="M 7387.9,700 V 612.102 L 7812.1,187.898 V 700 Z" />
    </clipPath>
    <clipPath
       id="clipPath1454"
       clipPathUnits="userSpaceOnUse">
      <path
         inkscape:connector-curvature="0"
         id="path1452"
         d="m 7300,612.102 h 87.9 L 7812.1,187.898 H 7300 Z" />
    </clipPath>
    <clipPath
       id="clipPath1472"
       clipPathUnits="userSpaceOnUse">
      <path
         inkscape:connector-curvature="0"
         id="path1470"
         d="M 700,612.102 H 612.105 L 187.895,187.898 H 700 Z" />
    </clipPath>
    <clipPath
       id="clipPath1490"
       clipPathUnits="userSpaceOnUse">
      <path
         inkscape:connector-curvature="0"
         id="path1488"
         d="M 612.105,700 V 612.102 L 187.895,187.898 V 700 Z" />
    </clipPath>
    <clipPath
       id="clipPath1738"
       clipPathUnits="userSpaceOnUse">
      <path
         inkscape:connector-curvature="0"
         id="path1736"
         d="m 4647.86,2525 v 87.9 l -424.21,424.2 V 2525 Z" />
    </clipPath>
    <clipPath
       id="clipPath1756"
       clipPathUnits="userSpaceOnUse">
      <path
         inkscape:connector-curvature="0"
         id="path1754"
         d="m 4735.75,2612.9 h -87.89 l -424.21,424.2 h 512.1 z" />
    </clipPath>
    <clipPath
       id="clipPath1824"
       clipPathUnits="userSpaceOnUse">
      <path
         inkscape:connector-curvature="0"
         id="path1822"
         d="m 3832.07,1000 h -3000 v 6000 h 3000 z" />
    </clipPath>
  </defs>
  <sodipodi:namedview
     id="base"
     pagecolor="#ffffff"
     bordercolor="#666666"
     borderopacity="1.0"
     inkscape:pageopacity="0.0"
     inkscape:pageshadow="2"
     inkscape:zoom="0.125"
     inkscape:cx="470.26212"
     inkscape:cy="86.587467"
     inkscape:document-units="mm"
     inkscape:current-layer="g8044"
     showgrid="false"
     units="px"
     inkscape:window-width="1920"
     inkscape:window-height="1027"
     inkscape:window-x="-8"
     inkscape:window-y="-8"
     inkscape:window-maximized="1"
     inkscape:object-nodes="false"
     inkscape:snap-others="false"
     showguides="true" />
  <metadata
     id="metadata825">
    <rdf:RDF>
      <cc:Work
         rdf:about="">
        <dc:format>image/svg+xml</dc:format>
        <dc:type
           rdf:resource="http://purl.org/dc/dcmitype/StillImage" />
        <dc:title></dc:title>
      </cc:Work>
    </rdf:RDF>
  </metadata>
  <g
     inkscape:groupmode="layer"
     id="layer5"
     inkscape:label="bg"
     style="display:none"
     sodipodi:insensitive="true">
    <rect
       style="opacity:1;fill:#1a1a1f;fill-opacity:1;fill-rule:nonzero;stroke:none;stroke-width:2.9104166;stroke-miterlimit:4;stroke-dasharray:none;stroke-opacity:1"
       id="rect3796"
       width="238.125"
       height="238.125"
       x="0"
       y="-8.5265128e-14" />
  </g>
  <g
     inkscape:groupmode="layer"
     id="layer6"
     inkscape:label="bg 1"
     style="display:inline">
    <g
       id="g8040"
       transform="rotate(45,165.50487,172.12837)">
      <g
         id="g8044"
         transform="translate(4.0929781,-4.0929781)">
        <g
           id="g8063"
           transform="translate(5.6126596,5.6126596)">
          <path
             transform="scale(0.26458333)"
             id="path7979"
             d="m 608,431.2168 v 0.006 h -83.91797 v 0.002 H 346.94141 v 0.90234 l 5.6914,0.002 v 1.44336 h 2.34571 v 3.21875 l -2.34571,-0.002 0.004,0.008 h -12.52539 l 0.002,1.93359 h 8.42578 l -0.002,6.03125 h 10.61523 v 8.50781 h 4.26954 v 4.66992 h -8.21094 l -0.004,2.73047 h 1.69336 v 4.67188 l -0.39258,-0.002 9.16797,17.75977 -0.34961,0.17969 h 4.00977 l -0.002,31.99023 h -105.7246 v 1.77344 h 7.67968 l -0.002,4.66797 h -15.48438 v 2.79687 h 5.46289 v 3.02149 l 9.06055,-0.002 v 5.19141 h 8.57031 v 7.84375 l 4.23829,0.002 v 4.66602 h -8.02735 l 0.002,0.62695 -4.78126,0.002 h -45.31445 v 2.61523 h 1.02735 v 2.06836 h 2.56054 v 15.93945 h -9.09961 l 0.21289,0.0352 -0.7207,4.61328 -1.54883,-0.24414 -44.76367,44.3125 -4.97852,-5.02734 -35.23046,46.0371 9.08984,-0.002 -0.002,4.66992 h -4.34571 v 14.65235 h -4.30078 v 1.25 l -0.70898,0.002 -0.002,7.56055 h 6.25782 v 4.66992 h -2.04883 v 3.87109 h -1.29102 v 2.07617 l 77.97266,-0.002 v 0.85742 h 7.68945 v 8.65039 h 0.22852 v 3.42383 h 6.52344 v 12.55664 l 7.08398,0.002 v 14.49023 h 4.83203 l -0.002,5.55859 40.05273,38.88477 15.87696,9.97461 h 9.75976 v 1.32812 h 3.86328 v 1.57032 h 245.98828 l 0.0156,-0.0156 h 382.04297 v -0.043 H 2080 V 431.2168 Z m -475.96484,224.98242 -0.006,0.008 0.0176,-0.002 z"
             style="display:inline;opacity:1;fill:#000000;fill-opacity:0.9906977;fill-rule:nonzero;stroke:none;stroke-width:9.91762161;stroke-miterlimit:4;stroke-dasharray:none;stroke-opacity:1"
             inkscape:connector-curvature="0" />
          <path
             id="path8027"
             d="m 58.887761,173.04458 c 1.590919,2.72219 3.120313,5.66556 4.588218,8.83035 1.508241,3.12431 2.856327,6.16919 4.044403,9.13488 0.03923,0.12021 0.137783,0.42033 0.296008,0.90199 0.118049,0.44133 0.11628,0.68194 -0.0041,0.72314 -0.121172,0.12116 -0.342156,0.0214 -0.66133,-0.29782 -0.319043,-0.40002 -0.518303,-0.6797 -0.597887,-0.84023 -0.438435,-0.51942 -0.956827,-1.19916 -1.554442,-2.0391 -0.597698,-0.84004 -1.215379,-1.70005 -1.85286,-2.58012 -0.597193,-0.92045 -1.174361,-1.82086 -1.731622,-2.70129 -0.516998,-0.92073 -0.954114,-1.7217 -1.311694,-2.40245 -0.07898,-0.24038 -0.356974,-0.76119 -0.834443,-1.56169 -0.477298,-0.80057 -1.074604,-1.72096 -1.791503,-2.76119 -0.716703,-1.12041 -1.512947,-2.32086 -2.389221,-3.60123 -0.876361,-1.28008 -1.752764,-2.52032 -2.629503,-3.72025 l -0.90701,0.54744 c 1.195861,1.5996 2.330419,3.34047 3.404034,5.22203 1.074096,1.80133 2.107572,3.68327 3.100436,5.64568 0.993273,1.8821 2.026502,3.80413 3.099681,5.76613 1.033199,1.92204 2.106793,3.80372 3.221078,5.64522 1.074034,1.72038 2.289846,3.421 3.645532,5.09987 1.356286,1.67956 2.833096,3.27754 4.431091,4.79458 1.557748,1.47677 3.237286,2.79285 5.038216,3.94732 1.760624,1.11426 3.583539,1.96766 5.467567,2.55877 0.400884,0.15858 0.58152,0.25827 0.541054,0.29873 -0.08069,0.0807 -0.160932,0.12163 -0.242059,0.12145 l -0.240623,0.002 c -2.449347,-0.18675 -4.715724,-0.75636 -6.798615,-1.70799 -2.082707,-1.03232 -4.023831,-2.28671 -5.822813,-3.76238 -1.75849,-1.51616 -3.375481,-3.21409 -4.850534,-5.09286 -1.475457,-1.87969 -2.83005,-3.79975 -4.063875,-5.76081 -2.268485,-3.64209 -4.295926,-7.28556 -6.082405,-10.9304 -1.826361,-3.68488 -3.73424,-7.16828 -5.723532,-10.45047 -2.823465,2.02469 -5.465515,3.94783 -7.926238,5.7696 -2.460297,1.74149 -4.419719,3.70091 -5.878386,5.87839 -0.121168,0.12116 -0.201388,0.16211 -0.241618,0.12188 -0.07995,-0.08 -0.10007,-0.13932 -0.05911,-0.18028 0.04072,-0.12067 0.06132,-0.22125 0.06206,-0.30144 0.574903,-2.1724 1.59001,-4.06608 3.04536,-5.68121 1.495648,-1.65557 3.191672,-3.19168 5.087785,-4.60852 1.896432,-1.49712 3.893136,-2.9346 5.989716,-4.31242 2.097197,-1.45809 4.054567,-3.05602 5.87209,-4.79374 1.130813,-1.05087 2.182142,-2.26208 3.154114,-3.63339 0.972376,-1.45165 1.784401,-2.94254 2.435954,-4.47269 0.65195,-1.61044 1.042868,-3.23947 1.172943,-4.88707 0.17049,-1.68802 0.01936,-3.33398 -0.453348,-4.93793 -0.118964,-0.28037 -0.137947,-0.46124 -0.05725,-0.54193 l 0.179787,0.17979 0.119697,0.1197 c 1.073119,1.96193 1.644339,3.90676 1.713508,5.83445 0.02927,1.88763 -0.262655,3.73705 -0.875566,5.5481 -0.572647,1.77063 -1.4259,3.46262 -2.559958,5.07587 -1.133658,1.53296 -2.366743,2.92586 -3.699525,4.17879 1.440144,1.03592 2.877829,2.47362 4.313095,4.31309 1.475756,1.79903 2.870512,3.71897 4.184213,5.75987 1.313824,2.04093 2.527393,4.02221 3.640995,5.9438 1.073577,1.88167 1.948225,3.40268 2.624771,4.564 1.4322,2.40188 2.823235,4.92408 4.17369,7.56739 1.350426,2.64327 2.521355,4.98584 3.514071,7.02898 0.119189,0.28059 0.197877,0.56139 0.236265,0.84226 0.07898,0.24037 0.05762,0.3809 -0.06258,0.4221 -0.120893,0.0405 -0.261473,-0.0191 -0.420968,-0.17863 -0.159465,-0.24033 -0.338528,-0.45969 -0.538412,-0.65959 -2.873805,-3.11613 -5.424934,-6.55619 -7.652306,-10.31875 -2.228013,-3.76321 -4.414663,-7.60636 -6.560955,-11.53033 -1.192534,-2.16206 -2.425225,-4.32396 -3.698046,-6.48556 -1.23244,-2.20211 -2.726068,-4.38262 -4.480982,-6.54147 -0.241828,0.1619 -0.443666,0.32394 -0.605269,0.48553 -0.121163,0.12117 -0.282801,0.28281 -0.484832,0.48483 0.798739,0.79874 1.537015,1.618 2.215093,2.45744 0.718321,0.7993 1.296031,1.61931 1.733038,2.46024 z M 47.764422,158.64881 c 1.775289,-1.37597 3.530887,-2.81209 5.266811,-4.30843 1.735677,-1.49628 3.189609,-2.83003 4.361257,-4.00168 0.403965,-0.40396 0.665867,-0.54614 0.785785,-0.42619 0.159681,0.15965 0.09739,0.50158 -0.186684,1.02528 -1.261733,2.85922 -3.08395,5.40021 -5.466707,7.62332 -2.342426,2.18252 -4.864879,4.26578 -7.567559,6.24965 -1.613683,1.21436 -3.267764,2.46903 -4.962326,3.76424 -1.694475,1.29516 -3.310538,2.91122 -4.848077,4.84808 -0.121668,0.20161 -0.222701,0.26197 -0.302201,0.18247 -0.07996,-0.08 -0.09958,-0.18002 -0.05862,-0.30096 0.04072,-0.12066 0.06181,-0.26146 0.06255,-0.42212 0.208438,-1.32675 0.838824,-2.67595 1.891136,-4.0478 1.012337,-1.41165 2.184862,-2.74399 3.5176,-3.99686 1.333229,-1.33324 2.685856,-2.52595 4.057543,-3.57828 1.371665,-1.05231 2.521621,-1.92246 3.449438,-2.61068 z m -7.233177,10.9472 c 1.936467,-1.45719 3.953009,-2.87472 6.049688,-4.25257 2.137081,-1.41819 4.253496,-2.73582 6.349168,-3.95298 0.160657,-6.2e-4 0.402017,-0.0827 0.724483,-0.2452 0.322796,-0.24285 0.543926,-0.30453 0.66387,-0.1846 0.07995,0.08 0.01864,0.26099 -0.18384,0.54341 -0.202365,0.28231 -0.324406,0.52407 -0.365662,0.72524 -0.283661,0.44358 -0.708503,0.9479 -1.274141,1.51354 -0.52521,0.5252 -1.090771,1.09076 -1.696775,1.69677 -0.605612,0.52566 -1.211226,1.05131 -1.816555,1.57715 -0.605606,0.52567 -1.150296,0.95066 -1.634232,1.27466 -0.322808,0.24285 -1.109726,0.86987 -2.360709,1.88145 -1.210475,0.97108 -2.502501,2.10318 -3.875706,3.39643 -1.373203,1.29326 -2.645674,2.60641 -3.818608,3.93834 -1.172007,1.25197 -1.880982,2.2803 -2.12655,3.0851 -0.08193,0.24135 -0.142953,0.38233 -0.183324,0.4227 l -0.06059,0.0606 c -0.159676,-0.15967 -0.238801,-0.40019 -0.236935,-0.7216 -0.115113,-0.92321 -0.009,-1.90789 0.318397,-2.95409 0.367764,-1.08669 0.835604,-2.11367 1.403524,-3.08093 0.567983,-0.96731 1.215738,-1.85475 1.943504,-2.66232 0.767968,-0.84791 1.495369,-1.53463 2.180805,-2.0612 z m 39.080625,35.08094 c 0.799968,0.55765 1.620247,1.09501 2.460639,1.61224 0.880918,0.47671 1.782579,0.89374 2.70398,1.24948 0.481584,0.15831 0.661348,0.29785 0.540187,0.41902 -0.08097,0.0809 -0.242356,0.16185 -0.483566,0.24367 -0.120169,0.0412 -0.241353,0.0412 -0.36154,0.002 -1.1242,-0.0737 -2.107197,-0.20832 -2.949531,-0.40429 -0.801998,-0.23634 -1.883512,-0.83308 -3.243253,-1.78882 -0.520049,-0.35864 -1.140301,-0.85724 -1.859319,-1.49581 -0.678808,-0.67882 -1.317933,-1.35712 -1.916165,-2.03733 -0.598749,-0.67972 -1.076812,-1.27892 -1.435448,-1.79895 -0.358684,-0.52007 -0.457255,-0.86147 -0.295765,-1.02296 0.04049,-0.0405 0.180773,0.0194 0.420992,0.17866 0.280596,0.1192 0.580623,0.29806 0.900806,0.53731 0.279883,0.1989 0.579745,0.41834 0.899922,0.65759 0.279883,0.1989 0.4597,0.33853 0.53951,0.41834 0.759757,0.59785 1.459332,1.17677 2.098802,1.73528 0.67968,0.51829 1.339502,1.01624 1.979607,1.49494 z M 59.686223,149.60243 c 0.129965,-1.64764 0.05879,-3.21379 -0.213833,-4.69843 -0.07898,-0.24036 -0.078,-0.40127 0.0027,-0.48195 0.04049,-0.0405 0.200373,0.0792 0.479914,0.35878 0.159664,0.15968 0.279852,0.31916 0.358737,0.47987 0.517314,0.84059 0.87462,1.56147 1.072006,2.16279 0.19728,0.6015 0.191786,1.56549 -0.01673,2.89217 -0.0432,0.52247 -0.187348,1.14589 -0.432602,1.87032 -0.28512,0.68443 -0.56999,1.32874 -0.854602,1.93295 -0.284751,0.60409 -0.588905,1.10804 -0.912576,1.51153 -0.323183,0.32318 -0.585009,0.42508 -0.785041,0.30577 -0.03998,-0.0399 -0.03927,-0.16039 0.002,-0.36153 0.0013,-0.24112 0.02301,-0.50227 0.06479,-0.78369 0.08241,-0.32181 0.164007,-0.60355 0.245887,-0.8449 0.04195,-0.28133 0.08316,-0.48247 0.123971,-0.60324 0.204384,-0.6037 0.368576,-1.20714 0.492562,-1.81034 0.164353,-0.64363 0.28861,-1.28709 0.372644,-1.93016 z m 9.602114,-12.71713 c -0.521099,-0.19781 -0.741044,-0.33729 -0.66058,-0.41776 0.121406,-0.12141 0.362661,-0.163 0.723926,-0.1249 0.321319,-0.002 0.522394,-0.004 0.602616,-0.004 1.002652,0.19533 2.106167,0.40976 3.309781,0.64384 1.163721,0.19415 2.447049,0.54818 3.850045,1.06209 1.403062,0.51397 2.924883,1.22849 4.566929,2.14242 1.601472,0.87461 3.362027,2.06929 5.281039,3.58463 2.199695,1.71406 4.176731,3.61084 5.932149,5.68933 1.755589,1.99842 3.430675,4.1173 5.024401,6.35739 0.03906,0.12088 0.198387,0.36075 0.477618,0.72045 0.279313,0.3597 0.357805,0.60061 0.236377,0.72203 -0.08043,0.0804 -0.301434,0.0218 -0.661388,-0.17721 -0.400646,-0.2383 -0.660558,-0.41774 -0.780347,-0.53754 -0.520476,-0.35809 -1.12011,-0.79681 -1.800324,-1.31467 -0.67952,-0.5186 -1.379683,-1.05641 -2.099099,-1.61492 -0.719155,-0.63877 -1.399097,-1.23673 -2.038394,-1.79557 -0.63896,-0.63896 -1.198056,-1.19805 -1.677294,-1.67729 -0.159673,-0.15967 -0.518844,-0.47954 -1.078676,-0.95806 -0.559132,-0.55913 -1.217754,-1.17845 -1.977986,-1.85596 -0.759044,-0.67866 -1.618284,-1.37693 -2.578357,-2.09416 -0.959715,-0.79733 -1.918913,-1.55542 -2.878891,-2.27275 1.318468,1.15756 2.556471,2.39557 3.714032,3.71403 1.15685,1.31922 2.314239,2.67773 3.470914,4.07705 1.11663,1.35946 2.274,2.71793 3.47085,4.07696 1.157595,1.31848 2.415589,2.5765 3.773977,3.77397 2.597656,2.35485 5.618525,4.36606 9.063225,6.03258 3.4447,1.66782 7.03474,2.42971 10.77149,2.28824 0.4822,-0.004 0.70281,0.0149 0.66194,0.0558 -0.0403,0.12063 -0.22196,0.22197 -0.54323,0.3043 -2.21296,0.61523 -4.34351,0.82874 -6.39036,0.63924 -2.04744,-0.18885 -4.03329,-0.63924 -5.95746,-1.35115 -1.88329,-0.75149 -3.665318,-1.68599 -5.346157,-2.80093 -1.720413,-1.1545 -3.319714,-2.43063 -4.797581,-3.82804 -0.119932,-0.11993 -0.239412,-0.20011 -0.359866,-0.23925 -0.119694,-0.11969 -0.239625,-0.23964 -0.359361,-0.35935 1.467733,3.08492 2.755531,6.18982 3.861997,9.3172 1.146707,3.08583 2.214275,6.09244 3.201333,9.01862 1.027455,2.88581 1.995965,5.63196 2.904895,8.23782 0.90914,2.52516 1.85986,4.76865 2.8527,6.73117 0.1192,0.28058 0.1583,0.44134 0.11808,0.48156 -0.0807,0.0807 -0.1808,0.0616 -0.30095,-0.0586 -0.12021,-0.1202 -0.19991,-0.19991 -0.23941,-0.23941 -1.83701,-1.91787 -3.40983,-4.25829 -4.719053,-7.02196 -1.349523,-2.80387 -2.63811,-5.78933 -3.864573,-8.95505 -1.226933,-3.24702 -2.452422,-6.57333 -3.67793,-9.98013 -1.265593,-3.44739 -2.712321,-6.793 -4.340517,-10.03708 -1.072721,-2.04231 -2.285856,-4.06403 -3.639969,-6.06453 -1.313899,-2.04072 -2.768552,-3.9406 -4.365408,-5.69835 -1.596145,-1.75852 -3.295078,-3.33438 -5.093925,-4.73044 -1.839231,-1.43549 -3.72085,-2.58907 -5.643592,-3.4618 z m 42.018793,26.99013 c 1.36347,0.47439 2.80806,0.74694 4.33377,0.81901 -1.39461,-1.96054 -2.50632,-4.16375 -3.33565,-6.60906 -0.86896,-2.48487 -1.63733,-5.07163 -2.30513,-7.759 -0.62624,-2.72758 -1.21348,-5.49533 -1.75903,-8.30443 -0.54615,-2.80846 -1.19342,-5.55578 -1.94115,-8.24263 -0.51056,-1.9655 -1.24224,-3.90945 -2.19519,-5.83194 -0.9127,-1.96273 -2.00688,-3.78375 -3.28204,-5.46384 -1.275504,-1.75969 -2.712143,-3.31829 -4.31109,-4.67459 -1.558793,-1.39645 -3.259573,-2.49124 -5.10252,-3.28413 -0.321076,-0.0783 -0.48094,-0.19791 -0.47962,-0.35901 4.81e-4,-0.16039 0.182228,-0.22149 0.543205,-0.18362 0.36154,-0.0422 0.602775,-0.0436 0.722914,-0.004 1.163639,0.19411 2.446375,0.70847 3.847532,1.54375 1.401442,0.75509 2.8415,1.75123 4.320689,2.98771 1.4795,1.1562 2.95774,2.47353 4.43536,3.95116 1.47758,1.47758 2.89498,3.01559 4.25116,4.61465 1.79522,2.11852 3.62879,4.55812 5.50052,7.31893 1.91263,2.71992 3.52444,5.34154 4.83536,7.86471 0.0395,0.11991 0.13819,0.38102 0.29583,0.7815 0.19922,0.36012 0.23811,0.60161 0.11681,0.72292 -0.12065,0.0403 -0.34069,-0.0591 -0.66133,-0.29782 -0.35949,-0.27912 -0.57949,-0.45888 -0.6593,-0.53869 -0.43936,-0.43937 -0.95852,-0.95852 -1.55751,-1.55751 -0.59905,-0.67944 -1.19745,-1.35834 -1.79543,-2.03825 -0.63876,-0.71915 -1.23748,-1.39837 -1.7963,-2.03766 -0.55779,-0.72016 -1.01648,-1.33976 -1.37459,-1.86022 -0.19945,-0.27983 -0.67747,-0.88007 -1.43565,-1.79917 -0.75723,-1.00004 -1.63453,-2.07946 -2.63228,-3.23841 0.63348,1.60303 1.24835,2.985 1.84399,4.14651 0.59562,1.16152 1.21155,2.26287 1.84837,3.30335 0.6368,1.04051 1.33374,2.10082 2.0907,3.18095 0.79692,1.03977 1.7541,2.23976 2.87041,3.59857 1.11753,1.35888 2.35439,2.71791 3.71203,4.07553 1.39918,1.31737 2.87756,2.51403 4.43828,3.5894 1.60096,1.03508 3.28242,1.94949 5.04503,2.74253 1.76386,0.71255 3.56863,1.18434 5.41491,1.41473 0.40102,0.0777 0.58086,0.17714 0.54063,0.29781 -0.0417,0.12068 -0.18223,0.18224 -0.423,0.18313 -2.33105,0.25439 -4.51937,0.12719 -6.56553,-0.38352 -2.04424,-0.59058 -3.96842,-1.42317 -5.76928,-2.49723 -1.80089,-1.07403 -3.46091,-2.32912 -4.97884,-3.76658 -1.51793,-1.51792 -2.91442,-3.07681 -4.19024,-4.67589 -0.4387,-0.59961 -0.89681,-1.17986 -1.37576,-1.73927 -0.43879,-0.59966 -0.89676,-1.22004 -1.37537,-1.85954 0.54828,2.40696 1.05741,4.77337 1.52596,7.10055 0.46854,2.32717 0.99678,4.59336 1.5867,6.79916 0.55035,2.16626 1.18114,4.25072 1.89237,6.25472 0.71191,1.92417 1.56531,3.70687 2.55954,5.34745 0.11872,0.28109 0.17838,0.42121 0.17838,0.42121 -0.0804,0.0804 -0.20111,0.0417 -0.3608,-0.11796 -0.15967,-0.15967 -0.25957,-0.25959 -0.2998,-0.29981 -0.31931,-0.3193 -0.63858,-0.63857 -0.95851,-0.95852 -0.3193,-0.31929 -0.59768,-0.67949 -0.83713,-1.07993 -0.48286,0.16354 -0.90533,0.30698 -1.26741,0.42897 -0.4025,0.0831 -0.8242,0.14537 -1.26678,0.1882 -0.40101,0.002 -0.86314,-0.0143 -1.3849,-0.0519 -0.48155,-0.0778 -1.06365,-0.21479 -1.74506,-0.41207 -0.60147,-0.19676 -1.28299,-0.47442 -2.0436,-0.83135 -0.76126,-0.35753 -1.48222,-0.71385 -2.16298,-1.07144 -0.68007,-0.43873 -1.22072,-0.81698 -1.62047,-1.13629 -0.39912,-0.39912 -0.53868,-0.6593 -0.41723,-0.78075 0.0812,-0.0811 0.24135,-0.082 0.48295,-0.003 0.24013,-6.2e-4 0.52113,0.037 0.84233,0.11552 0.32131,0.0785 0.62108,0.17715 0.90206,0.29595 0.28033,0.11943 0.48093,0.19788 0.60096,0.23747 0.68147,0.27772 1.36285,0.5542 2.04428,0.83195 0.68142,0.19724 1.36344,0.39392 2.04421,0.59055 z m -9.80932,-12.35457 c -0.82821,-2.60636 -1.576329,-5.17286 -2.244504,-7.69967 -0.667842,-2.60694 -1.198061,-4.67261 -1.591256,-6.19628 -0.747691,-2.68679 -1.414516,-5.37452 -2.001898,-8.06192 -0.626629,-2.72796 -1.195135,-5.11487 -1.705976,-7.15986 -0.118477,-0.28084 -0.217775,-0.54102 -0.296347,-0.78199 -0.03824,-0.28108 0.02234,-0.42163 0.183369,-0.42276 0.08042,-0.0804 0.200393,-7.5e-4 0.359866,0.23924 0.15941,0.23992 0.318881,0.47976 0.477579,0.7204 2.310193,3.44069 3.995265,7.18689 5.056654,11.23735 1.101543,4.01018 2.141993,8.12157 3.121943,12.33333 0.31267,1.44447 0.54663,2.68821 0.70114,3.73179 0.15543,0.96273 0.35109,1.88525 0.58627,2.76809 0.23688,0.80147 0.57304,1.62309 1.01043,2.46412 0.43739,0.8411 1.11427,1.80089 2.0319,2.88076 -0.27769,-0.60099 -0.51526,-1.20189 -0.71254,-1.80416 -0.19726,-0.60097 -0.37511,-1.18239 -0.53283,-1.74373 -0.78484,-3.04846 -1.4292,-6.23802 -1.93202,-9.56903 -0.50353,-3.3304 -0.90665,-6.52147 -1.21012,-9.57265 4.9e-4,-0.16041 -0.0177,-0.46161 -0.0548,-0.90368 -0.0375,-0.52166 0.004,-0.80303 0.12535,-0.84417 0.12046,-0.0404 0.27983,0.15921 0.47803,0.60017 0.23905,0.39995 0.41762,0.70069 0.5371,0.90061 0.23748,0.6412 0.51378,1.44308 0.82957,2.40524 0.3561,0.922 0.69181,1.90406 1.00733,2.94644 0.31579,0.96215 0.61143,1.94441 0.88701,2.94678 0.23499,0.96312 0.41098,1.78553 0.52738,2.46783 0.078,0.40128 0.21399,1.22376 0.40782,2.46762 0.19358,1.2436 0.52651,2.70831 0.99896,4.39301 0.47178,1.68408 1.08441,3.50763 1.83592,5.4714 0.79238,1.92419 1.80606,3.78541 3.04037,5.58564 -0.3608,-0.118 -0.82157,-0.25569 -1.38291,-0.41341 -0.52117,-0.19788 -1.3025,-0.57432 -2.34342,-1.13114 -3.24351,-1.78854 -6.18332,-3.92103 -8.82006,-6.39551 -2.636107,-2.55573 -5.291838,-5.21146 -7.967381,-7.96739 -1.676308,-1.75812 -3.39359,-3.4754 -5.151703,-5.1517 -1.717282,-1.71728 -3.817288,-3.25143 -6.299448,-4.60306 -0.199863,-0.11948 -0.319779,-0.23939 -0.359478,-0.35948 0.08043,-0.0804 0.3218,-0.082 0.722895,-0.004 1.486267,0.0313 3.149616,0.60437 4.991287,1.71793 1.801151,1.07427 3.600813,2.3496 5.399799,3.82542 1.759069,1.43577 3.417745,2.93208 4.97525,4.48958 1.557802,1.47742 2.795937,2.67533 3.714489,3.59388 z m -21.149575,10.72618 c -1.389882,-2.76345 -2.718964,-5.62772 -3.987101,-8.59278 -1.227858,-3.00536 -2.357045,-5.67001 -3.387999,-7.99368 -0.119203,-0.2801 -0.237762,-0.56101 -0.356252,-0.84188 -0.07898,-0.32033 -0.05762,-0.50154 0.06275,-0.54206 0.08124,-0.0812 0.241115,0.0385 0.480393,0.35836 0.239637,0.23964 0.459256,0.45926 0.658937,0.65894 2.911308,3.63817 5.43859,7.62042 7.58251,11.94616 2.144118,4.32565 4.126889,8.73255 5.948735,13.22083 1.188823,2.80491 2.336569,5.68981 3.444437,8.65614 1.067663,2.92604 2.476603,5.87032 4.226345,8.83206 0.119195,0.2806 0.198773,0.44112 0.238349,0.48069 0.08068,-2.9e-4 0.100802,0.0198 0.06032,0.0603 -0.200881,0.0415 -0.441325,-0.0778 -0.721036,-0.35752 -1.400088,-0.99589 -2.776488,-2.6151 -4.129146,-4.8564 -1.39278,-2.28163 -2.703957,-4.72407 -3.934184,-7.32791 -1.270503,-2.64404 -2.420185,-5.20784 -3.450178,-7.69214 -1.069925,-2.52441 -1.982095,-4.52748 -2.73674,-6.00931 z m 11.651286,16.86311 c -1.266514,-3.28661 -2.51194,-6.71371 -3.736266,-10.28132 -1.264507,-3.60765 -2.449376,-7.05544 -3.55497,-10.34282 -0.0795,-0.15988 -0.198631,-0.48021 -0.356535,-0.9614 -0.117117,-0.52182 -0.07501,-0.84338 0.126468,-0.96506 0.08043,-0.0804 0.281083,0.0785 0.599485,0.47886 0.319209,0.3996 0.51841,0.71953 0.596997,0.96051 0.43768,0.6805 0.955117,1.52095 1.551936,2.52146 0.556983,0.96071 1.112974,2.00204 1.668674,3.12365 0.556662,1.04084 1.092616,2.10237 1.609239,3.18363 0.475498,1.04174 0.851482,1.94292 1.128285,2.70449 0.118951,0.36128 0.415862,1.10269 0.890891,2.2241 0.476484,1.04211 1.031145,2.324 1.665296,3.84701 0.673915,1.48194 1.387893,3.08476 2.140675,4.80712 0.754248,1.64304 1.487758,3.22499 2.201944,4.74714 0.674539,1.48263 1.289561,2.82488 1.84441,4.02611 0.5563,1.12195 0.99371,1.88251 1.31279,2.28246 0.31844,0.47984 0.43736,0.76065 0.35667,0.84135 -0.0807,0.0807 -0.22098,0.0616 -0.42188,-0.0583 -0.15968,-0.15968 -0.2987,-0.2594 -0.41946,-0.29833 -0.6817,-0.27747 -1.481504,-0.8755 -2.399795,-1.7938 -0.878448,-0.95942 -1.735273,-2.05853 -2.571647,-3.29885 -0.836462,-1.24021 -1.652376,-2.54124 -2.448183,-3.90255 -0.754693,-1.4012 -1.349701,-2.68294 -1.785019,-3.84543 z M 122.9664,137.84036 c 1.59512,1.99884 3.06894,4.11896 4.42139,6.36047 1.39267,2.20127 2.627,4.16246 3.70169,5.88349 0.35751,0.6808 0.47568,1.0416 0.35563,1.0825 -0.0812,0.0811 -0.22198,0.061 -0.42188,-0.0584 -0.19915,-0.19915 -0.41877,-0.37947 -0.66007,-0.53791 -2.99887,-2.3525 -5.63365,-5.06906 -7.90565,-8.14845 -2.27132,-3.07996 -4.56311,-6.2595 -6.87386,-9.53979 -1.35345,-2.00114 -2.80858,-3.98062 -4.36396,-5.93965 -1.59473,-1.99946 -3.5117,-3.91642 -5.75072,-5.75073 -0.15968,-0.15968 -0.23862,-0.32055 -0.23807,-0.48089 0.0811,-0.0811 0.18127,-0.0616 0.3012,0.0584 0.12017,0.0398 0.24111,0.0385 0.36156,-0.002 1.48468,0.27246 3.04596,1.14716 4.68461,2.62353 1.6383,1.39692 3.23572,2.99434 4.79241,4.7924 1.55589,1.79871 2.99168,3.59781 4.30646,5.39804 1.35549,1.75923 2.45229,3.17911 3.28945,4.259 z m -50.336087,4.56871 c -0.919121,-0.7582 -1.819268,-1.41554 -2.699703,-1.97284 -0.840261,-0.59744 -1.740578,-1.17467 -2.701245,-1.73167 -0.119904,-0.0395 -0.240865,-0.11872 -0.360565,-0.23841 -0.119693,-0.11971 -0.16014,-0.19944 -0.118711,-0.24087 0.121415,-0.12142 0.301883,-0.18228 0.543223,-0.18364 l 0.482451,-0.003 c 1.042941,0.15514 2.006073,0.39014 2.887427,0.70691 0.842015,0.27611 1.962269,1.03297 3.361229,2.26965 0.559431,0.47893 1.198406,1.11791 1.916988,1.91699 0.718577,0.79896 1.356215,1.59904 1.913678,2.39933 0.598491,0.75937 1.056148,1.45986 1.373843,2.1007 0.357788,0.60061 0.456777,0.94094 0.295546,1.02238 -0.08114,0.0811 -0.241363,0.0417 -0.481338,-0.11782 -0.280538,-0.19873 -0.580341,-0.41798 -0.900168,-0.65734 -0.279564,-0.27958 -0.55906,-0.55907 -0.838659,-0.83866 -0.319473,-0.31947 -0.53914,-0.53914 -0.65896,-0.65897 -0.678878,-0.67888 -1.317818,-1.31782 -1.916882,-1.91687 -0.638971,-0.63899 -1.33813,-1.25775 -2.098296,-1.85549 z m 21.401458,-22.95898 c -0.75905,-0.67866 -1.519141,-1.27632 -2.279525,-1.79387 -0.719481,-0.55858 -1.519915,-1.07597 -2.400616,-1.55311 -0.120864,-0.0391 -0.260982,-0.0986 -0.420929,-0.1781 -0.11994,-0.11993 -0.119479,-0.19986 0.0019,-0.24135 0.160413,-4.8e-4 0.281323,-0.002 0.361544,-0.002 0.120412,-0.0405 0.241353,-0.0819 0.361771,-0.1224 l 0.241114,-0.002 c 1.003627,0.11454 1.886112,0.3104 2.647965,0.58685 0.801472,0.23688 1.821693,0.93393 3.060644,2.0911 0.439354,0.43934 0.937347,1.0595 1.495629,1.85913 0.597686,0.76007 1.135462,1.54017 1.612717,2.34086 0.477654,0.72048 0.835293,1.40119 1.072752,2.04227 0.237743,0.56103 0.235983,0.88234 -0.0056,0.96405 -0.120424,0.0405 -0.281073,-0.0383 -0.480884,-0.23808 -0.239638,-0.23964 -0.479166,-0.47916 -0.718829,-0.71883 -0.279515,-0.27951 -0.519454,-0.55875 -0.717681,-0.83984 -0.199443,-0.27982 -0.358988,-0.4796 -0.478784,-0.59939 -0.557775,-0.72018 -1.116621,-1.35947 -1.675751,-1.9186 -0.518893,-0.59928 -1.077977,-1.15836 -1.677324,-1.67732 z m 37.583989,33.34237 c 0.92162,0.43598 1.80283,0.79303 2.6452,1.06948 0.88192,0.23556 1.7645,0.47178 2.64644,0.70739 0.0812,-6.6e-4 0.20113,0.0388 0.36155,0.11871 0.11989,0.0395 0.13909,0.0998 0.0591,0.17976 -0.1214,0.12141 -0.24236,0.20306 -0.36268,0.24345 -0.0804,0 -0.181,0.0216 -0.30167,0.0619 -0.12068,0.0417 -0.22125,0.0619 -0.30121,0.0623 -1.00521,0.12654 -1.88913,0.172 -2.65231,0.13562 -0.76317,-0.0351 -1.84563,-0.39067 -3.24742,-1.06559 -0.52051,-0.27771 -1.14137,-0.65621 -1.86122,-1.13439 -0.72039,-0.47761 -1.38017,-0.97552 -1.98006,-1.49444 -0.59896,-0.51858 -1.07855,-0.99816 -1.43747,-1.43747 -0.35893,-0.43931 -0.45747,-0.74052 -0.29593,-0.90206 0.0402,-0.0402 0.20138,-6.2e-4 0.48158,0.11808 0.24087,0.0785 0.50039,0.21733 0.78074,0.41724 0.28036,0.11798 0.56076,0.27771 0.84044,0.47695 0.28108,0.11871 0.48094,0.19788 0.60174,0.23673 0.76124,0.35754 1.46143,0.73467 2.10199,1.13247 0.63981,0.39848 1.28103,0.75667 1.92155,1.07402 z"
             style="display:inline;fill:#f2c94c;stroke-width:0.91777188"
             inkscape:connector-curvature="0" />
        </g>
      </g>
    </g>
  </g>
</svg>
