<?xml version="1.0" encoding="UTF-8" standalone="no"?>
<!-- Created with Inkscape (http://www.inkscape.org/) -->

<svg
   xmlns:dc="http://purl.org/dc/elements/1.1/"
   xmlns:cc="http://creativecommons.org/ns#"
   xmlns:rdf="http://www.w3.org/1999/02/22-rdf-syntax-ns#"
   xmlns:svg="http://www.w3.org/2000/svg"
   xmlns="http://www.w3.org/2000/svg"
   xmlns:sodipodi="http://sodipodi.sourceforge.net/DTD/sodipodi-0.dtd"
   xmlns:inkscape="http://www.inkscape.org/namespaces/inkscape"
   width="900"
   height="900"
   viewBox="0 0 238.12499 238.12501"
   version="1.1"
   id="svg828"
   sodipodi:docname="icon.svg"
   inkscape:version="0.92.4 (5da689c313, 2019-01-14)"
   inkscape:export-filename="C:\Users\sever\code\flutter\tichumate\assets\launcher\icon.png"
   inkscape:export-xdpi="96"
   inkscape:export-ydpi="96">
  <defs
     id="defs822">
    <clipPath
       id="clipPath1364"
       clipPathUnits="userSpaceOnUse">
      <path
         inkscape:connector-curvature="0"
         id="path1362"
         d="m 612.105,7300 v 87.89 l -424.21,424.22 V 7300 Z" />
    </clipPath>
    <clipPath
       id="clipPath1382"
       clipPathUnits="userSpaceOnUse">
      <path
         inkscape:connector-curvature="0"
         id="path1380"
         d="m 700,7387.89 h -87.895 l -424.21,424.22 H 700 Z" />
    </clipPath>
    <clipPath
       id="clipPath1400"
       clipPathUnits="userSpaceOnUse">
      <path
         inkscape:connector-curvature="0"
         id="path1398"
         d="m 7300,7387.89 h 87.9 l 424.2,424.22 H 7300 Z" />
    </clipPath>
    <clipPath
       id="clipPath1418"
       clipPathUnits="userSpaceOnUse">
      <path
         inkscape:connector-curvature="0"
         id="path1416"
         d="m 7387.9,7300 v 87.89 l 424.2,424.22 V 7300 Z" />
    </clipPath>
    <clipPath
       id="clipPath1436"
       clipPathUnits="userSpaceOnUse">
      <path
         inkscape:connector-curvature="0"
         id="path1434"
         d="M 7387.9,700 V 612.102 L 7812.1,187.898 V 700 Z" />
    </clipPath>
    <clipPath
       id="clipPath1454"
       clipPathUnits="userSpaceOnUse">
      <path
         inkscape:connector-curvature="0"
         id="path1452"
         d="m 7300,612.102 h 87.9 L 7812.1,187.898 H 7300 Z" />
    </clipPath>
    <clipPath
       id="clipPath1472"
       clipPathUnits="userSpaceOnUse">
      <path
         inkscape:connector-curvature="0"
         id="path1470"
         d="M 700,612.102 H 612.105 L 187.895,187.898 H 700 Z" />
    </clipPath>
    <clipPath
       id="clipPath1490"
       clipPathUnits="userSpaceOnUse">
      <path
         inkscape:connector-curvature="0"
         id="path1488"
         d="M 612.105,700 V 612.102 L 187.895,187.898 V 700 Z" />
    </clipPath>
    <clipPath
       id="clipPath1738"
       clipPathUnits="userSpaceOnUse">
      <path
         inkscape:connector-curvature="0"
         id="path1736"
         d="m 4647.86,2525 v 87.9 l -424.21,424.2 V 2525 Z" />
    </clipPath>
    <clipPath
       id="clipPath1756"
       clipPathUnits="userSpaceOnUse">
      <path
         inkscape:connector-curvature="0"
         id="path1754"
         d="m 4735.75,2612.9 h -87.89 l -424.21,424.2 h 512.1 z" />
    </clipPath>
    <clipPath
       id="clipPath1824"
       clipPathUnits="userSpaceOnUse">
      <path
         inkscape:connector-curvature="0"
         id="path1822"
         d="m 3832.07,1000 h -3000 v 6000 h 3000 z" />
    </clipPath>
  </defs>
  <sodipodi:namedview
     id="base"
     pagecolor="#ffffff"
     bordercolor="#666666"
     borderopacity="1.0"
     inkscape:pageopacity="0.0"
     inkscape:pageshadow="2"
     inkscape:zoom="0.5"
     inkscape:cx="199.74489"
     inkscape:cy="168.2993"
     inkscape:document-units="mm"
     inkscape:current-layer="layer5"
     showgrid="false"
     units="px"
     inkscape:window-width="1920"
     inkscape:window-height="1027"
     inkscape:window-x="-8"
     inkscape:window-y="-8"
     inkscape:window-maximized="1"
     inkscape:object-nodes="false"
     inkscape:snap-others="false"
     showguides="true" />
  <metadata
     id="metadata825">
    <rdf:RDF>
      <cc:Work
         rdf:about="">
        <dc:format>image/svg+xml</dc:format>
        <dc:type
           rdf:resource="http://purl.org/dc/dcmitype/StillImage" />
        <dc:title></dc:title>
      </cc:Work>
    </rdf:RDF>
  </metadata>
  <g
     inkscape:groupmode="layer"
     id="layer5"
     inkscape:label="bg"
     style="display:inline"
     sodipodi:insensitive="true">
    <rect
       style="opacity:1;fill:#1a1a1f;fill-opacity:1;fill-rule:nonzero;stroke:none;stroke-width:2.9104166;stroke-miterlimit:4;stroke-dasharray:none;stroke-opacity:1"
       id="rect3796"
       width="238.125"
       height="238.125"
       x="0"
       y="-8.5265128e-14" />
  </g>
  <g
     inkscape:groupmode="layer"
     id="layer6"
     inkscape:label="bg 1"
     style="display:inline">
    <path
       style="display:inline;opacity:1;fill:#000000;fill-opacity:0.9906977;fill-rule:nonzero;stroke:none;stroke-width:15.85029411;stroke-miterlimit:4;stroke-dasharray:none;stroke-opacity:1"
       d="m 430.91992,248.64844 -2.95703,2.95703 1.16016,1.1582 -2.33594,2.33789 2.89453,2.89258 -18.01367,18.01563 -10.2832,-10.28321 0.20312,0.27735 -6.0293,4.39648 -1.47265,-2.02344 -100.66797,-0.50976 0.0566,-11.3086 -91.83984,12.21289 10.27343,10.26954 -5.28125,5.27539 -4.91015,-4.91016 -16.55664,16.55664 -4.86133,-4.85742 -1.41211,1.41211 -0.80469,-0.80078 -8.54492,8.54297 7.07227,7.07226 -5.2754,5.27735 -2.32031,-2.31641 -4.37305,4.37305 -1.45703,-1.45704 -2.34765,2.34766 88.11914,88.11524 -0.96875,0.96874 8.6875,8.6875 -9.77344,9.7754 0.25586,0.25781 -3.86914,3.86914 7.37305,7.375 -14.18946,14.18945 8.00391,8.00586 -16.37695,16.37695 5.46093,5.46094 -6.2832,6.28125 1.32031,89.20508 6.66992,29.21484 11.0293,11.02735 -1.50195,1.50195 4.36719,4.36524 -1.77539,1.77734 L 525.375,900 H 900 V 458.63086 l -201.74414,-201.74219 -1.01758,1.02149 6.42969,6.43164 -1.63086,1.63086 2.65234,2.65429 -3.63867,3.63672 -2.65039,-2.65234 -0.004,0.01 -14.15429,-14.15429 -2.1836,2.1875 9.52149,9.52148 -6.81836,6.81445 11.99609,11.99805 -9.61328,9.61328 4.82422,4.82422 -5.2793,5.27734 -9.27929,-9.27929 -3.08789,3.08398 1.91211,1.91211 -5.27735,5.27735 -0.44141,-0.44336 -9.71289,30.42968 -0.59765,-0.1914 4.53125,4.53125 -36.15235,36.15234 -119.47851,-119.48047 -2.00391,2.00196 8.67969,8.67968 -5.27734,5.27344 -17.5,-17.5 -3.16016,3.16406 6.17187,6.17188 -3.41406,3.41406 10.24219,10.23828 -5.86523,5.86524 9.68359,9.68359 -8.86523,8.86523 4.78906,4.79102 -5.27539,5.27539 -9.07032,-9.07031 -0.70703,0.70898 -5.40429,-5.40234 z m -229.76953,19.61914 -0.0156,0.006 0.0195,0.0156 z"
       transform="scale(0.26458333)"
       id="path7979"
       inkscape:connector-curvature="0" />
    <path
       id="path7626"
       d="m 80.940387,97.39933 c -1.278437,4.87421 -2.876367,9.92887 -4.794002,15.16425 -1.826314,5.23523 -3.743844,10.19969 -5.752726,14.89385 -0.09147,0.18017 -0.31931,0.63071 -0.684817,1.35384 -0.365327,0.63214 -0.639242,0.90207 -0.8218,0.81263 -0.273858,0 -0.410821,-0.36252 -0.410796,-1.08393 0.09148,-0.81261 0.182399,-1.35386 0.273868,-1.62521 0.09146,-1.08246 0.273859,-2.43647 0.547712,-4.06104 0.27387,-1.62478 0.547728,-3.29471 0.821868,-5.00968 0.365323,-1.71509 0.730612,-3.38489 1.09582,-5.00962 0.456258,-1.62478 0.867436,-3.02392 1.232648,-4.19733 0.182403,-0.36092 0.45681,-1.26364 0.821866,-2.70786 0.365332,-1.44412 0.730443,-3.15926 1.095836,-5.14497 0.456227,-2.076114 0.913031,-4.332576 1.369686,-6.769775 0.456243,-2.43699 0.867405,-4.828992 1.232647,-7.175826 l -1.643661,-0.406355 c -0.456266,3.159142 -1.141452,6.408645 -2.05451,9.748268 -0.821853,3.249512 -1.780697,6.544208 -2.87637,9.883948 -1.004459,3.24944 -2.008882,6.58917 -3.013344,10.01921 -1.004464,3.3397 -1.917686,6.67943 -2.739492,10.01975 -0.730446,3.15795 -1.278324,6.45379 -1.64355,9.88313 -0.365327,3.4308 -0.502261,6.9056 -0.410779,10.42589 0.09147,3.42929 0.502254,6.81462 1.232811,10.15451 0.730448,3.24889 1.826103,6.27337 3.287209,9.07052 0.273844,0.63224 0.365325,0.94903 0.273861,0.94904 -0.182382,0 -0.319321,-0.0444 -0.410796,-0.13631 l -0.273961,-0.26989 c -2.556958,-2.97903 -4.47446,-6.18396 -5.752902,-9.61327 -1.187028,-3.52027 -1.963098,-7.13151 -2.328473,-10.83218 -0.273864,-3.70066 -0.182392,-7.44683 0.273847,-11.23697 0.456808,-3.79163 1.095839,-7.4923 1.917693,-11.10282 1.552301,-6.67952 3.378565,-13.08818 5.4787,-19.22609 2.100302,-6.228221 3.88078,-12.320877 5.341886,-18.278158 -5.478871,-0.902686 -10.637974,-1.715118 -15.477596,-2.4372 -4.748427,-0.812312 -9.177084,-0.812319 -13.28627,4e-6 -0.273861,-1e-6 -0.410788,-0.04439 -0.410785,-0.135318 2e-5,-0.180731 0.04435,-0.270529 0.136932,-0.270527 0.182392,-0.09035 0.319322,-0.180731 0.410788,-0.270527 3.104714,-1.805323 6.391918,-2.798194 9.861851,-2.978758 3.56118,-0.180735 7.213781,-1e-6 10.957743,0.541614 3.835035,0.451263 7.715984,1.083239 11.642387,1.89551 4.017819,0.722242 8.035637,1.128442 12.053399,1.218627 2.465514,0.09035 5.022394,-0.09033 7.670531,-0.54163 2.739378,-0.541622 5.341884,-1.3088 7.807414,-2.301698 2.55671,-1.083183 4.83946,-2.482371 6.84839,-4.197314 2.1003,-1.71496 3.78959,-3.745836 5.06801,-6.092661 0.1824,-0.451275 0.36534,-0.67713 0.54772,-0.677128 v 0.406357 0.270536 c -1.00444,3.429899 -2.55675,6.273268 -4.65706,8.529912 -2.10012,2.166274 -4.52004,3.926399 -7.25936,5.280409 -2.64812,1.353833 -5.524496,2.301688 -8.629194,2.843209 -3.013529,0.451256 -5.981147,0.63186 -8.903249,0.541617 0.456814,2.798195 0.456806,6.047641 9e-6,9.748413 -0.365328,3.700811 -0.958839,7.446731 -1.780648,11.237751 -0.821695,3.79119 -1.689281,7.40167 -2.602386,10.83173 -0.913219,3.33971 -1.643677,6.04704 -2.191507,8.12399 -1.095833,4.33288 -2.374159,8.75521 -3.835209,13.26854 -1.461037,4.51326 -2.785103,8.48384 -3.97218,11.91464 -0.182396,0.4518 -0.410801,0.85805 -0.684821,1.21884 -0.182392,0.3609 -0.365355,0.49557 -0.547749,0.4063 -0.182409,-0.0909 -0.27389,-0.31709 -0.273867,-0.67761 0.09147,-0.45181 0.136932,-0.90206 0.136947,-1.35385 0.27386,-6.76921 1.27844,-13.53982 3.013344,-20.30901 1.734907,-6.77064 3.606912,-13.58488 5.615856,-20.44486 1.095656,-3.79101 2.145751,-7.62722 3.150156,-11.508439 1.095829,-3.881376 1.872064,-8.033495 2.32854,-12.456413 -0.456238,-0.09035 -0.867467,-0.135304 -1.232702,-0.135318 -0.273853,5e-6 -0.639188,5e-6 -1.09582,1e-6 1e-6,1.805301 -0.0915,3.565455 -0.273866,5.280399 -0.0915,1.715054 -0.365331,3.294607 -0.821805,4.7388 z m 3.698168,-28.839014 c 3.561222,0.451268 7.168159,0.812313 10.820915,1.08307 3.652425,0.270538 6.80276,0.406357 9.45092,0.406354 0.91303,3e-6 1.36968,0.135304 1.36966,0.406366 2e-5,0.360882 -0.45679,0.67689 -1.36966,0.947704 -4.65704,1.805299 -9.587895,2.617586 -14.792966,2.437178 -5.113602,-0.180719 -10.318506,-0.677044 -15.614745,-1.489368 -3.195958,-0.451277 -6.483118,-0.902646 -9.86185,-1.35395 -3.378574,-0.451266 -7.031173,-0.451268 -10.957571,-10e-7 -0.36534,0.09035 -0.547718,0.04438 -0.547728,-0.135304 10e-6,-0.180742 0.09091,-0.315979 0.273868,-0.406345 0.182394,-0.09035 0.365325,-0.225635 0.547719,-0.406357 1.73491,-1.263802 3.97203,-2.076132 6.711568,-2.437237 2.739325,-0.451265 5.570065,-0.63187 8.49205,-0.54162 3.013357,-6e-6 5.889831,0.180715 8.629206,0.54162 2.739323,0.360896 5.022226,0.677106 6.8485,0.947872 z m -20.545558,4.197198 c 3.835153,0.541635 7.715985,1.218571 11.64254,2.030911 4.01778,0.812417 7.89859,1.715119 11.642395,2.707926 0.182393,0.180721 0.547753,0.360887 1.095832,0.541634 0.639234,0.09035 0.958842,0.270537 0.958841,0.541623 -2.1e-5,0.180731 -0.273869,0.31601 -0.821854,0.406343 -0.547729,0.09035 -0.958864,0.225644 -1.23282,0.406359 -0.821852,0.18072 -1.871893,0.270539 -3.150341,0.27054 -1.187063,-1.1e-5 -2.465345,-5e-6 -3.835028,-7e-6 -1.27844,-0.09035 -2.556884,-0.180719 -3.835208,-0.270541 -1.278451,-0.09033 -2.374282,-0.225615 -3.287324,-0.406356 -0.639246,-0.09035 -2.237123,-0.271063 -4.794046,-0.541606 -2.465354,-0.27055 -5.204847,-0.451269 -8.218197,-0.541632 -3.013352,-0.09035 -5.935346,-0.04438 -8.766093,0.135319 -2.739311,0.09035 -4.702627,0.451252 -5.889648,1.083243 -0.365336,0.180162 -0.593624,0.270523 -0.684874,0.270525 h -0.136946 c -3e-6,-0.360896 0.182389,-0.722125 0.547725,-1.083243 0.913218,-1.173398 2.145905,-2.166284 3.698218,-2.978583 1.643663,-0.812446 3.33295,-1.444326 5.067855,-1.895623 1.735028,-0.451278 3.46994,-0.722144 5.205006,-0.812326 1.826103,-0.09035 3.424203,-0.04438 4.793885,0.13516 z m 4.520021,83.809596 c 0.27385,1.53424 0.593565,3.0685 0.958779,4.60274 0.456805,1.53424 1.004477,3.02449 1.643723,4.46779 0.365337,0.72314 0.410789,1.08398 0.136932,1.08398 -0.182993,0 -0.45679,-0.0909 -0.821851,-0.2711 -0.182336,-0.0892 -0.319311,-0.22618 -0.410611,-0.40653 -1.187107,-1.3538 -2.145916,-2.61676 -2.876365,-3.79014 -0.639251,-1.17341 -1.187077,-3.07 -1.643651,-5.68671 -0.1824,-0.99301 -0.319881,-2.25741 -0.410801,-3.79162 1.3e-5,-1.53424 0.04435,-3.02306 0.136932,-4.46782 0.09147,-1.4448 0.228407,-2.66221 0.410795,-3.65518 0.182385,-0.99307 0.456801,-1.49029 0.821802,-1.49029 0.0915,0 0.182383,0.2262 0.273861,0.67767 0.182388,0.45182 0.31932,0.99299 0.410783,1.6252 0.09147,0.54108 0.182398,1.12794 0.273863,1.76015 0.09147,0.54106 0.136932,0.90207 0.136932,1.08245 0.182956,1.53423 0.319323,2.97904 0.410803,4.33288 0.182389,1.35383 0.365322,2.66221 0.547725,3.92656 z M 108.33457,71.809821 c 2.00888,-1.715119 3.69835,-3.565452 5.06803,-5.551324 0.18238,-0.360892 0.36532,-0.541623 0.54771,-0.541603 0.0915,0 0.13689,0.315999 0.13689,0.947814 -10e-6,0.360887 -0.0444,0.676936 -0.13689,0.947697 -0.36533,1.534563 -0.7762,2.753017 -1.23269,3.655634 -0.4568,0.902694 -1.55242,1.985887 -3.28732,3.249513 -0.63926,0.541624 -1.50669,1.083245 -2.60252,1.624761 -1.0957,0.451263 -2.14575,0.857455 -3.15021,1.218639 -1.00447,0.36088 -1.9177,0.586669 -2.73948,0.676879 -0.73044,-1e-5 -1.141475,-0.180747 -1.232715,-0.541628 -4e-5,-0.09032 0.13689,-0.225635 0.410815,-0.406325 0.27391,-0.271057 0.59362,-0.541615 0.95886,-0.812427 0.4568,-0.270537 0.86741,-0.496725 1.23269,-0.676945 0.36533,-0.270517 0.63921,-0.451259 0.82181,-0.54162 0.91322,-0.451258 1.78071,-0.947649 2.6025,-1.489213 0.91311,-0.541632 1.7807,-1.128375 2.60239,-1.760138 z m 25.22287,-3.520264 c -0.36535,-0.812437 -0.45627,-1.21863 -0.27441,-1.218627 0.27441,-9e-6 0.59405,0.225629 0.95926,0.676947 0.36516,0.361081 0.59443,0.586282 0.68509,0.676943 0.91235,1.353833 1.9171,2.843232 3.01277,4.467965 1.0957,1.534526 2.1459,3.384888 3.15065,5.551175 1.00475,2.166438 1.91708,4.693714 2.73992,7.582212 0.82142,2.798196 1.4609,6.137902 1.9171,10.019038 0.54882,4.42291 0.63951,8.80069 0.27441,13.13337 -0.27443,4.24239 -0.77596,8.52994 -1.50641,12.86251 -0.0925,0.18074 -0.18349,0.63188 -0.27442,1.35393 -0.0909,0.72214 -0.27439,1.0831 -0.54883,1.08308 -0.18178,0 -0.36531,-0.31598 -0.54717,-0.94769 -0.18347,-0.72206 -0.2744,-1.21857 -0.2744,-1.48933 -0.1835,-0.99286 -0.36535,-2.1663 -0.54882,-3.52025 -0.18186,-1.35399 -0.36534,-2.75302 -0.54717,-4.1972 -0.0909,-1.53458 -0.1835,-2.97872 -0.27442,-4.33272 0,-1.44418 0,-2.70784 0,-3.79102 0,-0.36089 -0.0444,-1.12826 -0.13632,-2.3017 0,-1.26374 -0.0444,-2.70794 -0.13789,-4.332716 -0.0909,-1.624741 -0.27277,-3.384873 -0.54719,-5.280381 -0.18351,-1.985628 -0.41079,-3.926328 -0.68499,-5.821851 0.18183,2.798152 0.18183,5.596272 0,8.394411 -0.1835,2.798197 -0.41079,5.641407 -0.68499,8.529917 -0.27443,2.79821 -0.50169,5.64135 -0.68496,8.52975 -0.18183,2.79819 -0.18185,5.64153 0,8.5299 0.27438,5.5968 1.41541,11.28351 3.42491,17.05967 2.00804,5.77764 5.20412,10.69574 9.58688,14.75874 0.54901,0.54087 0.77733,0.81116 0.68498,0.81112 -0.18182,0.0909 -0.50169,2e-5 -0.9578,-0.26999 -3.19613,-1.80559 -5.84512,-3.97204 -7.9441,-6.49931 -2.10039,-2.52723 -3.83561,-5.2804 -5.20557,-8.25943 -1.27904,-2.97755 -2.23683,-6.04749 -2.87635,-9.20697 -0.63953,-3.24893 -1.00475,-6.49844 -1.09567,-9.74778 0,-0.27107 -0.0444,-0.4967 -0.13632,-0.67705 0,-0.27052 2e-5,-0.54161 0,-0.81222 -1.82758,5.14493 -3.88109,10.10911 -6.16491,14.89374 -2.19138,4.78318 -4.38269,9.38738 -6.57408,13.80971 -2.10012,4.42236 -4.10902,8.62028 -6.0267,12.59231 -1.82626,3.8811 -3.28721,7.49086 -4.38304,10.83069 -0.18239,0.45179 -0.31987,0.67766 -0.41078,0.67766 -0.18238,0 -0.27391,-0.13473 -0.27388,-0.40634 0,-0.27166 0,-0.45182 0,-0.54109 0.0914,-4.24338 0.95884,-8.66571 2.6025,-13.26845 1.64355,-4.69374 3.56119,-9.52381 5.75273,-14.4874 2.28289,-5.05599 4.65701,-10.19995 7.12208,-15.43489 2.46564,-5.32613 4.61155,-10.74193 6.43766,-16.24807 1.09572,-3.52027 2.0095,-7.17597 2.73999,-10.967 0.82136,-3.791031 1.32452,-7.581976 1.50634,-11.372994 0.1835,-3.791086 0.0444,-7.491917 -0.41077,-11.102471 -0.45627,-3.700735 -1.27902,-7.130797 -2.46564,-10.289943 z m 16.98381,77.986603 c 1.00476,2.07697 2.32926,4.01751 3.97202,5.82314 0.63955,-3.79163 1.87306,-7.53781 3.69925,-11.23846 1.82614,-3.79015 3.8811,-7.58177 6.1634,-11.37341 2.3747,-3.79014 4.83889,-7.5816 7.39693,-11.37268 2.55661,-3.79102 4.92987,-7.62724 7.12125,-11.50863 1.64422,-2.79818 3.0142,-5.8219 4.10989,-9.071414 1.18664,-3.249512 2.00802,-6.543964 2.46564,-9.883669 0.54716,-3.430071 0.685,-6.814965 0.41079,-10.15468 -0.18348,-3.339701 -0.8683,-6.498971 -2.05495,-9.477711 -0.27443,-0.451269 -0.31986,-0.767155 -0.13631,-0.947723 0.18181,-0.180721 0.45625,-0.04438 0.82139,0.406354 0.45626,0.360894 0.73045,0.631939 0.82145,0.812477 1.09565,1.534396 1.96398,3.56528 2.60348,6.092664 0.73044,2.437084 1.2321,5.190223 1.5064,8.25918 0.36535,2.978588 0.54719,6.137848 0.54719,9.477562 0,3.339618 -0.13631,6.679506 -0.41079,10.01921 -0.36535,4.4229 -1.05023,9.25198 -2.05497,14.4872 -0.91232,5.23522 -2.0535,10.0194 -3.42347,14.35228 -0.0909,0.18019 -0.2744,0.58675 -0.54883,1.21747 -0.18184,0.63213 -0.41078,0.94898 -0.68497,0.94898 -0.18184,-0.0909 -0.31818,-0.45185 -0.41079,-1.08392 -0.0909,-0.72169 -0.13631,-1.17345 -0.13631,-1.35385 0,-0.99305 0,-2.16643 0,-3.52026 0.0909,-1.44483 0.18182,-2.88828 0.27441,-4.33242 0.0909,-1.53457 0.18182,-2.97877 0.27276,-4.33274 0.1835,-1.44421 0.36533,-2.66278 0.54881,-3.65566 0.0909,-0.54163 0.22896,-1.76015 0.41081,-3.65565 0.2744,-1.98587 0.50281,-4.19716 0.68498,-6.63442 -1.09568,2.52746 -1.96256,4.78408 -2.60206,6.76981 -0.63953,1.98575 -1.1881,3.92643 -1.64427,5.82195 -0.45624,1.89551 -0.86686,3.88138 -1.23208,5.95746 -0.27444,2.07563 -0.54884,4.51345 -0.82288,7.31056 -0.27275,2.79859 -0.41081,5.73218 -0.4108,8.80068 0.0925,3.06994 0.41082,6.09302 0.95931,9.07203 0.63951,2.97899 1.50634,5.91256 2.60205,8.80069 1.18808,2.79858 2.69448,5.3713 4.52057,7.71814 0.36537,0.54103 0.45625,0.85662 0.27442,0.94752 -0.18353,0.0892 -0.41189,10e-6 -0.68498,-0.27107 -2.92182,-2.34683 -5.25107,-4.96358 -6.98626,-7.85309 -1.64278,-2.97759 -2.87637,-6.09301 -3.69774,-9.34195 -0.82141,-3.24892 -1.27903,-6.54327 -1.36997,-9.88314 0,-3.4308 0.18352,-6.77067 0.54885,-10.01958 0.18183,-1.17338 0.31987,-2.34682 0.41078,-3.52027 0.18182,-1.17355 0.36535,-2.39218 0.54717,-3.65575 -2.10047,3.3397 -4.19939,6.58933 -6.29983,9.74877 -2.10041,3.15942 -4.06446,6.31739 -5.89056,9.47683 -1.82614,3.07 -3.46892,6.1385 -4.92987,9.20697 -1.36996,2.97902 -2.42017,5.95806 -3.1506,8.93565 -0.1835,0.45182 -0.27442,0.6776 -0.27442,0.6776 -0.18178,0 -0.27447,-0.1801 -0.27443,-0.54106 0,-0.36089 2e-5,-0.58669 2e-5,-0.67761 -2e-5,-0.72168 -2e-5,-1.4433 0,-2.16642 0,-0.72168 0.0925,-1.44333 0.27439,-2.16645 -0.73049,-0.36088 -1.37001,-0.67621 -1.91707,-0.94753 -0.54881,-0.36091 -1.09571,-0.76715 -1.64427,-1.2189 -0.45624,-0.45013 -0.95932,-0.99151 -1.50638,-1.62376 -0.45626,-0.63212 -0.95929,-1.44475 -1.5064,-2.43776 -0.45736,-0.90207 -0.91377,-1.98603 -1.36997,-3.24895 -0.45625,-1.26435 -0.86831,-2.48177 -1.23353,-3.65521 -0.27275,-1.26435 -0.45626,-2.3028 -0.54717,-3.1154 0,-0.90209 0.13632,-1.35383 0.4108,-1.35383 0.1835,1.1e-4 0.36536,0.18013 0.54884,0.54272 0.27238,0.27035 0.54715,0.6307 0.82136,1.08245 0.27437,0.45186 0.50169,0.9021 0.68498,1.35386 0.18183,0.45179 0.31987,0.76713 0.41078,0.94752 0.45626,1.08397 0.91384,2.16644 1.37003,3.25042 0.54718,0.99296 1.09566,1.98597 1.64277,2.97752 z m 2.87638,-25.04728 c 2.00947,-3.88139 4.06443,-7.62723 6.16484,-11.23786 2.19138,-3.70082 3.92658,-6.63441 5.20412,-8.80067 2.19137,-3.88128 4.47517,-7.67224 6.8484,-11.37306 2.37471,-3.791005 4.42967,-7.130904 6.1634,-10.019228 0.18349,-0.451258 0.36532,-0.857512 0.54883,-1.21863 0.27445,-0.360852 0.50175,-0.451207 0.68498,-0.270527 0.18177,0 0.2273,0.225635 0.13631,0.677047 -0.0909,0.451278 -0.1818,0.902537 -0.2744,1.353827 -1.27756,6.499044 -3.60682,12.636892 -6.98476,18.413771 -3.28704,5.77673 -6.7575,11.5988 -10.40974,17.46591 -1.27905,1.98576 -2.42018,3.65569 -3.42492,5.00964 -0.91233,1.26364 -1.73376,2.52727 -2.46568,3.79075 -0.63804,1.17343 -1.18666,2.48183 -1.6428,3.92657 -0.45623,1.44481 -0.77595,3.29441 -0.95928,5.55178 0.36535,-0.99301 0.77595,-1.94055 1.23362,-2.84412 0.45623,-0.90207 0.91231,-1.76012 1.36844,-2.57273 2.55811,-4.33198 5.43442,-8.66468 8.63054,-12.99727 3.19463,-4.33271 6.34529,-8.39449 9.45045,-12.18556 0.18184,-0.18073 0.50169,-0.54164 0.95929,-1.0832 0.54714,-0.63191 0.91259,-0.9024 1.09565,-0.81233 0.18183,0.0904 0.13631,0.49616 -0.13804,1.21846 -0.18182,0.72213 -0.31988,1.2638 -0.41079,1.62476 -0.45625,0.99299 -1.05021,2.21144 -1.78065,3.65564 -0.63953,1.44436 -1.36997,2.93358 -2.19139,4.46814 -0.73044,1.44419 -1.5064,2.88834 -2.32773,4.33253 -0.82286,1.35399 -1.55337,2.48227 -2.19289,3.38488 -0.36535,0.54162 -1.14113,1.62479 -2.32776,3.24952 -1.18664,1.62415 -2.46565,3.65565 -3.83561,6.09344 -1.37001,2.43632 -2.73848,5.18944 -4.10844,8.25795 -1.27906,3.07 -2.23685,6.3189 -2.87638,9.74822 -0.27441,-0.54109 -0.63952,-1.21742 -1.09565,-2.03001 -0.36534,-0.8126 -0.82291,-2.12098 -1.36998,-3.92658 -1.64427,-5.68669 -2.55659,-11.41887 -2.73997,-17.19503 -0.0909,-5.86727 -0.0909,-11.86974 0,-18.00781 0.0925,-3.88123 0.0925,-7.76261 0,-11.643828 0,-3.881381 -0.63947,-7.988318 -1.91708,-12.320863 -0.0909,-0.360884 -0.0909,-0.631918 0,-0.812488 0.18178,0 0.45629,0.271046 0.82102,0.812864 1.64427,1.714977 2.87637,4.242357 3.69921,7.58205 0.82144,3.249502 1.41399,6.724522 1.7792,10.425365 0.36536,3.61046 0.54884,7.17591 0.54884,10.69617 0.0909,3.43008 0.13631,6.18303 0.13631,8.25914 z m -36.02262,-11.77943 c 1.55225,-4.69365 3.28717,-9.43254 5.20485,-14.216452 2.00875,-4.783944 3.74397,-9.07134 5.20485,-12.862374 0.18183,-0.451255 0.36532,-0.902695 0.54881,-1.354004 0.27274,-0.45126 0.50167,-0.6319 0.6835,-0.541675 0.18361,0 0.22897,0.315987 0.1379,0.947877 0,0.541624 0,1.03801 0,1.489326 -0.82142,7.401533 -2.46568,14.757919 -4.93133,22.069242 -2.46534,7.31146 -5.20483,14.53238 -8.21817,21.66343 -1.82633,4.51329 -3.78947,9.07057 -5.88972,13.67479 -2.10014,4.51327 -3.83521,9.43283 -5.2049,14.75724 -0.18239,0.45181 -0.27386,0.72314 -0.27386,0.81259 0.0915,0.0909 0.0915,0.13631 0,0.13631 -0.27388,-0.18013 -0.41081,-0.58666 -0.4108,-1.21886 -0.45679,-2.70769 -0.18239,-6.09302 0.82187,-10.15452 1.00448,-4.15243 2.2829,-8.39439 3.83521,-12.72724 1.55225,-4.4238 3.15033,-8.62039 4.79383,-12.59187 1.64371,-4.06194 2.87653,-7.35645 3.69832,-9.88387 z m -5.88986,32.22398 c 2.28291,-5.14547 4.7484,-10.42587 7.39653,-15.84121 2.64798,-5.50599 5.2053,-10.74135 7.67091,-15.70582 0.0909,-0.27051 0.31822,-0.76714 0.68357,-1.48938 0.45735,-0.72208 0.86833,-1.03788 1.23352,-0.9477 0.18178,0 0.22891,0.4064 0.13632,1.21863 -0.0909,0.81232 -0.2273,1.399 -0.4108,1.76013 -0.27441,1.26364 -0.63944,2.79819 -1.09566,4.60333 -0.45624,1.71513 -1.00473,3.52026 -1.64426,5.41578 -0.54717,1.80532 -1.14112,3.61064 -1.77921,5.4164 -0.63991,1.71462 -1.23343,3.15793 -1.78126,4.33139 -0.27385,0.54271 -0.77618,1.71612 -1.50666,3.52025 -0.6392,1.71614 -1.46105,3.79163 -2.46554,6.22942 -0.91314,2.43632 -1.91761,5.05452 -3.01334,7.85167 -1.0044,2.70917 -1.96323,5.32585 -2.87631,7.85312 -0.91321,2.4378 -1.73506,4.6497 -2.46551,6.63424 -0.63926,1.89657 -1.00445,3.25041 -1.09583,4.06298 -0.1824,0.90211 -0.36534,1.35386 -0.54773,1.35386 -0.18238,0 -0.31933,-0.18013 -0.41084,-0.54269 0,-0.36091 -0.0444,-0.63071 -0.13689,-0.81117 -0.45681,-1.08395 -0.68483,-2.66364 -0.68483,-4.73915 0.0915,-2.07697 0.36532,-4.28738 0.82182,-6.63424 0.45627,-2.34683 1.00449,-4.73918 1.64356,-7.17692 0.73061,-2.43636 1.50669,-4.55727 2.32848,-6.36294 z m 81.63428,-11.64327 c -0.45624,4.06151 -1.18662,8.123 -2.19136,12.18451 -0.91378,4.06149 -1.73519,7.67274 -2.46564,10.83218 -0.36534,1.17338 -0.63953,1.71467 -0.82141,1.62521 -0.1835,-10e-5 -0.31984,-0.1819 -0.41073,-0.5428 0,-0.45014 -0.0444,-0.90209 -0.13805,-1.35384 -0.73046,-6.04755 -0.63804,-12.09507 0.2744,-18.14264 0.91383,-6.04746 1.91708,-12.23058 3.01274,-18.54899 0.73195,-3.79101 1.32451,-7.67245 1.78069,-11.64406 0.45737,-4.06177 0.45737,-8.394476 0,-12.997719 0,-0.360914 0.0926,-0.631929 0.27443,-0.812499 0.1834,0 0.27444,0.135261 0.27435,0.406407 0.0909,0.180763 0.22897,0.31598 0.41063,0.40655 1.36994,1.985727 2.14584,4.738622 2.32924,8.258886 0.27276,3.430095 0.27276,7.040565 0,10.831745 -0.27441,3.79102 -0.68498,7.44675 -1.2336,10.96701 -0.45626,3.51993 -0.82136,6.36402 -1.09567,8.53045 z M 131.0918,78.308685 c -0.18185,-1.895527 -0.45624,-3.655637 -0.82142,-5.280412 -0.27441,-1.624739 -0.63952,-3.294512 -1.0957,-5.009628 -0.0909,-0.180186 -0.13805,-0.406358 -0.13805,-0.676894 2e-5,-0.27054 0.0444,-0.406359 0.13805,-0.406357 0.27442,-2e-6 0.54715,0.13516 0.82143,0.406358 l 0.54828,0.54216 c 1.00328,1.353953 1.82615,2.707949 2.46418,4.061939 0.63954,1.263584 1.0502,3.384911 1.23359,6.363436 0.0909,1.173442 0.0909,2.617646 0,4.332754 -0.0909,1.714962 -0.27441,3.339712 -0.54884,4.874109 -0.18182,1.53451 -0.45623,2.843322 -0.82142,3.926561 -0.27441,1.083077 -0.54715,1.579551 -0.82139,1.489378 -0.1834,0 -0.31983,-0.225694 -0.41081,-0.677106 -0.0925,-0.541619 -0.18347,-1.128201 -0.27441,-1.760132 0,-0.631879 0,-1.263591 0,-1.895531 0,-0.722069 0,-1.218556 0,-1.48938 0,-1.534395 0,-2.97852 0,-4.33251 0,-1.444204 -0.0909,-2.933584 -0.2744,-4.468149 z m 50.13151,-1.760145 c -0.0909,-1.624752 -0.27442,-3.159137 -0.54884,-4.603329 -0.18183,-1.444326 -0.5017,-2.933588 -0.95777,-4.468087 -0.0925,-0.180722 -0.18351,-0.406357 -0.27441,-0.676952 -2e-5,-0.271079 0.0909,-0.360892 0.27478,-0.27071 0.18183,0.18073 0.31986,0.31599 0.41081,0.406335 0.18184,0.09033 0.36535,0.180172 0.54717,0.270519 l 0.27441,0.270537 c 1.00475,1.263637 1.78071,2.482268 2.32926,3.655651 0.63803,1.173442 1.00325,3.114125 1.09567,5.82196 2e-5,0.993006 -0.13804,2.25663 -0.41079,3.791199 -0.18351,1.534395 -0.45736,3.023715 -0.82286,4.467907 -0.27442,1.35401 -0.63953,2.527452 -1.09566,3.520274 -0.36534,0.9027 -0.73044,1.263818 -1.09558,1.083351 -0.18184,-0.09035 -0.27433,-0.360953 -0.27439,-0.812498 0,-0.541625 0,-1.083005 0,-1.62469 0,-0.631755 0.0444,-1.218477 0.13804,-1.760142 0.0909,-0.541625 0.13631,-0.947685 0.13631,-1.218447 0.18353,-1.444202 0.27443,-2.798212 0.27443,-4.061949 0.0909,-1.263644 0.0909,-2.527277 0,-3.791075 z m 4.79343,80.15351 c 0.54883,1.53421 1.14118,2.93356 1.78071,4.19794 0.73044,1.26285 1.46089,2.5272 2.19132,3.79014 0.0925,0.0909 0.18347,0.27111 0.27441,0.54273 0.0909,0.18017 0.0444,0.26997 -0.13631,0.26997 -0.2744,1e-5 -0.50338,-0.0444 -0.68498,-0.13473 -0.0909,-0.0909 -0.22892,-0.1802 -0.41082,-0.27102 -0.18354,-0.0892 -0.31994,-0.18013 -0.4108,-0.26999 -1.27898,-0.99299 -2.32926,-1.94052 -3.15062,-2.84411 -0.82282,-0.90209 -1.64425,-2.52722 -2.46569,-4.87411 -0.27438,-0.90205 -0.54827,-2.03143 -0.82136,-3.38532 -0.2744,-1.35386 -0.45732,-2.66215 -0.54882,-3.92652 -0.0909,-1.26291 -0.0909,-2.34688 0,-3.24895 0.0909,-0.90208 0.31988,-1.35384 0.68499,-1.35384 0.0909,0 0.22859,0.22656 0.4108,0.67767 0.18346,0.36094 0.31987,0.8111 0.41078,1.35384 0.1835,0.45015 0.31987,0.94754 0.41078,1.48877 0.1835,0.4518 0.31989,0.76713 0.41248,0.94755 0.45623,1.26434 0.82132,2.48179 1.09566,3.65524 0.27273,1.17337 0.59257,2.3028 0.95779,3.38528 z"
       style="display:inline;fill:#f2c94c;stroke-width:1.46677864"
       inkscape:connector-curvature="0" />
  </g>
</svg>
