<?xml version="1.0" encoding="UTF-8" standalone="no"?>
<!-- Created with Inkscape (http://www.inkscape.org/) -->

<svg
   xmlns:dc="http://purl.org/dc/elements/1.1/"
   xmlns:cc="http://creativecommons.org/ns#"
   xmlns:rdf="http://www.w3.org/1999/02/22-rdf-syntax-ns#"
   xmlns:svg="http://www.w3.org/2000/svg"
   xmlns="http://www.w3.org/2000/svg"
   xmlns:sodipodi="http://sodipodi.sourceforge.net/DTD/sodipodi-0.dtd"
   xmlns:inkscape="http://www.inkscape.org/namespaces/inkscape"
   width="1024"
   height="500"
   viewBox="0 0 270.93333 132.29167"
   version="1.1"
   id="svg8"
   inkscape:version="0.92.4 5da689c313, 2019-01-14"
   sodipodi:docname="feature_graphic.svg"
   inkscape:export-filename="/home/severin/code/flutter/tichumate-flutter/assets/google_play_assets/en/feature_graphic.png"
   inkscape:export-xdpi="96"
   inkscape:export-ydpi="96">
  <defs
     id="defs2" />
  <sodipodi:namedview
     id="base"
     pagecolor="#ffffff"
     bordercolor="#666666"
     borderopacity="1.0"
     inkscape:pageopacity="0.0"
     inkscape:pageshadow="2"
     inkscape:zoom="0.7"
     inkscape:cx="219.11351"
     inkscape:cy="352.653"
     inkscape:document-units="mm"
     inkscape:current-layer="layer1"
     showgrid="false"
     units="px"
     inkscape:window-width="1920"
     inkscape:window-height="1025"
     inkscape:window-x="0"
     inkscape:window-y="0"
     inkscape:window-maximized="1" />
  <metadata
     id="metadata5">
    <rdf:RDF>
      <cc:Work
         rdf:about="">
        <dc:format>image/svg+xml</dc:format>
        <dc:type
           rdf:resource="http://purl.org/dc/dcmitype/StillImage" />
        <dc:title></dc:title>
      </cc:Work>
    </rdf:RDF>
  </metadata>
  <g
     inkscape:label="Layer 1"
     inkscape:groupmode="layer"
     id="layer1"
     transform="translate(0,-164.70832)">
    <rect
       id="rect3713"
       width="270.93332"
       height="132.29167"
       x="0"
       y="164.70831"
       style="stroke-width:0.28426033;fill:#1a1a1f;fill-opacity:1" />
    <g
       id="g4750"
       transform="translate(0,-7.9890663)">
      <g
         transform="matrix(0.26458333,0,0,0.26458333,70.010074,215.43346)"
         id="g4678"
         style="fill:none">
        <path
           style="fill:#f2c94c"
           inkscape:connector-curvature="0"
           d="m 179.408,30.554 c -1.455,5.0495 -3.124,10.2274 -5.007,15.5337 -1.797,5.3063 -3.68,10.313 -5.648,15.0202 -0.086,0.2568 -0.343,0.7275 -0.77,1.4122 -0.343,0.6846 -0.642,0.9842 -0.899,0.8986 -0.171,0 -0.3,-0.3851 -0.385,-1.1554 0,-0.8558 0.043,-1.4977 0.128,-1.9257 0.171,-1.1126 0.428,-2.4819 0.77,-4.1081 0.343,-1.6261 0.685,-3.295 1.027,-5.0067 0.428,-1.7117 0.814,-3.3806 1.156,-5.0067 0.428,-1.6262 0.856,-3.0383 1.284,-4.2365 0.171,-0.5135 0.47,-1.6261 0.898,-3.3378 0.428,-1.7117 0.899,-3.7658 1.412,-6.1622 0.514,-2.3964 1.027,-4.9639 1.541,-7.7027 0.599,-2.7387 1.07,-5.3918 1.412,-7.9594 0.428,-2.5675 0.728,-4.9211 0.899,-7.06077 0.171,-2.13964 0.128,-3.76576 -0.129,-4.87837 -0.256,-0.85585 -0.256,-1.28378 0,-1.28378 0.172,0 0.3,0.12838 0.386,0.38514 l 0.513,0.51351 c 0.856,1.54054 1.498,3.42341 1.926,5.64867 0.513,2.2252 0.813,4.536 0.898,6.9324 0.086,2.3964 0,4.7927 -0.256,7.1891 -0.257,2.3964 -0.642,4.4933 -1.156,6.2906 z"
           id="path4520" />
        <path
           style="fill:#f2c94c"
           inkscape:connector-curvature="0"
           d="m 174.273,0.898649 c 1.113,4.364851 1.369,8.943661 0.77,13.736451 -0.513,4.7928 -1.455,9.6711 -2.824,14.6351 -1.369,4.9639 -2.91,10.0135 -4.622,15.1486 -1.711,5.0495 -3.166,10.1418 -4.364,15.2769 -0.771,3.2523 -1.413,6.6329 -1.926,10.1419 -0.428,3.4234 -0.642,6.8468 -0.642,10.2702 0,3.3379 0.257,6.5901 0.77,9.7568 0.599,3.081 1.584,5.8626 2.953,8.3445 0.171,0.3424 0.214,0.5991 0.128,0.7703 0,0.1712 -0.256,-0.0856 -0.77,-0.7703 -2.225,-2.5675 -3.894,-5.4774 -5.007,-8.7297 -1.027,-3.2522 -1.626,-6.6756 -1.797,-10.2702 -0.171,-3.5946 0,-7.3175 0.514,-11.1689 0.513,-3.8513 1.241,-7.6171 2.182,-11.2972 1.284,-5.1352 2.696,-10.1847 4.236,-15.1486 1.627,-4.964 3.124,-9.7996 4.494,-14.5068 1.455,-4.7071 2.653,-9.2432 3.594,-13.608 0.942,-4.45045 1.412,-8.72971 1.412,-12.837811 C 173.374,0.213963 173.417,0 173.503,0 c 0.342,0 0.599,0.29955 0.77,0.898649 z"
           id="path4522" />
        <path
           style="fill:#f2c94c"
           inkscape:connector-curvature="0"
           d="m 197.638,98.2091 c -3.167,-1.4549 -5.692,-3.7229 -7.574,-6.804 -1.883,-3.0811 -3.039,-6.6329 -3.467,-10.6554 -0.428,-3.9369 -0.428,-7.1891 0,-9.7567 0.428,-2.6531 0.942,-5.2635 1.541,-7.831 0.085,-0.3424 0.257,-0.8987 0.513,-1.669 0.257,-0.8558 0.428,-1.7117 0.514,-2.5675 0.171,-0.8559 0.171,-1.5833 0,-2.1824 -0.086,-0.6847 -0.428,-1.1127 -1.027,-1.2838 -1.198,-0.2568 -2.568,0.2995 -4.108,1.6689 -1.541,1.2838 -3.038,2.9099 -4.493,4.8784 -1.37,1.9684 -2.654,4.0225 -3.852,6.1621 -1.112,2.054 -1.84,3.6802 -2.182,4.8784 -0.77,2.4819 -1.584,4.8355 -2.439,7.0607 -0.856,2.2253 -1.626,4.4505 -2.311,6.6757 -0.257,0.9414 -0.471,1.3694 -0.642,1.2838 -0.171,0 -0.3,-0.1712 -0.385,-0.5135 v -1.1554 c 0,-3.4234 0.257,-6.8469 0.77,-10.2703 0.514,-3.509 1.198,-6.9752 2.054,-10.3986 0.942,-3.4234 1.969,-6.8468 3.081,-10.2702 1.113,-3.4234 2.183,-6.8896 3.21,-10.3986 1.369,-4.3649 2.653,-8.8153 3.851,-13.3513 1.284,-4.5361 2.14,-9.4144 2.568,-14.6351 v -0.6419 c 0,-0.0856 0.042,-0.1284 0.128,-0.1284 0.257,0 0.471,0.3423 0.642,1.027 0.428,1.1126 0.599,2.696 0.513,4.75 0,1.9685 -0.171,4.1509 -0.513,6.5473 -0.257,2.3964 -0.685,4.8356 -1.284,7.3175 -0.513,2.482 -1.07,4.7072 -1.669,6.6757 1.626,-1.7117 3.552,-3.0383 5.777,-3.9797 2.225,-0.9415 4.878,-1.1982 7.96,-0.7703 3.509,0.5135 6.204,1.7973 8.087,3.8513 1.883,1.9685 3.167,4.3649 3.852,7.1892 0.684,2.8243 0.856,5.8626 0.513,9.1148 -0.257,3.1667 -0.77,6.2478 -1.54,9.2433 -0.685,2.3107 -1.327,4.3648 -1.926,6.1621 -0.599,1.7117 -1.198,3.295 -1.797,4.75 -0.599,1.4549 -1.113,2.8243 -1.541,4.1081 -0.428,1.2837 -0.77,2.6531 -1.027,4.1081 -0.171,0.9414 -0.342,1.4121 -0.513,1.4121 -0.172,0 -0.343,-0.1711 -0.514,-0.5135 l -0.257,-1.027 c -0.513,-1.8829 -0.556,-4.1937 -0.128,-6.9324 0.514,-2.7388 1.155,-5.6059 1.926,-8.6013 0.77,-3.0811 1.455,-6.1622 2.054,-9.2433 0.684,-3.1666 0.941,-6.0765 0.77,-8.7297 -0.086,-2.6531 -0.77,-4.9639 -2.054,-6.9324 -1.284,-2.054 -3.466,-3.4662 -6.547,-4.2364 -1.284,-0.3424 -2.696,-0.428 -4.237,-0.2568 -1.455,0.0856 -2.867,0.4279 -4.236,1.027 -1.284,0.5135 -2.439,1.2838 -3.466,2.3108 -1.028,1.0271 -1.712,2.2252 -2.055,3.5946 1.627,-1.7117 3.723,-3.1239 6.291,-4.2365 2.568,-1.1126 5.05,-1.2837 7.446,-0.5135 2.225,0.6847 3.808,1.9257 4.75,3.723 0.941,1.7973 1.498,3.3806 1.669,4.75 0.342,2.9955 0.128,5.7342 -0.642,8.2162 -0.685,2.3963 -1.498,4.7072 -2.439,6.9324 -0.171,0.2567 -0.428,0.6847 -0.771,1.2837 -0.342,0.5136 -0.599,0.7275 -0.77,0.6419 -0.171,0 -0.257,-0.3423 -0.257,-1.027 0,-0.6847 0.043,-1.1982 0.129,-1.5405 0.257,-0.8559 0.471,-2.1824 0.642,-3.9797 0.171,-1.8829 0.214,-3.8086 0.128,-5.777 0,-1.9685 -0.257,-3.8086 -0.77,-5.5203 -0.428,-1.7117 -1.156,-2.8671 -2.183,-3.4662 -1.198,-0.6847 -2.653,-0.8559 -4.364,-0.5135 -1.712,0.2567 -3.552,1.2838 -5.521,3.0811 -1.711,1.5405 -3.166,3.3378 -4.365,5.3918 -1.198,1.9685 -2.225,4.5788 -3.081,7.8311 0.514,-0.9415 1.327,-2.268 2.44,-3.9797 1.112,-1.7117 2.353,-3.3379 3.723,-4.8784 1.454,-1.5405 2.952,-2.7387 4.493,-3.5946 1.626,-0.9414 3.166,-1.0698 4.621,-0.3851 0.942,0.5135 1.541,1.4121 1.798,2.6959 0.342,1.1982 0.428,2.5676 0.256,4.1081 -0.085,1.5406 -0.299,3.0383 -0.642,4.4933 -0.342,1.4549 -0.641,2.6103 -0.898,3.4662 -0.942,2.5675 -1.583,5.3918 -1.926,8.4729 -0.342,2.9955 -0.342,5.9482 0,8.8581 0.428,2.9099 1.284,5.6486 2.568,8.2162 1.284,2.5675 3.166,4.75 5.648,6.5472 0.771,0.428 0.899,0.6419 0.386,0.6419 z"
           id="path4524" />
        <path
           style="fill:#f2c94c"
           inkscape:connector-curvature="0"
           d="m 200.976,97.1821 c -1.199,-0.6847 -2.354,-1.4121 -3.467,-2.1824 -1.027,-0.7703 -2.054,-2.268 -3.081,-4.4932 -0.427,-0.8559 -0.77,-2.0113 -1.027,-3.4662 -0.171,-1.455 -0.299,-2.8244 -0.385,-4.1081 0,-1.3694 0.086,-2.482 0.257,-3.3379 0.171,-0.9414 0.385,-1.3693 0.642,-1.2837 0.171,0 0.342,0.2139 0.513,0.6418 0.172,0.3424 0.3,0.7703 0.386,1.2838 l 0.256,1.5406 c 0.086,0.4279 0.129,0.7274 0.129,0.8986 0.342,1.8829 0.642,3.295 0.898,4.2365 0.257,0.8558 0.599,1.7973 1.027,2.8243 0.685,1.3694 1.37,2.6103 2.054,3.7229 0.685,1.1127 1.541,2.1397 2.568,3.0811 0.428,0.3424 0.513,0.5991 0.257,0.7703 -0.171,0.1712 -0.514,0.1284 -1.027,-0.1284 z"
           id="path4526" />
        <path
           style="fill:#f2c94c"
           inkscape:connector-curvature="0"
           d="m 168.239,98.3375 c -0.171,0.0856 -0.556,0.0428 -1.155,-0.1284 -0.685,-0.3423 -1.412,-0.9842 -2.183,-1.9256 -0.684,-0.9415 -1.24,-2.7816 -1.668,-5.5203 -0.172,-1.1126 -0.257,-2.4392 -0.257,-3.9797 0,-1.6261 0.043,-3.1239 0.128,-4.4932 0.171,-1.455 0.385,-2.696 0.642,-3.723 0.257,-1.027 0.556,-1.4977 0.899,-1.4121 0.085,0 0.171,0.2567 0.256,0.7702 0.086,0.5135 0.172,1.1126 0.257,1.7973 0.086,0.5991 0.129,1.241 0.129,1.9257 v 1.2838 c 0.085,1.8828 0.171,3.295 0.256,4.2364 0.172,0.8559 0.386,2.0541 0.642,3.5946 0.257,1.6261 0.557,3.1239 0.899,4.4932 0.342,1.2838 0.813,2.268 1.412,2.9527 0.086,0 0,0.0428 -0.257,0.1284 z"
           id="path4528" />
        <path
           style="fill:#f2c94c"
           inkscape:connector-curvature="0"
           d="m 52.7419,47.3715 c 1.7973,-4.964 3.2951,-9.7568 4.4933,-14.3784 0.4279,-1.3693 0.6847,-2.8671 0.7702,-4.4932 0.1712,-1.6261 0.2568,-3.295 0.2568,-5.0067 h 1.027 c 0.3424,0 0.7275,0.0428 1.1554,0.1283 -0.4279,4.1937 -1.1554,8.1306 -2.1824,11.8108 -0.9414,3.6802 -1.9257,7.3176 -2.9527,10.9121 -1.8829,6.5045 -3.6374,12.9662 -5.2635,19.3851 -1.6261,6.4189 -2.5675,12.8378 -2.8243,19.2567 0,0.4279 -0.0428,0.8559 -0.1284,1.2838 0,0.3423 0.0856,0.5563 0.2568,0.6419 0.1711,0.0856 0.3423,-0.0428 0.5135,-0.3852 0.2567,-0.3423 0.4707,-0.7274 0.6419,-1.1554 1.1126,-3.2522 2.3536,-7.018 3.7229,-11.2972 1.3694,-4.2793 2.5676,-8.473 3.5946,-12.5811 0.5135,-1.9684 1.1982,-4.536 2.0541,-7.7026 0.8558,-3.2523 1.6689,-6.6757 2.4391,-10.2703 0.7703,-3.5946 1.3266,-7.1463 1.669,-10.6553 0.4279,-3.509 0.4279,-6.5901 0,-9.2433 2.7387,0.0856 5.5202,-0.0855 8.3445,-0.5135 2.9099,-0.5135 5.6059,-1.4121 8.0878,-2.6959 2.5676,-1.2838 4.8356,-2.9527 6.8041,-5.0067 1.9684,-2.1397 3.4234,-4.8356 4.3648,-8.08785 v -0.6419 c -0.1712,0 -0.3423,0.21397 -0.5135,0.6419 -1.1982,2.22521 -2.7815,4.15085 -4.75,5.77705 -1.8829,1.6261 -4.0225,2.9526 -6.4189,3.9797 -2.3108,0.9414 -4.75,1.6689 -7.3175,2.1824 -2.482,0.4279 -4.8784,0.5991 -7.1892,0.5135 -3.7657,-0.0856 -7.5315,-0.4707 -11.2972,-1.1554 -3.6802,-0.7703 -7.3176,-1.3694 -10.9122,-1.7973 -3.509,-0.5135 -6.9324,-0.6847 -10.2702,-0.5135 -3.2523,0.1712 -6.3333,1.1126 -9.2432,2.8243 -0.0856,0.0856 -0.214,0.1712 -0.3852,0.2568 -0.0855,0 -0.1283,0.0856 -0.1283,0.2567 0,0.0856 0.1283,0.1284 0.3851,0.1284 3.8513,-0.7703 8.0022,-0.7703 12.4527,0 4.536,0.6847 9.3716,1.455 14.5067,2.3108 -1.3694,5.6486 -3.0383,11.4256 -5.0068,17.331 -1.9684,5.8198 -3.6801,11.8964 -5.1351,18.2297 -0.7703,3.4234 -1.3693,6.9324 -1.7973,10.527 -0.4279,3.5946 -0.5135,7.1464 -0.2567,10.6554 0.3423,3.509 1.0698,6.9324 2.1824,10.2702 1.1982,3.2522 2.9955,6.2905 5.3919,9.1148 l 0.2567,0.2568 c 0.0856,0.0856 0.214,0.1284 0.3852,0.1284 0.0855,0 0,-0.2996 -0.2568,-0.8987 -1.3694,-2.6531 -2.3964,-5.5202 -3.0811,-8.6013 -0.6847,-3.1667 -1.0698,-6.3761 -1.1554,-9.6283 -0.0856,-3.3379 0.0428,-6.6329 0.3852,-9.8851 0.3423,-3.2523 0.8558,-6.3762 1.5405,-9.3716 0.7703,-3.1667 1.6261,-6.3334 2.5676,-9.5 0.9414,-3.2522 1.8828,-6.4189 2.8243,-9.5 1.027,-3.1666 1.9256,-6.2905 2.6959,-9.3716 0.8559,-3.1666 1.4977,-6.2477 1.9257,-9.2432 l 1.5405,0.3852 c -0.3423,2.2252 -0.7275,4.4932 -1.1554,6.804 -0.4279,2.3108 -0.8558,4.4504 -1.2838,6.4189 -0.3423,1.8829 -0.6847,3.509 -1.027,4.8783 -0.3423,1.3694 -0.5991,2.2253 -0.7703,2.5676 -0.3423,1.1126 -0.7274,2.4392 -1.1554,3.9797 -0.3423,1.5406 -0.6846,3.1239 -1.027,4.75 -0.2567,1.6261 -0.5135,3.2095 -0.7703,4.75 -0.2567,1.5405 -0.4279,2.8243 -0.5135,3.8513 -0.0856,0.2568 -0.1711,0.7703 -0.2567,1.5406 0,0.6846 0.1284,1.027 0.3851,1.027 0.1712,0.0856 0.4279,-0.1712 0.7703,-0.7703 l 0.6419,-1.2838 c 1.8828,-4.4504 3.6801,-9.1576 5.3918,-14.1215 z"
           id="path4530" />
        <path
           style="fill:#f2c94c"
           inkscape:connector-curvature="0"
           d="M 70.8432,6.67565 C 67.4198,6.4189 64.0392,6.07656 60.7014,5.64863 58.9897,5.39188 56.85,5.09233 54.2825,4.74998 51.7149,4.40764 49.019,4.23647 46.1947,4.23647 43.4559,4.15089 40.8028,4.32206 38.2352,4.74998 35.6677,5.09233 33.5708,5.86259 31.9447,7.06079 31.7735,7.23196 31.6024,7.36034 31.4312,7.44592 31.26,7.53151 31.1744,7.65988 31.1744,7.83105 c 0,0.17118 0.1712,0.21397 0.5136,0.12839 3.6801,-0.42793 7.1035,-0.42793 10.2702,0 3.1667,0.42792 6.2477,0.85585 9.2432,1.28378 4.964,0.77028 9.8423,1.24098 14.6351,1.41218 4.8784,0.1711 9.5,-0.5991 13.8648,-2.31083 0.8559,-0.25676 1.2838,-0.5563 1.2838,-0.89865 0,-0.25675 -0.4279,-0.38513 -1.2838,-0.38513 -2.482,0 -5.4346,-0.12838 -8.8581,-0.38514 z"
           id="path4532" />
        <path
           style="fill:#f2c94c"
           inkscape:connector-curvature="0"
           d="M 52.3568,11.554 C 48.6766,10.7838 45.0393,10.1419 41.4447,9.62834 40.1609,9.45718 38.6632,9.41438 36.9515,9.49997 c -1.6262,0.08558 -3.2523,0.34234 -4.8784,0.77023 -1.6261,0.428 -3.2095,1.0271 -4.75,1.7973 -1.4549,0.7703 -2.6103,1.7117 -3.4662,2.8243 -0.3423,0.3424 -0.5135,0.6847 -0.5135,1.0271 h 0.1284 c 0.0856,0 0.2995,-0.0856 0.6419,-0.2568 1.1126,-0.5991 2.9527,-0.9414 5.5202,-1.027 2.6532,-0.1712 5.3919,-0.214 8.2162,-0.1284 2.8243,0.0856 5.3919,0.2568 7.7027,0.5135 2.3964,0.2568 3.8941,0.4279 4.4932,0.5135 0.8559,0.1712 1.8829,0.2996 3.0811,0.3852 l 3.5946,0.2567 h 3.5945 c 1.1982,0 2.1825,-0.0856 2.9527,-0.2567 0.2568,-0.1712 0.6419,-0.2996 1.1554,-0.3852 0.5136,-0.0856 0.7703,-0.2139 0.7703,-0.3851 0,-0.2568 -0.2995,-0.4279 -0.8986,-0.5135 -0.5136,-0.1712 -0.8559,-0.3424 -1.0271,-0.5135 -3.509,-0.9415 -7.1463,-1.7973 -10.9121,-2.5676 z"
           id="path4534" />
        <path
           style="fill:#f2c94c"
           inkscape:connector-curvature="0"
           d="m 46.5798,93.4591 c -0.3423,-1.4549 -0.6419,-2.9099 -0.8986,-4.3648 -0.1712,-1.1982 -0.3424,-2.4392 -0.5136,-3.723 -0.0855,-1.2837 -0.2139,-2.6531 -0.3851,-4.1081 0,-0.1711 -0.0428,-0.5135 -0.1284,-1.027 -0.0856,-0.5991 -0.1711,-1.1554 -0.2567,-1.6689 -0.0856,-0.5991 -0.214,-1.1126 -0.3852,-1.5405 -0.0855,-0.428 -0.1711,-0.6419 -0.2567,-0.6419 -0.3424,0 -0.5991,0.4707 -0.7703,1.4121 -0.1712,0.9415 -0.2995,2.0969 -0.3851,3.4662 -0.0856,1.3694 -0.1284,2.7816 -0.1284,4.2365 0.0856,1.455 0.214,2.6532 0.3851,3.5946 0.428,2.482 0.9415,4.2793 1.5406,5.3919 0.6847,1.1126 1.5833,2.3108 2.6959,3.5945 0.0856,0.1712 0.214,0.2996 0.3852,0.3852 0.3423,0.1712 0.599,0.2567 0.7702,0.2567 0.2568,0 0.214,-0.3423 -0.1284,-1.027 -0.5991,-1.3693 -1.1126,-2.7815 -1.5405,-4.2365 z"
           id="path4536" />
        <path
           style="fill:#f2c94c"
           inkscape:connector-curvature="0"
           d="m 87.6608,3.46621 c -1.2838,1.88287 -2.8672,3.63737 -4.75,5.26349 -0.7703,0.5991 -1.5834,1.1554 -2.4392,1.6689 -0.7703,0.5135 -1.5833,0.9842 -2.4392,1.4122 -0.1712,0.0856 -0.4279,0.2567 -0.7703,0.5135 -0.3423,0.1712 -0.7274,0.3851 -1.1554,0.6419 -0.3423,0.2567 -0.6419,0.5135 -0.8986,0.7702 -0.2568,0.1712 -0.3851,0.2996 -0.3851,0.3852 0.0855,0.3423 0.4707,0.5135 1.1554,0.5135 0.7702,-0.0856 1.6261,-0.2996 2.5675,-0.6419 0.9415,-0.3423 1.9257,-0.7275 2.9527,-1.1554 1.027,-0.5135 1.8401,-1.027 2.4392,-1.5405 1.6261,-1.1982 2.6531,-2.22526 3.0811,-3.08111 0.4279,-0.85585 0.813,-2.01125 1.1554,-3.46621 0.0855,-0.25675 0.1283,-0.5563 0.1283,-0.89864 0,-0.5991 -0.0428,-0.89865 -0.1283,-0.89865 -0.1712,0 -0.3424,0.17117 -0.5135,0.51352 z"
           id="path4538" />
        <path
           style="fill:#f2c94c"
           inkscape:connector-curvature="0"
           d="m 394.047,118.967 c -34.007,-0.212 -67.588,-0.496 -100.744,-0.85 -17.003,-0.212 -38.257,-0.46 -63.761,-0.743 -25.505,-0.284 -52.285,-0.425 -80.34,-0.425 -27.205,-0.071 -53.5596,0.07 -79.0643,0.425 -25.5046,0.283 -46.3334,0.92 -62.48632,1.912 -1.70031,0.142 -3.40062,0.248 -5.10093,0.319 C 0.850143,119.675 0,119.782 0,119.923 c 0,0.142 1.70031,0.177 5.10092,0.107 36.55668,-0.355 70.56278,-0.355 102.01808,0 31.456,0.354 62.062,0.708 91.817,1.062 49.309,0.637 97.768,1.027 145.377,1.169 48.458,0.141 94.367,-0.496 137.725,-1.913 8.501,-0.212 12.752,-0.46 12.752,-0.743 0,-0.213 -4.251,-0.319 -12.752,-0.319 -24.655,0 -53.985,-0.106 -87.991,-0.319 z"
           id="path4540" />
        <path
           style="fill:#f2c94c"
           inkscape:connector-curvature="0"
           d="m 98.744,55.8444 c 0.2568,-1.1126 0.3852,-2.3964 0.3852,-3.8513 0.0856,-1.455 0,-2.9527 -0.2568,-4.4933 -0.2567,-1.5405 -0.7275,-2.9954 -1.4121,-4.3648 -0.5991,-1.455 -1.4122,-2.6959 -2.4392,-3.723 -0.5135,-0.3423 -0.8131,-0.5135 -0.8987,-0.5135 -0.3423,0 -0.3423,0.2568 0,0.7703 0.5135,1.1126 0.6847,2.8671 0.5135,5.2635 -0.0855,2.3108 -0.3423,4.75 -0.7702,7.3175 -0.4279,2.482 -0.8987,4.75 -1.4122,6.8041 -0.4279,1.9684 -0.6847,3.1666 -0.7702,3.5945 -0.5991,1.5406 -1.1554,3.4662 -1.669,5.777 -0.4279,2.3109 -0.6418,4.1937 -0.6418,5.6487 -0.0856,0.1711 -0.1284,0.5135 -0.1284,1.027 0,0.5135 0.1284,0.8131 0.3851,0.8986 0.0856,0 0.2568,-0.2139 0.5135,-0.6418 0.2568,-0.428 0.4707,-0.7275 0.6419,-0.8987 1.5405,-2.7387 2.9955,-5.7342 4.3649,-8.9864 1.4549,-3.2523 2.6531,-6.4617 3.5945,-9.6284 z"
           id="path4542" />
        <path
           style="fill:#f2c94c"
           inkscape:connector-curvature="0"
           d="m 99.2576,75.2295 c 0.3423,-1.5406 0.8984,-3.509 1.6684,-5.9054 0.771,-2.482 1.413,-5.0067 1.926,-7.5743 0.514,-2.6532 0.77,-5.2207 0.77,-7.7027 0,-2.5675 -0.513,-4.6644 -1.54,-6.2905 -0.342,-0.3423 -0.599,-0.5135 -0.77,-0.5135 -0.172,0 -0.214,0.1712 -0.129,0.5135 0,3.2522 -0.385,6.2905 -1.155,9.1148 -0.6849,2.7388 -1.4551,5.4347 -2.311,8.0878 -1.4549,4.3649 -2.7815,8.6442 -3.9797,12.8378 -1.1982,4.1081 -1.7117,8.3446 -1.5405,12.7095 v 0.8986 c 0.0856,0.2568 0.2567,0.3851 0.5135,0.3851 0.1712,0 0.2995,-0.0855 0.3851,-0.2567 l 0.3851,-0.7703 c 0.8559,-2.054 1.8401,-4.4504 2.9527,-7.1892 1.1127,-2.8243 2.0541,-5.6058 2.8244,-8.3445 z"
           id="path4544" />
        <path
           style="fill:#f2c94c"
           inkscape:connector-curvature="0"
           d="m 90.1427,98.2091 c -1.6261,-1.7117 -2.8671,-3.5945 -3.7229,-5.6486 -0.8559,-2.1396 -1.455,-4.2793 -1.7973,-6.4189 -0.3424,-2.2252 -0.428,-4.4504 -0.2568,-6.6756 0.1712,-2.2253 0.5135,-4.3221 1.027,-6.2906 0.7703,-3.081 1.7545,-6.1621 2.9527,-9.2432 1.1982,-3.081 2.2252,-6.1193 3.0811,-9.1148 0.8559,-3.0811 1.3266,-6.0766 1.4122,-8.9865 0.1711,-2.9955 -0.428,-5.9054 -1.7973,-8.7297 -0.2568,-0.4279 -0.428,-0.6419 -0.5135,-0.6419 -0.0856,0 -0.1284,0.0856 -0.1284,0.2568 0,0.0856 0.0428,0.1712 0.1284,0.2568 0.2567,2.5675 0.0855,5.2207 -0.5136,7.9594 -0.5991,2.7387 -1.3693,5.563 -2.3108,8.4729 -0.9414,2.8243 -2.0112,5.777 -3.2094,8.8581 -1.1126,2.9955 -2.0541,6.0766 -2.8243,9.2432 -0.5991,2.3108 -1.027,4.6644 -1.2838,7.0608 -0.1712,2.3964 0,4.7928 0.5135,7.1892 0.5135,2.3108 1.455,4.536 2.8243,6.6756 1.3694,2.1397 3.3379,4.1081 5.9054,5.9054 0.1712,0.1712 0.3851,0.2568 0.6419,0.2568 0.2568,0.0856 0.214,-0.0428 -0.1284,-0.3852 z"
           id="path4546" />
        <path
           style="fill:#f2c94c"
           inkscape:connector-curvature="0"
           d="m 91.1697,93.3308 c -0.2567,-0.6847 -0.5563,-1.5406 -0.8986,-2.5676 -0.2568,-1.027 -0.4707,-2.0112 -0.6419,-2.9527 -0.1712,-0.3423 -0.3851,-0.9842 -0.6419,-1.9256 -0.2567,-0.9415 -0.4707,-1.4122 -0.6419,-1.4122 -0.3423,0 -0.5991,0.2995 -0.7702,0.8986 -0.0856,0.5991 -0.1284,1.3694 -0.1284,2.3108 0,0.8559 0.0428,1.7973 0.1284,2.8244 0.1711,0.9414 0.3851,1.7545 0.6419,2.4391 0.5135,1.7117 1.1126,2.9099 1.7972,3.5946 0.7703,0.6847 1.7545,1.241 2.9527,1.6689 0.5135,0.2568 0.8987,0.3852 1.1554,0.3852 0.0856,0 0.0856,-0.0856 0,-0.2568 0,-0.0856 -0.0428,-0.1284 -0.1283,-0.1284 -0.5991,-0.6847 -1.1554,-1.4121 -1.669,-2.1824 -0.4279,-0.7703 -0.813,-1.6689 -1.1554,-2.6959 z"
           id="path4548" />
        <path
           style="fill:#f2c94c"
           inkscape:connector-curvature="0"
           d="m 101.183,26.9594 c -0.428,0 -1.112,-0.0428 -2.0538,-0.1284 -0.8559,-0.1712 -1.2838,-0.5991 -1.2838,-1.2838 0,-0.2567 0.3851,-0.5563 1.1554,-0.8986 0.7703,-0.428 1.6262,-0.9843 2.5672,-1.6689 0.942,-0.7703 1.798,-1.7118 2.568,-2.8244 0.77,-1.1982 1.155,-2.6959 1.155,-4.4932 0,-2.2252 -0.428,-3.8941 -1.283,-5.0067 -0.172,-0.2568 -0.386,-0.5135 -0.642,-0.7703 -0.257,-0.34234 -0.343,-0.5563 -0.257,-0.64188 0.171,0 0.342,0.08558 0.513,0.25675 0.257,0.08558 0.428,0.17117 0.514,0.25676 1.712,0.94147 2.995,2.18247 3.851,3.72297 0.942,1.4549 1.412,2.8671 1.412,4.2365 0,2.7387 -0.641,4.9639 -1.925,6.6756 -1.284,1.7117 -3.381,2.5676 -6.291,2.5676 z"
           id="path4550" />
        <path
           style="fill:#f2c94c"
           inkscape:connector-curvature="0"
           d="m 96.4332,21.8243 c -1.027,0.4279 -1.5405,0.1711 -1.5405,-0.7703 0,-0.6847 0.2568,-1.3266 0.7703,-1.9257 0.5135,-0.6847 0.9842,-1.4121 1.4121,-2.1824 0.5135,-0.7703 0.8559,-1.6261 1.0271,-2.5676 0.1711,-1.027 -0.0856,-2.268 -0.7703,-3.7229 C 97.1607,10.2274 96.8612,9.75673 96.4332,9.24322 96.0053,8.7297 95.8769,8.43015 96.0481,8.34457 c 0.1712,-0.08559 0.5135,0 1.027,0.25676 0.5991,0.17116 0.9843,0.29954 1.1554,0.38512 1.455,0.68469 2.5245,1.71175 3.2095,3.08105 0.77,1.3694 1.155,2.5676 1.155,3.5946 0,1.6261 -0.684,2.9955 -2.054,4.1081 -1.2834,1.027 -2.6528,1.7117 -4.1078,2.0541 z"
           id="path4552" />
        <path
           style="fill:#f2c94c"
           inkscape:connector-curvature="0"
           d="m 92.7103,14.8918 c 0,-0.4279 0.1284,-0.8986 0.3851,-1.4121 0.2568,-0.5991 0.6847,-0.8987 1.2838,-0.8987 0.4279,0 0.7703,0.2996 1.027,0.8987 0.2568,0.5135 0.3852,0.9842 0.3852,1.4121 0,0.3424 -0.1284,0.8131 -0.3852,1.4122 -0.2567,0.5135 -0.5991,0.7703 -1.027,0.7703 -0.5991,0 -1.027,-0.2568 -1.2838,-0.7703 -0.2567,-0.5135 -0.3851,-0.9842 -0.3851,-1.4122 z"
           id="path4554" />
        <path
           style="fill:#f2c94c"
           inkscape:connector-curvature="0"
           d="m 127.65,64.8309 c -0.77,2.1396 -1.326,4.2792 -1.668,6.4189 -0.685,3.6801 -1.113,6.804 -1.284,9.3716 -0.086,2.4819 0.342,4.4076 1.284,5.777 1.027,1.3693 2.696,2.1396 5.006,2.3108 2.311,0.1711 5.563,-0.2568 9.757,-1.2838 0.599,-0.1712 0.941,-0.214 1.027,-0.1284 0.171,0.0856 0.128,0.214 -0.128,0.3851 -0.171,0.1712 -0.428,0.3424 -0.771,0.5136 -1.369,0.8558 -2.867,1.5405 -4.493,2.054 -1.54,0.5135 -3.081,0.8131 -4.621,0.8986 -1.541,0 -2.996,-0.1711 -4.365,-0.5135 -1.37,-0.3423 -2.482,-0.9414 -3.338,-1.7973 -1.712,-1.7117 -2.696,-4.0653 -2.953,-7.0607 -0.257,-3.0811 -0.043,-6.205 0.642,-9.3716 0.514,-2.5676 1.155,-5.0924 1.926,-7.5743 0.77,-2.5676 1.754,-4.9212 2.952,-7.0608 1.284,-2.2252 2.739,-4.1509 4.365,-5.777 1.712,-1.7117 3.68,-2.9955 5.906,-3.8514 1.112,-0.4279 2.31,-0.6419 3.594,-0.6419 1.284,0 2.439,0.1712 3.466,0.5136 1.028,0.3423 1.883,0.8558 2.568,1.5405 0.77,0.6847 1.241,1.4977 1.412,2.4392 0.086,0.9414 -0.043,1.8828 -0.385,2.8243 -0.342,0.8558 -0.856,1.6689 -1.54,2.4392 -0.6,0.7702 -1.284,1.4121 -2.055,1.9256 -0.77,0.5135 -1.54,0.8131 -2.31,0.8987 -0.685,0.1712 -1.113,0.1284 -1.284,-0.1284 -0.086,-0.2568 0.085,-0.4707 0.513,-0.6419 0.343,-0.0856 0.771,-0.3423 1.284,-0.7703 0.599,-0.5135 1.113,-1.0698 1.541,-1.6689 0.513,-0.5991 0.898,-1.2837 1.155,-2.054 0.257,-0.7703 0.257,-1.5405 0,-2.3108 -0.171,-0.5135 -0.77,-0.8987 -1.797,-1.1554 -0.942,-0.2568 -2.397,-0.1712 -4.365,0.2567 -1.541,0.428 -2.996,1.2838 -4.365,2.5676 -1.369,1.1982 -2.61,2.7387 -3.723,4.6216 -1.112,1.7973 -2.097,3.8085 -2.953,6.0338 z"
           id="path4556" />
        <path
           style="fill:#f2c94c"
           inkscape:connector-curvature="0"
           d="m 119.691,95.1281 c 2.482,1.5405 5.092,2.3963 7.831,2.5675 0.856,0 1.284,0.0856 1.284,0.2568 0,0.0856 -0.086,0.1712 -0.257,0.2567 -0.085,0.0856 -0.385,0.1284 -0.899,0.1284 -1.882,0.0856 -3.765,0 -5.648,-0.2568 -1.883,-0.2567 -3.638,-0.813 -5.264,-1.6689 -1.626,-0.9414 -3.081,-2.1824 -4.364,-3.7229 -1.199,-1.6261 -2.055,-3.723 -2.568,-6.2905 -0.856,-3.937 -1.155,-7.9595 -0.899,-12.0676 0.257,-4.1081 1.027,-8.0878 2.311,-11.9391 1.284,-3.8514 3.038,-7.4887 5.264,-10.9121 2.31,-3.509 5.135,-6.5901 8.473,-9.2433 2.482,-2.054 5.349,-3.4234 8.601,-4.108 3.252,-0.7703 6.376,-0.9415 9.371,-0.5136 3.082,0.428 5.735,1.455 7.96,3.0811 2.311,1.6261 3.723,3.8086 4.236,6.5473 0.257,0.6847 0.257,1.1554 0,1.4121 -0.256,0 -0.513,-0.4279 -0.77,-1.2837 -1.198,-1.8829 -2.567,-3.3807 -4.108,-4.4933 -1.541,-1.1126 -3.209,-1.8828 -5.007,-2.3108 -1.711,-0.5135 -3.466,-0.7274 -5.263,-0.6419 -1.798,0.0856 -3.466,0.3424 -5.007,0.7703 -3.081,0.8559 -5.563,2.0541 -7.446,3.5946 -1.883,1.4549 -3.766,3.295 -5.649,5.5202 -2.995,3.5946 -5.22,7.6599 -6.675,12.196 -1.37,4.4504 -2.225,8.9008 -2.568,13.3513 -0.171,2.1396 -0.128,4.3648 0.129,6.6756 0.256,2.2252 0.855,4.5788 1.797,7.0608 0.941,2.3964 2.653,4.4076 5.135,6.0338 z"
           id="path4558" />
        <path
           style="fill:#f2c94c"
           inkscape:connector-curvature="0"
           d="m 117.38,67.3984 c 0.086,-0.3423 0.129,-0.5563 0.129,-0.6419 0.513,-2.8243 1.155,-5.5202 1.925,-8.0878 0.771,-2.6531 1.84,-5.0495 3.21,-7.1891 1.455,-2.2253 3.295,-4.1509 5.52,-5.777 2.225,-1.6262 4.964,-2.8672 8.216,-3.723 1.113,-0.2568 2.439,-0.3851 3.98,-0.3851 1.626,0 3.209,0.2567 4.75,0.7702 1.54,0.428 2.953,1.1982 4.236,2.3108 1.284,1.0271 2.268,2.4392 2.953,4.2365 0.599,1.7117 0.728,3.295 0.385,4.75 -0.342,1.4549 -0.941,2.7815 -1.797,3.9797 -0.856,1.1126 -1.883,2.054 -3.081,2.8243 -1.113,0.6847 -2.183,1.0698 -3.21,1.1554 -0.171,0 -0.428,-0.0428 -0.77,-0.1284 -0.257,-0.0855 -0.043,-0.2567 0.642,-0.5135 0.941,-0.4279 1.883,-1.2838 2.824,-2.5675 1.027,-1.2838 1.712,-2.8671 2.054,-4.75 0.428,-1.9685 -0.085,-3.6802 -1.54,-5.1351 -1.455,-1.455 -3.338,-2.3108 -5.649,-2.5676 -2.225,-0.2567 -4.236,-0.0428 -6.034,0.6419 -1.797,0.6847 -3.337,1.4977 -4.621,2.4392 -1.284,0.9414 -2.311,1.8829 -3.081,2.8243 -0.771,0.8558 -1.284,1.4122 -1.541,1.6689 -3.081,3.9369 -5.734,8.473 -7.959,13.6081 0,0.0856 -0.214,0.5563 -0.642,1.4121 -0.342,0.8559 -0.599,1.2838 -0.77,1.2838 -0.172,0 -0.257,-0.1284 -0.257,-0.3851 v -1.0271 c 0.085,-0.3423 0.128,-0.6846 0.128,-1.027 z"
           id="path4560" />
        <path
           style="fill:#f2c94c"
           inkscape:connector-curvature="0"
           d="m 143.826,88.9659 c 0.086,0.1712 -0.043,0.5135 -0.385,1.027 -0.599,0.8559 -1.412,1.669 -2.439,2.4392 -0.942,0.7703 -2.054,1.455 -3.338,2.0541 -1.198,0.5135 -2.482,0.9414 -3.851,1.2838 -1.284,0.3423 -2.568,0.5135 -3.852,0.5135 -2.225,0 -4.322,-0.428 -6.29,-1.2838 -1.969,-0.8559 -3.595,-2.7815 -4.879,-5.777 -0.342,-0.5991 -0.342,-1.0698 0,-1.4122 0.257,-0.0856 0.557,0.0856 0.899,0.5135 0.428,0.3424 0.813,0.7275 1.155,1.1554 0.942,0.9415 2.268,1.8829 3.98,2.8243 1.797,0.8559 3.338,1.2838 4.622,1.2838 2.567,0 4.878,-0.3423 6.932,-1.027 2.14,-0.7703 4.065,-1.7545 5.777,-2.9527 0.171,-0.0856 0.385,-0.2139 0.642,-0.3851 0.342,-0.2568 0.599,-0.3852 0.77,-0.3852 0.172,-0.0855 0.257,-0.0428 0.257,0.1284 z"
           id="path4562" />
        <path
           style="fill:#f2c94c"
           inkscape:connector-curvature="0"
           d="m 249.952,66.7565 c 1.455,-2.9099 2.696,-5.9481 3.723,-9.1148 0.342,-1.1126 0.556,-2.482 0.642,-4.1081 0.085,-1.6261 0,-3.2522 -0.257,-4.8784 -0.257,-1.7117 -0.685,-3.3378 -1.284,-4.8783 -0.599,-1.6261 -1.369,-2.9527 -2.311,-3.9797 L 250.08,39.412 c -0.171,-0.1711 -0.342,-0.2567 -0.513,-0.2567 -0.171,0 -0.171,0.2139 0,0.6419 0.941,2.4819 1.198,5.5202 0.77,9.1148 -0.428,3.5946 -1.369,7.7027 -2.824,12.3243 -0.257,0.7703 -0.599,1.8401 -1.027,3.2094 -0.343,1.2838 -0.728,2.6532 -1.156,4.1081 -0.342,1.3694 -0.684,2.696 -1.027,3.9797 -0.257,1.2838 -0.428,2.2681 -0.513,2.9527 0,0.2568 -0.043,0.6419 -0.129,1.1554 0,0.5136 0.086,0.7703 0.257,0.7703 0.257,0.1712 0.556,-0.0428 0.899,-0.6419 0.342,-0.6847 0.599,-1.1126 0.77,-1.2838 1.541,-2.9099 2.996,-5.8198 4.365,-8.7297 z"
           id="path4564" />
        <path
           style="fill:#f2c94c"
           inkscape:connector-curvature="0"
           d="m 258.682,54.8174 c 0.085,-2.5676 -0.428,-4.7072 -1.541,-6.4189 l -0.385,-0.3851 c -0.086,-0.1712 -0.171,-0.2568 -0.257,-0.2568 -0.171,0 -0.257,0.2995 -0.257,0.8986 0,3.3379 -0.385,6.4189 -1.155,9.2433 -0.77,2.7387 -1.626,5.5202 -2.568,8.3445 -1.54,4.3649 -2.995,8.6869 -4.364,12.9662 -1.284,4.2793 -1.926,8.7297 -1.926,13.3513 v 0.7703 c 0.086,0.2567 0.257,0.4279 0.513,0.5135 0.172,0.0856 0.428,-0.2568 0.771,-1.027 0.941,-2.1397 2.011,-4.6644 3.209,-7.5743 1.198,-2.9955 2.225,-5.9054 3.081,-8.7297 0.428,-1.455 1.027,-3.4234 1.798,-5.9054 0.855,-2.482 1.54,-5.0924 2.054,-7.8311 0.599,-2.7387 0.941,-5.3919 1.027,-7.9594 z"
           id="path4566" />
        <path
           style="fill:#f2c94c"
           inkscape:connector-curvature="0"
           d="m 230.567,89.8646 c 0.77,-0.5135 1.07,-0.8987 0.898,-1.1554 -0.085,-0.0856 -0.513,-0.0428 -1.283,0.1283 -0.771,0.1712 -1.199,0.2568 -1.284,0.2568 -2.824,0.5135 -5.092,0.1712 -6.804,-1.027 -1.626,-1.2838 -2.739,-3.2523 -3.338,-5.9054 -0.086,-0.3424 -0.171,-1.0698 -0.257,-2.1824 -0.085,-1.1126 -0.128,-2.482 -0.128,-4.1081 0,-1.6262 0.085,-3.4662 0.257,-5.5203 0.171,-2.054 0.47,-4.1937 0.898,-6.4189 0.428,-2.2252 0.985,-4.4504 1.669,-6.6756 0.77,-2.2253 1.541,-4.3221 2.311,-6.2906 0.77,-2.054 1.498,-3.8513 2.182,-5.3918 0.771,-1.5406 1.413,-2.7388 1.926,-3.5946 0.514,-0.8559 0.642,-1.3266 0.385,-1.4122 -0.171,0 -0.385,0.0856 -0.642,0.2568 -0.171,0.1712 -0.342,0.2995 -0.513,0.3851 -1.541,1.1982 -2.996,2.9099 -4.365,5.1351 -1.284,2.1397 -2.439,4.4933 -3.466,7.0608 -1.027,2.482 -1.926,5.0496 -2.696,7.7027 -0.685,2.5676 -1.156,4.9212 -1.412,7.0608 -0.343,2.482 -0.514,5.3063 -0.514,8.4729 0,3.0811 0.428,5.9054 1.284,8.473 0.941,2.5675 2.439,4.4932 4.493,5.777 2.14,1.2838 5.093,1.241 8.858,-0.1284 0.257,-0.0856 0.771,-0.3851 1.541,-0.8986 z"
           id="path4568" />
        <path
           style="fill:#f2c94c"
           inkscape:connector-curvature="0"
           d="m 248.54,99.3645 c 0,-0.1711 -0.171,-0.4279 -0.514,-0.7702 -0.599,-0.5136 -1.112,-1.0271 -1.54,-1.5406 -0.428,-0.5991 -0.856,-1.3693 -1.284,-2.3108 -0.342,-0.8558 -0.642,-1.6689 -0.899,-2.4392 -0.257,-0.8558 -0.47,-1.7545 -0.642,-2.6959 -0.171,-0.7703 -0.385,-1.4977 -0.642,-2.1824 -0.171,-0.6847 -0.342,-1.0698 -0.513,-1.1554 -0.257,-0.0856 -0.471,0.1712 -0.642,0.7703 -0.171,0.5135 -0.257,1.1981 -0.257,2.054 0,0.8559 0.043,1.7973 0.129,2.8243 0.085,0.9414 0.256,1.7545 0.513,2.4392 0.514,1.6261 1.284,2.7815 2.311,3.4662 1.027,0.5991 1.883,1.0698 2.568,1.4122 0.171,0.0855 0.427,0.1711 0.77,0.2567 0.428,0.0856 0.642,0.0428 0.642,-0.1284 z"
           id="path4570" />
        <path
           style="fill:#f2c94c"
           inkscape:connector-curvature="0"
           d="m 231.851,96.0267 c 1.968,-1.5405 3.423,-3.0383 4.364,-4.4932 0.685,1.8829 1.627,3.509 2.825,4.8783 1.198,1.3694 2.61,2.3536 4.236,2.9527 0.171,0.0856 0.343,0.1284 0.514,0.1284 0.256,0.0856 0.385,0.0428 0.385,-0.1284 0,-0.0855 -0.086,-0.2139 -0.257,-0.3851 -1.455,-1.3694 -2.567,-3.0383 -3.338,-5.0067 -0.77,-2.0541 -1.241,-4.1937 -1.412,-6.4189 -0.171,-2.2253 -0.128,-4.4505 0.129,-6.6757 0.256,-2.3108 0.641,-4.4932 1.155,-6.5473 0.856,-3.2522 1.883,-6.4617 3.081,-9.6283 1.284,-3.2523 2.354,-6.4189 3.209,-9.5 0.942,-3.0811 1.455,-6.1193 1.541,-9.1148 0.171,-2.9955 -0.428,-5.9482 -1.797,-8.8581 0,-0.0856 -0.043,-0.1712 -0.129,-0.2567 -0.085,0 -0.128,-0.0856 -0.128,-0.2568 0,-0.0856 -0.043,-0.1284 -0.128,-0.1284 -0.172,0 -0.257,0.214 -0.257,0.6419 0.257,2.3108 0.128,4.7928 -0.385,7.4459 -0.428,2.6532 -1.113,5.3919 -2.054,8.2162 -0.856,2.7387 -1.84,5.4775 -2.953,8.2162 -1.027,2.7387 -2.011,5.3919 -2.953,7.9594 -1.027,2.8244 -2.396,5.4775 -4.108,7.9595 -1.626,2.3964 -3.167,3.9797 -4.621,4.75 -1.455,0.6846 -2.696,0.1711 -3.723,-1.5406 -0.942,-1.7117 -1.199,-5.3491 -0.771,-10.9121 0.343,-5.0495 1.37,-10.0135 3.081,-14.8918 1.712,-4.964 3.809,-9.7568 6.291,-14.3784 l 0.513,-1.2838 c -0.256,0 -0.513,0.1284 -0.77,0.3852 l -0.513,0.5135 c -1.798,1.7973 -3.424,3.8513 -4.879,6.1621 -1.369,2.3108 -2.567,4.7928 -3.594,7.446 -1.027,2.5675 -1.84,5.2634 -2.44,8.0878 -0.599,2.8243 -0.984,5.563 -1.155,8.2162 -0.171,2.6531 -0.214,5.0923 -0.128,7.3175 0.085,2.2252 0.556,4.2793 1.412,6.1621 0.685,1.455 1.669,2.2253 2.953,2.3108 1.369,0.0856 2.738,-0.1711 4.108,-0.7702 1.455,-0.6847 2.781,-1.5834 3.979,-2.696 1.284,-1.1982 2.14,-2.3963 2.568,-3.5945 -0.257,1.7972 -0.471,3.5945 -0.642,5.3918 -0.086,1.7117 -0.428,3.3379 -1.027,4.8784 -0.513,1.4549 -1.412,2.7387 -2.696,3.8513 -1.284,1.027 -3.167,1.7117 -5.649,2.0541 -1.198,0.1711 -2.439,0.0428 -3.723,-0.3852 -1.198,-0.4279 -2.353,-1.1126 -3.466,-2.054 -1.027,-0.9414 -2.011,-2.0968 -2.952,-3.4662 -0.856,-1.3694 -1.455,-2.8671 -1.798,-4.4932 -0.513,-2.3964 -0.77,-5.0068 -0.77,-7.8311 0,-2.8243 0.214,-5.6914 0.642,-8.6013 0.428,-2.9099 0.984,-5.777 1.669,-8.6013 0.77,-2.9099 1.54,-5.6487 2.311,-8.2162 0.085,-0.1712 0.171,-0.3852 0.256,-0.6419 0.172,-0.3424 0.214,-0.5563 0.129,-0.6419 -0.171,-0.1712 -0.385,-0.0856 -0.642,0.2567 -0.171,0.2568 -0.342,0.428 -0.514,0.5136 -0.855,1.1982 -1.711,2.7387 -2.567,4.6216 -0.77,1.8828 -1.498,4.0225 -2.183,6.4189 -0.599,2.3964 -1.112,4.9639 -1.54,7.7026 -0.342,2.7388 -0.556,5.4775 -0.642,8.2162 0,2.2253 0.214,4.5788 0.642,7.0608 0.513,2.3964 1.326,4.6216 2.439,6.6757 1.198,2.054 2.696,3.7657 4.493,5.1351 1.883,1.3693 4.108,2.054 6.676,2.054 3.252,0 5.82,-0.7274 7.703,-2.1824 z"
           id="path4572" />
        <path
           style="fill:#f2c94c"
           inkscape:connector-curvature="0"
           d="m 291.889,5.39187 c -0.343,-0.77026 -0.428,-1.1554 -0.257,-1.1554 0.257,0 0.556,0.21396 0.899,0.64189 l 0.641,0.64189 2.825,4.23648 c 1.027,1.45497 2.011,3.20947 2.952,5.26347 0.942,2.0541 1.798,4.4505 2.568,7.1892 0.77,2.6531 1.369,5.8198 1.797,9.5 0.514,4.1936 0.599,8.3445 0.257,12.4526 -0.257,4.0225 -0.727,8.0878 -1.412,12.1959 -0.086,0.1712 -0.171,0.5991 -0.257,1.2838 -0.085,0.6847 -0.257,1.027 -0.513,1.027 -0.172,0 -0.343,-0.2995 -0.514,-0.8986 -0.171,-0.6847 -0.257,-1.1554 -0.257,-1.4122 -0.171,-0.9414 -0.342,-2.054 -0.513,-3.3378 -0.171,-1.2838 -0.342,-2.6104 -0.514,-3.9797 -0.085,-1.455 -0.171,-2.8243 -0.256,-4.1081 v -3.5946 c 0,-0.3423 -0.043,-1.0698 -0.129,-2.1824 0,-1.1982 -0.043,-2.5676 -0.128,-4.1081 -0.086,-1.5406 -0.257,-3.2095 -0.514,-5.0068 -0.171,-1.8828 -0.385,-3.7229 -0.642,-5.5202 0.172,2.6531 0.172,5.3063 0,7.9594 -0.171,2.6532 -0.385,5.3491 -0.641,8.0878 -0.257,2.6532 -0.471,5.3491 -0.642,8.0878 -0.172,2.6532 -0.172,5.3491 0,8.0879 0.256,5.3062 1.326,10.6981 3.209,16.1756 1.883,5.4774 4.879,10.1418 8.987,13.9932 0.513,0.5135 0.727,0.7702 0.641,0.7702 -0.171,0.0856 -0.47,0 -0.898,-0.2567 -2.996,-1.7117 -5.478,-3.7658 -7.446,-6.1622 -1.969,-2.3963 -3.595,-5.0067 -4.878,-7.831 -1.199,-2.8243 -2.097,-5.7342 -2.696,-8.7297 -0.6,-3.0811 -0.942,-6.1622 -1.027,-9.2432 0,-0.2568 -0.043,-0.4707 -0.129,-0.6419 v -0.7703 c -1.712,4.8784 -3.637,9.5856 -5.777,14.1216 -2.054,4.536 -4.108,8.9009 -6.162,13.0945 -1.968,4.1937 -3.851,8.1734 -5.649,11.9392 -1.711,3.6802 -3.081,7.1036 -4.108,10.2706 -0.171,0.428 -0.299,0.642 -0.385,0.642 -0.171,0 -0.257,-0.129 -0.257,-0.386 v -0.513 c 0.086,-4.0226 0.899,-8.2163 2.44,-12.5812 1.54,-4.4504 3.337,-9.0292 5.391,-13.7364 2.14,-4.7928 4.365,-9.6711 6.676,-14.6351 2.311,-5.0495 4.322,-10.1846 6.034,-15.4053 1.027,-3.3379 1.883,-6.8041 2.567,-10.3987 0.771,-3.5945 1.241,-7.1891 1.413,-10.7837 0.171,-3.5946 0.042,-7.1036 -0.386,-10.527 -0.427,-3.509 -1.198,-6.76124 -2.31,-9.75673 z"
           id="path4574" />
        <path
           style="fill:#f2c94c"
           inkscape:connector-curvature="0"
           d="m 307.808,79.3376 c 0.941,1.9684 2.182,3.8085 3.723,5.5202 0.599,-3.5946 1.754,-7.1463 3.466,-10.6553 1.711,-3.5946 3.637,-7.1892 5.777,-10.7838 2.225,-3.5946 4.536,-7.1892 6.932,-10.7837 2.397,-3.5946 4.622,-7.232 6.676,-10.9122 1.54,-2.6531 2.824,-5.5202 3.851,-8.6013 1.113,-3.0811 1.883,-6.2049 2.311,-9.3716 0.513,-3.2522 0.642,-6.4617 0.385,-9.6283 -0.171,-3.1667 -0.813,-6.16217 -1.926,-8.98648 -0.256,-0.42793 -0.299,-0.72748 -0.128,-0.89865 0.171,-0.17117 0.428,-0.04279 0.77,0.38514 0.428,0.34234 0.685,0.59909 0.771,0.77026 1.027,1.45495 1.84,3.38062 2.439,5.77703 0.684,2.3108 1.155,4.9211 1.412,7.831 0.342,2.8244 0.513,5.8198 0.513,8.9865 0,3.1666 -0.128,6.3333 -0.385,9.5 -0.342,4.1936 -0.984,8.7725 -1.925,13.7364 -0.856,4.964 -1.926,9.5 -3.21,13.6081 -0.085,0.1711 -0.257,0.5563 -0.513,1.1554 -0.172,0.5991 -0.385,0.8986 -0.642,0.8986 -0.171,-0.0856 -0.3,-0.4279 -0.385,-1.027 -0.086,-0.6847 -0.129,-1.1126 -0.129,-1.2838 v -3.3378 l 0.257,-4.1081 c 0.086,-1.455 0.171,-2.8243 0.257,-4.1081 0.171,-1.3694 0.342,-2.5248 0.513,-3.4662 0.086,-0.5135 0.214,-1.6689 0.385,-3.4662 0.257,-1.8829 0.471,-3.9797 0.642,-6.2905 -1.027,2.3964 -1.84,4.536 -2.439,6.4189 -0.599,1.8828 -1.112,3.7229 -1.54,5.5202 -0.428,1.7973 -0.813,3.6802 -1.156,5.6486 -0.257,1.9685 -0.513,4.2793 -0.77,6.9325 -0.257,2.6531 -0.385,5.4346 -0.385,8.3445 0.085,2.9099 0.385,5.777 0.898,8.6013 0.6,2.8244 1.413,5.6059 2.44,8.3446 1.112,2.6532 2.524,5.0923 4.236,7.3176 0.342,0.5135 0.428,0.813 0.257,0.8986 -0.171,0.0856 -0.385,0 -0.642,-0.2568 -2.739,-2.2252 -4.921,-4.7072 -6.547,-7.4459 -1.541,-2.8243 -2.696,-5.777 -3.467,-8.8581 -0.77,-3.081 -1.198,-6.2049 -1.283,-9.3715 0,-3.2523 0.171,-6.4189 0.513,-9.5 0.171,-1.1126 0.3,-2.2252 0.385,-3.3378 0.171,-1.1127 0.343,-2.268 0.514,-3.4662 -1.969,3.1666 -3.937,6.2477 -5.906,9.2432 -1.968,2.9954 -3.808,5.9909 -5.52,8.9864 -1.712,2.9099 -3.252,5.8198 -4.621,8.7297 -1.284,2.8243 -2.268,5.6487 -2.953,8.473 l -0.257,0.6419 c -0.171,0 -0.257,-0.1712 -0.257,-0.5136 v -2.6959 c 0,-0.6847 0.086,-1.3694 0.257,-2.054 l -1.797,-0.8987 c -0.514,-0.3423 -1.027,-0.7275 -1.541,-1.1554 -0.428,-0.4279 -0.898,-0.9414 -1.412,-1.5405 -0.428,-0.5991 -0.898,-1.3694 -1.412,-2.3108 -0.428,-0.8559 -0.856,-1.8829 -1.284,-3.0811 -0.428,-1.1982 -0.813,-2.3536 -1.155,-3.4662 -0.257,-1.1982 -0.428,-2.1824 -0.514,-2.9527 0,-0.8558 0.129,-1.2838 0.385,-1.2838 0.172,0 0.343,0.1712 0.514,0.5135 0.257,0.2568 0.513,0.5991 0.77,1.0271 0.257,0.4279 0.471,0.8558 0.642,1.2837 0.171,0.428 0.3,0.7275 0.385,0.8987 l 1.284,3.0811 z"
           id="path4576" />
        <path
           style="fill:#f2c94c"
           inkscape:connector-curvature="0"
           d="m 310.503,55.5877 c 1.883,-3.6802 3.809,-7.232 5.778,-10.6554 2.054,-3.509 3.68,-6.2905 4.878,-8.3446 2.054,-3.6801 4.194,-7.2747 6.419,-10.7837 2.225,-3.5946 4.151,-6.7613 5.777,-9.5 0.171,-0.4279 0.342,-0.8131 0.513,-1.1554 0.257,-0.3423 0.471,-0.4279 0.642,-0.2568 0.171,0 0.214,0.214 0.129,0.6419 l -0.257,1.2838 c -1.198,6.1622 -3.381,11.982 -6.547,17.4594 -3.082,5.4775 -6.334,10.9977 -9.757,16.5608 -1.198,1.8828 -2.268,3.4662 -3.21,4.75 -0.856,1.1982 -1.626,2.3963 -2.31,3.5945 -0.6,1.1126 -1.113,2.3536 -1.541,3.723 -0.428,1.3694 -0.727,3.1239 -0.899,5.2635 0.343,-0.9414 0.728,-1.8401 1.156,-2.6959 0.428,-0.8559 0.856,-1.669 1.284,-2.4392 2.396,-4.1081 5.092,-8.2162 8.087,-12.3243 2.996,-4.1081 5.949,-7.9594 8.858,-11.554 0.172,-0.1712 0.471,-0.5135 0.899,-1.027 0.514,-0.5991 0.856,-0.8559 1.027,-0.7703 0.171,0.0856 0.128,0.4707 -0.128,1.1554 l -0.385,1.5405 c -0.428,0.9415 -0.985,2.0969 -1.669,3.4662 -0.599,1.3694 -1.284,2.7815 -2.054,4.2365 -0.685,1.3694 -1.413,2.7387 -2.183,4.1081 -0.77,1.2838 -1.455,2.3536 -2.054,3.2094 -0.342,0.5136 -1.07,1.5406 -2.182,3.0811 -1.113,1.5405 -2.311,3.4662 -3.595,5.777 -1.284,2.3108 -2.567,4.9212 -3.851,7.8311 -1.198,2.9099 -2.097,5.9909 -2.696,9.2432 -0.257,-0.5135 -0.599,-1.1554 -1.027,-1.9257 -0.342,-0.7702 -0.77,-2.0112 -1.284,-3.7229 -1.54,-5.3919 -2.396,-10.8266 -2.567,-16.304 -0.086,-5.5631 -0.086,-11.2545 0,-17.0743 0.085,-3.6802 0.085,-7.3603 0,-11.0405 0,-3.6802 -0.6,-7.5743 -1.798,-11.6824 -0.085,-0.3423 -0.085,-0.5991 0,-0.7703 0.171,0 0.428,0.2568 0.771,0.7703 1.54,1.6261 2.695,4.0225 3.466,7.1892 0.77,3.081 1.326,6.3761 1.669,9.8851 0.342,3.4234 0.513,6.804 0.513,10.1418 0.086,3.2523 0.128,5.8626 0.128,7.8311 z"
           id="path4578" />
        <path
           style="fill:#f2c94c"
           inkscape:connector-curvature="0"
           d="m 276.74,44.4188 c 1.455,-4.4505 3.081,-8.9437 4.878,-13.4797 1.883,-4.536 3.509,-8.6013 4.879,-12.1959 l 0.513,-1.2838 c 0.257,-0.4279 0.471,-0.5991 0.642,-0.5135 0.171,0 0.214,0.2995 0.129,0.8986 v 1.4122 c -0.771,7.018 -2.311,13.9932 -4.622,20.9256 -2.311,6.9324 -4.878,13.7792 -7.703,20.5405 -1.711,4.2792 -3.551,8.6013 -5.52,12.9661 -1.968,4.2793 -3.595,8.9437 -4.878,13.9932 -0.171,0.428 -0.257,0.6847 -0.257,0.7703 0.086,0.0856 0.086,0.1284 0,0.1284 -0.257,-0.1712 -0.385,-0.5563 -0.385,-1.1554 -0.428,-2.5676 -0.171,-5.777 0.77,-9.6284 0.942,-3.9369 2.14,-7.9594 3.595,-12.0675 1.455,-4.1937 2.952,-8.1734 4.493,-11.9391 1.54,-3.8514 2.696,-6.9752 3.466,-9.3716 z"
           id="path4580" />
        <path
           style="fill:#f2c94c"
           inkscape:connector-curvature="0"
           d="m 271.22,74.9727 c 2.139,-4.8783 4.45,-9.8851 6.932,-15.0202 2.482,-5.2207 4.879,-10.1846 7.189,-14.8918 0.086,-0.2568 0.3,-0.7275 0.642,-1.4122 0.428,-0.6847 0.813,-0.9842 1.156,-0.8986 0.171,0 0.214,0.3851 0.128,1.1554 -0.086,0.7702 -0.214,1.3265 -0.385,1.6689 -0.257,1.1982 -0.599,2.6531 -1.027,4.3648 -0.428,1.6261 -0.942,3.3379 -1.541,5.1351 -0.513,1.7118 -1.069,3.4235 -1.669,5.1352 -0.599,1.6261 -1.155,2.9954 -1.668,4.1081 -0.257,0.5135 -0.728,1.6261 -1.413,3.3378 -0.599,1.6261 -1.369,3.5946 -2.31,5.9054 -0.856,2.3108 -1.798,4.7927 -2.825,7.4459 -0.941,2.5675 -1.84,5.0495 -2.696,7.4459 -0.856,2.3108 -1.626,4.4076 -2.31,6.2905 -0.6,1.7973 -0.942,3.0811 -1.027,3.8514 -0.172,0.8558 -0.343,1.2837 -0.514,1.2837 -0.171,0 -0.3,-0.1711 -0.385,-0.5135 0,-0.3423 -0.043,-0.5991 -0.129,-0.7702 -0.427,-1.0271 -0.641,-2.5248 -0.641,-4.4933 0.085,-1.9684 0.342,-4.0653 0.77,-6.2905 0.428,-2.2252 0.941,-4.4932 1.54,-6.804 0.685,-2.3108 1.413,-4.3221 2.183,-6.0338 z"
           id="path4582" />
        <path
           style="fill:#f2c94c"
           inkscape:connector-curvature="0"
           d="m 347.733,63.9322 c -0.428,3.8514 -1.113,7.7027 -2.054,11.554 -0.856,3.8514 -1.626,7.2748 -2.311,10.2703 -0.342,1.1126 -0.599,1.6261 -0.77,1.5405 -0.171,0 -0.3,-0.1712 -0.385,-0.5135 0,-0.4279 -0.043,-0.8559 -0.129,-1.2838 -0.684,-5.7342 -0.599,-11.4684 0.257,-17.2026 0.856,-5.7342 1.797,-11.5968 2.825,-17.5878 0.684,-3.5946 1.241,-7.2748 1.668,-11.0405 0.428,-3.8514 0.428,-7.9594 0,-12.3243 0,-0.3423 0.086,-0.5991 0.257,-0.7703 0.171,0 0.257,0.1284 0.257,0.3852 0.086,0.1711 0.214,0.2995 0.385,0.3851 1.284,1.8829 2.011,4.4932 2.183,7.8311 0.256,3.2522 0.256,6.6756 0,10.2702 -0.257,3.5946 -0.642,7.0608 -1.156,10.3986 -0.428,3.3378 -0.77,6.0338 -1.027,8.0878 z"
           id="path4584" />
        <path
           style="fill:#f2c94c"
           inkscape:connector-curvature="0"
           d="m 289.578,14.8918 c -0.171,-1.7972 -0.428,-3.4662 -0.77,-5.0067 -0.257,-1.54053 -0.599,-3.12386 -1.027,-4.74998 -0.086,-0.17117 -0.129,-0.38514 -0.129,-0.64189 0,-0.25676 0.043,-0.38514 0.129,-0.38514 0.256,0 0.513,0.12838 0.77,0.38514 l 0.513,0.51351 c 0.942,1.28378 1.712,2.56756 2.311,3.85134 0.599,1.19822 0.984,3.20942 1.156,6.03372 0.085,1.1127 0.085,2.482 0,4.1081 -0.086,1.6262 -0.257,3.1667 -0.514,4.6216 -0.171,1.455 -0.428,2.696 -0.77,3.723 -0.257,1.027 -0.514,1.4977 -0.77,1.4122 -0.172,0 -0.3,-0.214 -0.386,-0.6419 -0.085,-0.5135 -0.171,-1.0698 -0.256,-1.6689 v -7.3176 c 0,-1.3694 -0.086,-2.7815 -0.257,-4.2365 z"
           id="path4586" />
        <path
           style="fill:#f2c94c"
           inkscape:connector-curvature="0"
           d="m 336.564,13.2229 c -0.085,-1.5405 -0.257,-2.9955 -0.513,-4.36482 -0.171,-1.36936 -0.471,-2.78152 -0.899,-4.23647 -0.086,-0.17117 -0.171,-0.38513 -0.257,-0.64189 0,-0.25676 0.086,-0.34235 0.257,-0.25676 l 0.385,0.38513 0.514,0.25677 0.256,0.25675 c 0.942,1.19819 1.669,2.35359 2.183,3.4662 0.599,1.11261 0.941,2.95269 1.027,5.52029 0,0.9414 -0.128,2.1396 -0.385,3.5945 -0.171,1.455 -0.428,2.8672 -0.77,4.2365 -0.257,1.2838 -0.6,2.3964 -1.028,3.3378 -0.342,0.8559 -0.684,1.1982 -1.027,1.0271 -0.171,-0.0856 -0.256,-0.3424 -0.256,-0.7703 v -1.5405 c 0,-0.5991 0.043,-1.1554 0.128,-1.6689 0.086,-0.5136 0.128,-0.8987 0.128,-1.1555 0.172,-1.3693 0.257,-2.6531 0.257,-3.8513 0.086,-1.1982 0.086,-2.3964 0,-3.5946 z"
           id="path4588" />
        <path
           style="fill:#f2c94c"
           inkscape:connector-curvature="0"
           d="m 341.057,89.2227 c 0.514,1.4549 1.07,2.7815 1.669,3.9797 l 2.054,3.5946 c 0.086,0.0856 0.172,0.2567 0.257,0.5135 0.086,0.1712 0.043,0.2567 -0.128,0.2567 -0.257,0 -0.471,-0.0428 -0.642,-0.1283 -0.086,-0.0856 -0.214,-0.1712 -0.385,-0.2568 -0.171,-0.0856 -0.3,-0.1712 -0.385,-0.2567 -1.199,-0.9415 -2.183,-1.8401 -2.953,-2.696 -0.77,-0.8558 -1.541,-2.3964 -2.311,-4.6216 -0.257,-0.8558 -0.513,-1.9257 -0.77,-3.2094 -0.257,-1.2838 -0.428,-2.5248 -0.514,-3.723 -0.085,-1.1982 -0.085,-2.2252 0,-3.0811 0.086,-0.8558 0.3,-1.2837 0.642,-1.2837 0.086,0 0.214,0.2139 0.385,0.6418 0.172,0.3424 0.3,0.7703 0.386,1.2838 0.171,0.4279 0.299,0.8987 0.385,1.4122 0.171,0.4279 0.299,0.7275 0.385,0.8986 0.428,1.1982 0.77,2.3536 1.027,3.4662 0.257,1.1126 0.556,2.1825 0.898,3.2095 z"
           id="path4590" />
        <path
           style="fill:#f2c94c"
           inkscape:connector-curvature="0"
           d="m 396.688,72.9187 c 1.455,-2.9955 2.995,-6.205 4.622,-9.6284 1.626,-3.4234 2.781,-6.8468 3.466,-10.2702 0.599,-2.8243 0.642,-5.6058 0.128,-8.3446 -0.513,-2.8243 -1.498,-5.3918 -2.953,-7.7026 -0.171,-0.2568 -0.385,-0.5136 -0.641,-0.7703 -0.257,-0.2568 -0.471,-0.3424 -0.642,-0.2568 -0.172,0.1712 -0.214,0.5991 -0.129,1.2838 0.257,1.7973 0.343,3.4662 0.257,5.0067 0,1.5406 -0.128,3.1667 -0.385,4.8784 -0.257,1.7117 -0.642,3.6374 -1.156,5.777 -0.513,2.0541 -1.155,4.536 -1.925,7.4459 -0.257,0.8559 -0.514,1.8401 -0.77,2.9527 -0.172,1.0271 -0.343,2.1397 -0.514,3.3379 -0.171,1.1126 -0.385,2.2252 -0.642,3.3378 -0.171,1.027 -0.299,1.9257 -0.385,2.6959 v 1.027 c 0,0.428 0.128,0.6847 0.385,0.7703 0.171,0 0.385,-0.214 0.642,-0.6419 0.342,-0.4279 0.556,-0.7275 0.642,-0.8986 z"
           id="path4592" />
        <path
           style="fill:#f2c94c"
           inkscape:connector-curvature="0"
           d="m 408.755,59.0539 c 0.514,-2.8244 0.771,-5.5631 0.771,-8.2162 0,-2.6532 -0.557,-4.7928 -1.669,-6.4189 l -0.514,-0.7703 c -0.085,0 -0.128,0.1712 -0.128,0.5135 0.085,3.509 -0.257,6.7613 -1.027,9.7567 -0.77,2.9099 -1.583,5.777 -2.439,8.6014 -1.455,4.6216 -2.825,9.2004 -4.108,13.7364 -1.284,4.4504 -1.798,9.0293 -1.541,13.7364 v 0.8987 c 0,0.3423 0.086,0.5135 0.257,0.5135 0.171,0 0.342,-0.1284 0.513,-0.3851 0.171,-0.3424 0.3,-0.6419 0.385,-0.8987 0.856,-2.3108 1.883,-4.9639 3.082,-7.9594 1.198,-2.9955 2.139,-5.991 2.824,-8.9865 0.342,-1.5405 0.898,-3.5946 1.669,-6.1621 0.77,-2.5676 1.412,-5.2207 1.925,-7.9594 z"
           id="path4594" />
        <path
           style="clip-rule:evenodd;fill:#f2c94c;fill-rule:evenodd"
           inkscape:connector-curvature="0"
           d="m 383.465,90.7632 c 1.198,-1.5405 2.439,-3.2094 3.723,-5.0067 0.513,2.3964 1.369,4.7072 2.567,6.9324 1.284,2.1396 3.167,3.9797 5.649,5.5202 0.428,0.2568 0.685,0.3424 0.77,0.2568 l -0.385,-0.5135 c -3.166,-3.7658 -5.006,-7.9595 -5.52,-12.5811 -0.428,-4.7072 -0.128,-9.2432 0.899,-13.608 0.77,-3.0811 1.754,-6.1194 2.952,-9.1149 1.199,-3.081 2.226,-6.0765 3.081,-8.9864 0.942,-2.9099 1.584,-5.777 1.926,-8.6013 0.342,-2.8244 0,-5.6487 -1.027,-8.473 -0.171,-0.4279 -0.385,-0.7702 -0.642,-1.027 -0.171,-0.2568 -0.342,-0.3423 -0.513,-0.2568 l -0.257,1.4122 c -0.086,0.6847 -0.214,1.3694 -0.385,2.054 -0.086,0.6847 -0.214,1.4978 -0.385,2.4392 -2.996,0.5135 -5.82,1.5406 -8.473,3.0811 -2.653,1.4549 -5.093,3.2522 -7.318,5.3919 -2.139,2.054 -4.065,4.3648 -5.777,6.9324 -1.626,2.5675 -2.995,5.2207 -4.108,7.9594 -1.198,2.9955 -2.054,5.8626 -2.568,8.6013 -0.427,2.7388 -0.556,5.5631 -0.385,8.473 0.172,1.8829 0.728,3.081 1.669,3.5946 0.942,0.5135 2.14,0.0428 3.595,-1.4122 1.883,-1.8829 3.594,-3.723 5.135,-5.5202 1.626,-1.8829 3.167,-3.7658 4.622,-5.6487 1.54,-1.9684 2.952,-3.9797 4.236,-6.0337 1.369,-2.1397 2.739,-4.4077 4.108,-6.8041 -0.428,1.1982 -0.77,2.1825 -1.027,2.9527 -0.171,0.6847 -0.385,1.3694 -0.642,2.0541 -0.171,0.5991 -0.385,1.2837 -0.642,2.054 -0.171,0.6847 -0.385,1.6261 -0.642,2.8243 -0.428,1.6262 -0.77,3.2523 -1.027,4.8784 -0.171,1.6261 -0.256,3.295 -0.256,5.0067 -1.455,2.3108 -3.039,4.536 -4.75,6.6757 -0.771,0.9414 -1.669,1.9684 -2.696,3.0811 -0.942,1.027 -2.012,2.0112 -3.21,2.9526 -1.198,0.8559 -2.482,1.5834 -3.851,2.1825 -1.369,0.5135 -2.867,0.7702 -4.493,0.7702 -2.054,0 -3.68,-0.5135 -4.879,-1.5405 -1.198,-1.1126 -2.139,-2.4392 -2.824,-3.9797 -0.599,-1.6261 -1.027,-3.3378 -1.284,-5.1351 -0.171,-1.7973 -0.214,-3.4662 -0.128,-5.0068 0.342,-6.1621 1.797,-12.1531 4.365,-17.9729 2.653,-5.8198 6.205,-11.0405 10.655,-15.6621 0.171,-0.1712 0.342,-0.3851 0.514,-0.6419 0.171,-0.2567 0.214,-0.3851 0.128,-0.3851 0,-0.2568 -0.171,-0.2996 -0.514,-0.1284 -0.256,0.1712 -0.427,0.2568 -0.513,0.2568 -1.541,0.8558 -3.124,2.0968 -4.75,3.7229 -1.541,1.5406 -3.081,3.4234 -4.622,5.6487 -1.455,2.1396 -2.867,4.5788 -4.236,7.3175 -1.284,2.6531 -2.396,5.4775 -3.338,8.4729 -0.685,2.1397 -1.155,4.8784 -1.412,8.2162 -0.171,3.2523 0.128,6.4189 0.899,9.5 0.77,3.0811 2.139,5.6914 4.108,7.8311 2.054,2.1396 5.006,3.1238 8.858,2.9526 2.311,-0.0855 4.365,-0.4707 6.162,-1.1554 1.797,-0.6846 3.423,-1.5833 4.878,-2.6959 1.455,-1.1982 2.782,-2.5676 3.98,-4.1081 z m -1.027,-39.2836 c 3.68,-4.0225 8.131,-7.1036 13.351,-9.2433 -0.513,2.8244 -1.754,5.9054 -3.723,9.2433 -1.883,3.3378 -4.022,6.6328 -6.419,9.8851 -2.396,3.2522 -4.792,6.3333 -7.189,9.2432 -2.396,2.9099 -4.365,5.3063 -5.905,7.1891 -0.343,0.428 -0.685,0.428 -1.027,0 -0.343,-0.4279 -0.471,-0.8558 -0.385,-1.2837 0.256,-2.0541 0.599,-3.937 1.027,-5.6487 0.428,-1.7973 1.07,-3.8085 1.925,-6.0337 1.969,-4.964 4.75,-9.4144 8.345,-13.3513 z"
           id="path4596" />
        <path
           style="fill:#f2c94c"
           inkscape:connector-curvature="0"
           d="m 391.553,40.6958 c 0.257,-0.0856 0.299,-0.214 0.128,-0.3851 -0.085,-0.0856 -0.556,-0.1284 -1.412,-0.1284 -2.396,0.0856 -4.878,0.8131 -7.446,2.1824 -2.568,1.2838 -5.049,2.9527 -7.446,5.0068 -2.311,2.054 -4.408,4.322 -6.29,6.804 -1.883,2.3964 -3.295,4.75 -4.237,7.0608 -1.198,2.9955 -2.182,5.991 -2.953,8.9864 -0.77,2.9099 -1.241,5.8626 -1.412,8.8581 -0.085,1.5406 0,3.2951 0.257,5.2635 0.342,1.8829 0.899,3.5518 1.669,5.0068 0.856,1.3693 2.011,2.3108 3.466,2.8243 1.455,0.5135 3.252,0.1283 5.392,-1.1554 l 0.514,-0.5135 1.027,-0.7703 c 0.342,-0.3423 0.599,-0.6419 0.77,-0.8987 0.257,-0.2567 0.342,-0.4707 0.257,-0.6418 -0.086,0 -0.3,0.0427 -0.642,0.1283 -0.257,0.0856 -0.557,0.214 -0.899,0.3852 -0.342,0.0855 -0.685,0.2139 -1.027,0.3851 -0.342,0.0856 -0.556,0.1284 -0.642,0.1284 -1.712,0.2567 -2.995,0.0856 -3.851,-0.5135 -0.856,-0.5991 -1.455,-1.455 -1.797,-2.5676 -0.343,-1.1126 -0.514,-2.3536 -0.514,-3.723 v -4.108 c 0,-0.5136 0.128,-1.4122 0.385,-2.696 0.257,-1.3694 0.642,-2.9527 1.156,-4.75 0.599,-1.8828 1.326,-3.9369 2.182,-6.1621 0.941,-2.2252 2.054,-4.4932 3.338,-6.804 1.284,-2.2253 2.781,-4.2793 4.493,-6.1622 1.712,-1.9684 3.423,-3.6802 5.135,-5.1351 1.797,-1.455 3.466,-2.6531 5.007,-3.5946 1.626,-0.9414 2.995,-1.5833 4.108,-1.9257 0.685,-0.1711 1.113,-0.2995 1.284,-0.3851 z"
           id="path4598" />
        <path
           style="fill:#f2c94c"
           inkscape:connector-curvature="0"
           d="m 399.384,98.4659 c 0.085,-0.0856 0.043,-0.2568 -0.129,-0.5135 -0.171,-0.2568 -0.556,-0.9843 -1.155,-2.1824 -0.513,-1.1982 -0.941,-2.2681 -1.284,-3.2095 -0.256,-0.7703 -0.513,-1.5833 -0.77,-2.4392 -0.171,-0.9414 -0.385,-2.0112 -0.642,-3.2094 l -0.642,-1.9257 c -0.257,-1.027 -0.513,-1.5405 -0.77,-1.5405 -0.257,0 -0.471,0.3423 -0.642,1.027 -0.086,0.6847 -0.128,1.4977 -0.128,2.4392 0,0.9414 0.042,1.9684 0.128,3.081 0.171,1.0271 0.342,1.8829 0.514,2.5676 0.513,1.8829 1.326,3.2522 2.439,4.1081 1.112,0.8558 1.797,1.3694 2.054,1.5405 0.428,0.1712 0.77,0.2568 1.027,0.2568 z"
           id="path4600" />
        <path
           style="fill:#f2c94c"
           inkscape:connector-curvature="0"
           d="m 447.59,41.2093 c 0.085,0.0856 0.128,0.2996 0.128,0.6419 0,0.2568 -0.043,0.4707 -0.128,0.6419 -0.771,2.482 -2.097,4.2365 -3.98,5.2635 -1.883,1.027 -3.552,1.5405 -5.007,1.5405 -1.797,0 -3.637,-0.1283 -5.52,-0.3851 -1.883,-0.3423 -3.68,-1.1554 -5.392,-2.4392 -0.171,-0.1712 -0.385,-0.3423 -0.642,-0.5135 -0.256,-0.1712 -0.385,-0.3423 -0.385,-0.5135 0,-0.2568 0.129,-0.4279 0.385,-0.5135 0.257,-0.1712 0.471,-0.2996 0.642,-0.3851 0.77,-0.1712 1.755,-0.2996 2.953,-0.3852 1.284,-0.1712 2.525,-0.1712 3.723,0 0.856,0.1712 1.883,0.2568 3.081,0.2568 1.198,0 2.396,-0.0856 3.594,-0.2568 1.284,-0.1712 2.44,-0.4279 3.467,-0.7703 1.027,-0.4279 1.797,-1.027 2.31,-1.7972 0.257,-0.3424 0.514,-0.4708 0.771,-0.3852 z"
           id="path4602" />
        <path
           style="fill:#f2c94c"
           inkscape:connector-curvature="0"
           d="m 448.488,37.2296 -0.385,0.6419 c -1.455,1.8829 -2.995,3.1239 -4.621,3.723 -1.626,0.5135 -3.338,0.7274 -5.135,0.6418 -1.798,-0.0855 -3.638,-0.2995 -5.521,-0.6418 -1.797,-0.428 -3.594,-0.6847 -5.392,-0.7703 -2.396,-0.0856 -4.792,0.6419 -7.189,2.1824 -2.396,1.5406 -4.45,4.2365 -6.162,8.0878 -0.257,0.5135 -0.428,0.6419 -0.513,0.3852 -0.086,-0.3424 -0.086,-0.6419 0,-0.8987 0.684,-2.5675 1.497,-4.7072 2.439,-6.4189 0.941,-1.7117 1.925,-3.0811 2.952,-4.1081 1.113,-1.1126 2.268,-1.9256 3.467,-2.4392 1.198,-0.5135 2.439,-0.8558 3.723,-1.027 1.455,-4.8783 2.567,-9.6283 3.337,-14.2499 0.856,-4.7072 0.942,-9.1577 0.257,-13.35135 V 8.47294 c 0.171,-0.08558 0.343,-0.04279 0.514,0.12839 0.171,0.17116 0.256,0.29954 0.256,0.38512 1.883,4.10815 2.654,8.51575 2.311,13.22295 -0.342,4.6216 -1.198,9.5 -2.567,14.6351 0.428,0.0856 0.77,0.1284 1.027,0.1284 h 0.898 c 0.428,-2.2253 0.813,-4.5789 1.156,-7.0608 0.428,-2.5676 0.727,-5.0068 0.898,-7.3176 0.257,-2.3108 0.343,-4.4076 0.257,-6.2905 -0.085,-1.8829 -0.385,-3.295 -0.898,-4.2365 -0.257,-0.7702 -0.257,-1.1554 0,-1.1554 0.171,0 0.299,0.0856 0.385,0.2568 0.085,0.1712 0.214,0.3423 0.385,0.5135 1.198,1.1982 2.139,2.8243 2.824,4.8784 0.685,2.054 1.156,4.2364 1.412,6.5472 0.257,2.3108 0.343,4.6216 0.257,6.9324 -0.086,2.2253 -0.342,4.1937 -0.77,5.9054 l -0.514,2.0541 c 0.257,0.1711 0.514,0.2567 0.771,0.2567 0.256,0 0.513,0.0428 0.77,0.1284 0.513,-2.5675 0.941,-5.1351 1.284,-7.7027 0.428,-2.5675 0.599,-5.2635 0.513,-8.0878 0,-0.5991 0.043,-0.8986 0.128,-0.8986 0.172,0 0.3,0.1284 0.386,0.3851 0.085,0.2568 0.171,0.4707 0.256,0.6419 1.027,1.8829 1.498,4.2365 1.412,7.0608 0,2.8243 -0.213,5.8198 -0.641,8.9864 1.882,0 3.68,-0.5135 5.391,-1.5405 0.428,-0.2567 0.642,-0.2567 0.642,0 z"
           id="path4604" />
        <path
           style="fill:#f2c94c"
           inkscape:connector-curvature="0"
           d="m 421.144,47.2431 c -0.428,0.4279 -0.77,0.7275 -1.027,0.8986 -0.428,0.3424 -0.942,0.7703 -1.541,1.2838 -0.513,0.4279 -0.984,0.8987 -1.412,1.4122 -0.428,0.6847 -0.856,1.2837 -1.284,1.7973 -0.342,0.5135 -0.642,1.2409 -0.898,2.1824 -0.086,0.1712 -0.214,0.3423 -0.385,0.5135 -0.086,0.0856 -0.172,0.0856 -0.257,0 -0.257,-0.2568 -0.257,-0.8131 0,-1.6689 0.342,-1.2838 0.685,-2.3108 1.027,-3.0811 0.342,-0.8558 0.984,-1.7545 1.926,-2.6959 0.342,-0.3424 0.77,-0.6847 1.283,-1.027 0.514,-0.3424 1.027,-0.6419 1.541,-0.8987 0.513,-0.2567 0.941,-0.3851 1.284,-0.3851 0.342,0 0.513,0.1284 0.513,0.3851 0,0.4279 -0.257,0.8559 -0.77,1.2838 z"
           id="path4606" />
        <path
           style="fill:#f2c94c"
           inkscape:connector-curvature="0"
           d="m 431.928,97.5672 c 0.428,-0.1711 0.599,-0.1283 0.513,0.1284 -0.085,0.2568 -0.214,0.428 -0.385,0.5135 -1.541,0.5135 -3.167,0.428 -4.878,-0.2567 -1.712,-0.6847 -3.295,-1.7545 -4.75,-3.2095 -1.455,-1.4549 -2.696,-3.1238 -3.723,-5.0067 -1.027,-1.9685 -1.669,-3.8941 -1.926,-5.777 -0.428,-4.0225 -0.471,-7.9167 -0.128,-11.6824 0.342,-3.7658 0.984,-7.4887 1.925,-11.1689 l 2.183,-8.0878 c -0.514,0 -1.027,-0.1284 -1.541,-0.3851 -0.599,-0.1712 -0.898,-0.3852 -0.898,-0.6419 0,-0.1712 0.299,-0.428 0.898,-0.7703 2.397,-1.1982 4.793,-1.7117 7.189,-1.5405 2.482,0.1711 4.964,0.4707 7.446,0.8986 1.541,0.2568 3.081,0.4707 4.622,0.6419 1.626,0.0856 3.381,-0.2568 5.263,-1.027 0.172,-0.1712 0.343,-0.214 0.514,-0.1284 0.171,0.1712 0.128,0.4707 -0.128,0.8986 -0.514,1.1127 -1.241,1.9257 -2.183,2.4392 -0.941,0.5135 -1.926,0.8987 -2.953,1.1554 -0.684,2.2253 -1.283,4.2365 -1.797,6.0338 -0.513,1.7117 -0.941,3.1667 -1.284,4.3648 -0.941,4.1081 -2.054,8.3018 -3.337,12.5811 -1.199,4.1937 -2.012,7.7455 -2.44,10.6554 -0.171,0.9414 -0.342,1.4549 -0.513,1.5405 -0.171,0.0856 -0.343,-0.0856 -0.514,-0.5135 -0.171,-0.428 -0.299,-0.7703 -0.385,-1.027 -0.342,-2.482 -0.428,-5.0496 -0.257,-7.7027 0.257,-2.7388 0.685,-5.5203 1.284,-8.3446 0.599,-2.8243 1.284,-5.6486 2.054,-8.4729 0.771,-2.9099 1.584,-5.8198 2.439,-8.7297 h -1.283 c -0.428,0 -0.856,-0.0428 -1.284,-0.1284 -0.685,1.7973 -1.412,3.5946 -2.183,5.3919 -0.684,1.7117 -1.369,3.3378 -2.054,4.8783 l -0.641,1.2838 c -0.257,0.5991 -0.471,0.8987 -0.642,0.8987 -0.343,-0.0856 -0.471,-0.4708 -0.385,-1.1555 0.085,-0.7702 0.128,-1.2837 0.128,-1.5405 0.171,-1.2838 0.428,-2.7815 0.77,-4.4932 0.428,-1.7117 0.813,-3.5518 1.156,-5.5203 -0.428,-0.0856 -0.899,-0.1283 -1.413,-0.1283 -0.513,-0.0856 -1.027,-0.214 -1.54,-0.3852 -0.514,1.7117 -1.027,3.3806 -1.541,5.0068 l -1.283,4.8783 c -0.685,2.9955 -1.199,6.205 -1.541,9.6284 -0.342,3.3378 -0.342,6.804 0,10.3986 0.171,1.6261 0.599,3.295 1.284,5.0067 0.77,1.7117 1.669,3.2523 2.696,4.6216 1.027,1.3694 2.182,2.4392 3.466,3.2095 1.369,0.7702 2.696,1.027 3.98,0.7702 z"
           id="path4608" />
        <path
           style="fill:#f2c94c"
           inkscape:connector-curvature="0"
           d="m 433.083,94.7429 c 0.428,-0.3423 0.685,-0.3423 0.77,0 0.086,0.2568 -0.085,0.5135 -0.513,0.7703 -0.343,0.2568 -0.813,0.4707 -1.412,0.6419 -0.514,0.0856 -1.113,0.0856 -1.798,0 -0.684,-0.0856 -1.412,-0.3424 -2.182,-0.7703 -0.77,-0.4279 -1.498,-1.1126 -2.182,-2.054 -0.6,-0.7703 -1.113,-1.8829 -1.541,-3.3379 -0.342,-1.4549 -0.599,-2.8671 -0.77,-4.2364 -0.171,-1.455 -0.214,-2.696 -0.129,-3.723 0.086,-1.027 0.3,-1.5405 0.642,-1.5405 0.428,0 0.728,0.5991 0.899,1.7973 0.257,1.1982 0.471,2.1824 0.642,2.9527 0.342,1.3693 0.813,2.7815 1.412,4.2364 0.599,1.455 1.241,2.6104 1.926,3.4662 0.855,1.1127 1.626,1.7973 2.31,2.0541 0.685,0.1712 1.327,0.0856 1.926,-0.2568 z"
           id="path4610" />
        <path
           style="fill:#f2c94c"
           inkscape:connector-curvature="0"
           d="m 484.798,49.0404 c -0.342,-1.2838 -0.856,-2.3536 -1.541,-3.2095 -0.684,-0.8558 -1.54,-1.5405 -2.567,-2.054 -1.027,-0.5991 -2.225,-0.9415 -3.595,-1.027 -1.283,-0.0856 -2.738,0.1283 -4.365,0.6418 -1.54,0.5136 -3.252,1.4122 -5.135,2.696 -2.567,1.7973 -4.792,3.9797 -6.675,6.5473 -1.798,2.5675 -3.21,5.349 -4.237,8.3445 -0.513,1.5406 -0.642,2.3108 -0.385,2.3108 0.342,0 0.984,-0.5991 1.926,-1.7973 1.711,-2.3964 3.552,-4.6644 5.52,-6.804 1.968,-2.1396 4.194,-3.9369 6.676,-5.3919 2.738,-1.6261 4.792,-2.3536 6.162,-2.1824 1.369,0.0856 2.567,0.6419 3.594,1.6689 1.199,1.1982 1.626,2.9527 1.284,5.2635 -0.257,2.2252 -1.241,4.536 -2.953,6.9324 -1.027,1.455 -2.182,2.7388 -3.466,3.8514 -1.198,1.1126 -2.396,2.0968 -3.594,2.9527 -1.199,0.7702 -2.354,1.4549 -3.467,2.054 -1.027,0.5135 -1.925,0.8987 -2.695,1.1554 -1.455,0.5135 -1.455,0.7703 0,0.7703 2.396,0 5.049,-0.7703 7.959,-2.3108 2.995,-1.6262 5.734,-3.8942 8.216,-6.8041 1.284,-1.5405 2.225,-3.1238 2.824,-4.7499 0.6,-1.6262 0.942,-3.1667 1.027,-4.6216 0.086,-1.5406 -0.085,-2.9527 -0.513,-4.2365 z"
           id="path4612" />
        <path
           style="fill:#f2c94c"
           inkscape:connector-curvature="0"
           d="m 488.521,60.0809 c 0.77,-1.455 1.327,-3.2095 1.669,-5.2635 0.428,-2.8243 0.257,-5.3063 -0.514,-7.4459 -0.684,-2.1397 -1.669,-3.8942 -2.952,-5.2635 -1.455,-1.455 -3.124,-2.5248 -5.007,-3.2095 -1.883,-0.7702 -3.894,-1.1554 -6.034,-1.1554 -2.14,-0.0856 -4.279,0.1712 -6.419,0.7703 -2.139,0.5991 -4.193,1.4977 -6.162,2.6959 -2.054,1.2838 -3.894,2.7815 -5.52,4.4933 -1.626,1.6261 -3.038,3.3378 -4.237,5.1351 -1.198,1.7117 -2.225,3.4234 -3.081,5.1351 -0.77,1.7117 -1.412,3.2522 -1.925,4.6216 -2.397,6.5901 -3.338,13.2657 -2.825,20.027 0.086,1.5405 0.385,3.2522 0.899,5.1351 0.513,1.8829 1.241,3.6801 2.182,5.3918 0.942,1.7117 2.14,3.2523 3.595,4.6217 1.54,1.2837 3.381,2.1396 5.52,2.5675 0.514,0.1712 0.984,0.214 1.412,0.1284 0.428,0 0.642,-0.0856 0.642,-0.2568 0,-0.0855 -0.256,-0.1711 -0.77,-0.2567 -0.428,-0.0856 -0.856,-0.2568 -1.284,-0.5135 -2.739,-1.6262 -4.75,-3.5518 -6.034,-5.777 -1.283,-2.3108 -2.096,-4.7072 -2.439,-7.1892 -0.257,-2.482 -0.257,-5.0067 0,-7.5743 0.343,-2.5676 0.685,-4.964 1.027,-7.1892 0.343,-2.3108 0.899,-4.6216 1.669,-6.9324 0.856,-2.3108 1.926,-4.536 3.21,-6.6756 1.283,-2.2253 2.781,-4.2793 4.493,-6.1622 1.797,-1.9684 3.851,-3.6801 6.162,-5.1351 3.595,-2.3108 7.061,-3.5946 10.399,-3.8513 3.337,-0.3424 6.119,0.6846 8.344,3.081 2.225,2.3964 3.338,5.8626 3.338,10.3987 -0.086,2.6531 -0.941,5.0923 -2.568,7.3175 -1.54,2.1396 -3.081,3.8513 -4.621,5.1351 -0.428,0.4279 -0.556,0.7275 -0.385,0.8987 0.171,0.1711 0.428,0.1283 0.77,-0.1284 0.685,-0.5135 1.455,-1.0698 2.311,-1.6689 0.941,-0.5991 1.84,-1.3694 2.696,-2.3108 0.941,-1.0271 1.754,-2.2253 2.439,-3.5946 z"
           id="path4614" />
        <path
           style="clip-rule:evenodd;fill:#f2c94c;fill-rule:evenodd"
           inkscape:connector-curvature="0"
           d="m 473.501,63.4187 c 2.824,-2.5676 4.621,-5.0923 5.392,-7.5743 0.77,-2.5675 0.641,-4.4504 -0.386,-5.6486 -1.711,-1.7117 -4.878,-0.7275 -9.5,2.9527 -2.481,1.9684 -4.578,4.3648 -6.29,7.1891 -1.626,2.7388 -2.91,5.6915 -3.851,8.8581 -0.856,3.1667 -1.327,6.3761 -1.413,9.6284 -0.085,3.2522 0.214,6.3761 0.899,9.3716 0.342,1.4549 1.027,2.6103 2.054,3.4662 1.113,0.8558 2.397,1.3693 3.851,1.5405 1.541,0.1712 3.167,0.0428 4.879,-0.3851 1.712,-0.5136 3.338,-1.3694 4.878,-2.5676 0.685,-0.4279 0.942,-0.6847 0.77,-0.7703 -0.085,-0.1711 -0.427,-0.1283 -1.027,0.1284 -2.139,0.8559 -3.936,1.3266 -5.391,1.4122 -1.455,0.0856 -2.654,-0.0428 -3.595,-0.3852 -0.856,-0.4279 -1.541,-0.9842 -2.054,-1.6689 -0.428,-0.7702 -0.685,-1.5405 -0.77,-2.3108 -0.428,-1.9684 -0.514,-4.536 -0.257,-7.7027 0.257,-3.1666 0.856,-6.3761 1.797,-9.6283 2.225,-0.6847 4.065,-1.455 5.52,-2.3108 1.455,-0.9414 2.953,-2.1396 4.494,-3.5946 z m -1.798,-8.0878 c 2.14,-1.7973 3.381,-2.3536 3.723,-1.6689 0.428,0.6847 0.343,1.9257 -0.256,3.7229 -0.599,1.7973 -1.541,3.2523 -2.825,4.3649 -1.198,0.9414 -2.482,1.9257 -3.851,2.9527 -1.369,0.9414 -2.867,1.7973 -4.493,2.5676 0.856,-2.3964 1.84,-4.5789 2.952,-6.5473 1.199,-2.0541 2.782,-3.8514 4.75,-5.3919 z"
           id="path4616" />
        <path
           style="fill:#f2c94c"
           inkscape:connector-curvature="0"
           d="m 468.237,97.4389 c 1.284,-0.428 2.482,-0.9415 3.595,-1.5406 1.198,-0.6847 2.225,-1.4121 3.081,-2.1824 0.941,-0.8559 1.712,-1.7117 2.311,-2.5676 0.684,-1.027 0.727,-1.4121 0.128,-1.1554 -0.513,0.2568 -0.984,0.5136 -1.412,0.7703 -1.712,1.2838 -3.509,2.3108 -5.392,3.0811 -1.883,0.7703 -4.108,1.1554 -6.676,1.1554 -1.369,0 -2.824,-0.4279 -4.364,-1.2838 -1.455,-0.8559 -2.654,-1.8401 -3.595,-2.9527 -0.342,-0.4279 -0.685,-0.813 -1.027,-1.1554 -0.342,-0.4279 -0.685,-0.5563 -1.027,-0.3851 -0.171,0 -0.257,0.1712 -0.257,0.5135 0,0.2567 0.086,0.5563 0.257,0.8986 1.027,2.9955 2.482,5.0068 4.365,6.0338 1.968,0.9414 4.065,1.4121 6.29,1.4121 1.284,0 2.525,-0.2139 3.723,-0.6418 z"
           id="path4618" />
      </g>
      <g
         transform="matrix(0.26458333,0,0,0.26458333,85.617889,253.12795)"
         id="g4695"
         style="fill:none">
        <path
           style="fill:#ffffff"
           inkscape:connector-curvature="0"
           d="M 5.1001,1.40625 11.7798,22.2891 18.4595,1.40625 h 4.1484 V 27 H 19.3911 V 17.0332 L 19.6899,7.04883 12.9927,27 h -2.461 L 3.86963,7.11914 4.16846,17.0332 V 27 H 0.95166 V 1.40625 Z M 37.5142,27 c -0.1875,-0.4102 -0.3223,-1.1016 -0.4043,-2.0742 -1.1016,1.6172 -2.5078,2.4258 -4.2188,2.4258 -1.7226,0 -3.0703,-0.4805 -4.043,-1.4414 -0.9609,-0.9727 -1.4414,-2.3379 -1.4414,-4.0957 0,-1.9336 0.6563,-3.4688 1.9688,-4.6055 1.3125,-1.1367 3.1113,-1.7168 5.3965,-1.7402 h 2.2851 v -2.0215 c 0,-1.1368 -0.2519,-1.9453 -0.7558,-2.4258 -0.5039,-0.4805 -1.2715,-0.7207 -2.3028,-0.7207 -0.9375,0 -1.6992,0.2812 -2.2851,0.8437 -0.586,0.5508 -0.8789,1.2539 -0.8789,2.1094 h -3.1114 c 0,-0.9727 0.2872,-1.8984 0.8614,-2.7773 0.5742,-0.89066 1.3476,-1.58793 2.3203,-2.09183 0.9726,-0.50391 2.0566,-0.75586 3.2519,-0.75586 1.9454,0 3.4219,0.48632 4.4297,1.45898 1.0196,0.96091 1.541,2.36721 1.5645,4.21871 v 9.5977 c 0.0117,1.4648 0.2109,2.7363 0.5976,3.8145 V 27 Z m -4.1485,-2.4785 c 0.7617,0 1.4883,-0.211 2.1797,-0.6328 0.6914,-0.4219 1.1953,-0.9492 1.5117,-1.5821 v -4.5351 h -1.7578 c -1.4765,0.0234 -2.6426,0.3574 -3.498,1.0019 -0.8555,0.6328 -1.2832,1.5235 -1.2832,2.6719 0,1.0781 0.2168,1.8633 0.6504,2.3555 0.4336,0.4804 1.166,0.7207 2.1972,0.7207 z M 47.9204,7.98047 48.0083,10.0371 c 1.207,-1.60546 2.748,-2.40819 4.623,-2.40819 3.3633,0 5.0684,2.24414 5.1153,6.73239 V 27 H 54.6528 V 14.502 c 0,-1.4883 -0.2519,-2.543 -0.7558,-3.1641 -0.4922,-0.6328 -1.2364,-0.9492 -2.2324,-0.9492 -0.7735,0 -1.4708,0.2578 -2.0918,0.7734 -0.6094,0.5156 -1.1016,1.1895 -1.4766,2.0215 V 27 H 44.9849 V 7.98047 Z M 72.2134,27 c -0.1875,-0.4102 -0.3223,-1.1016 -0.4043,-2.0742 -1.1016,1.6172 -2.5078,2.4258 -4.2188,2.4258 -1.7226,0 -3.0703,-0.4805 -4.0429,-1.4414 -0.961,-0.9727 -1.4414,-2.3379 -1.4414,-4.0957 0,-1.9336 0.6562,-3.4688 1.9687,-4.6055 1.3125,-1.1367 3.1113,-1.7168 5.3965,-1.7402 h 2.2851 v -2.0215 c 0,-1.1368 -0.2519,-1.9453 -0.7558,-2.4258 -0.5039,-0.4805 -1.2715,-0.7207 -2.3027,-0.7207 -0.9375,0 -1.6993,0.2812 -2.2852,0.8437 -0.5859,0.5508 -0.8789,1.2539 -0.8789,2.1094 h -3.1113 c 0,-0.9727 0.2871,-1.8984 0.8613,-2.7773 0.5742,-0.89066 1.3476,-1.58793 2.3203,-2.09183 0.9727,-0.50391 2.0566,-0.75586 3.252,-0.75586 1.9453,0 3.4218,0.48632 4.4296,1.45898 1.0196,0.96091 1.5411,2.36721 1.5645,4.21871 v 9.5977 c 0.0117,1.4648 0.2109,2.7363 0.5977,3.8145 V 27 Z m -4.1485,-2.4785 c 0.7618,0 1.4883,-0.211 2.1797,-0.6328 0.6914,-0.4219 1.1953,-0.9492 1.5117,-1.5821 v -4.5351 h -1.7578 c -1.4765,0.0234 -2.6425,0.3574 -3.498,1.0019 -0.8555,0.6328 -1.2832,1.5235 -1.2832,2.6719 0,1.0781 0.2168,1.8633 0.6504,2.3555 0.4336,0.4804 1.166,0.7207 2.1972,0.7207 z m 11.0039,-7.8926 c 0,-2.9648 0.5391,-5.2031 1.6172,-6.71484 1.0782,-1.52344 2.6543,-2.28515 4.7286,-2.28515 1.9335,0 3.4042,0.82617 4.4121,2.47849 l 0.1582,-2.12693 h 2.8125 V 27.1758 c 0,2.3554 -0.6036,4.1601 -1.8106,5.414 -1.207,1.2657 -2.8887,1.8985 -5.0449,1.8985 -0.9375,0 -1.9922,-0.2344 -3.1641,-0.7031 -1.1601,-0.4571 -2.0332,-1.0254 -2.6191,-1.7051 l 1.2656,-2.1446 c 1.2891,1.2657 2.7129,1.8985 4.2715,1.8985 2.5898,0 3.9199,-1.4121 3.9902,-4.2363 v -2.4786 c -1.0078,1.4883 -2.4375,2.2325 -4.289,2.2325 -1.9688,0 -3.5039,-0.7383 -4.6055,-2.2149 -1.1016,-1.4883 -1.6758,-3.6211 -1.7227,-6.3984 z m 3.1114,1.7754 c 0,2.1328 0.3105,3.7031 0.9316,4.7109 0.6328,0.9961 1.6641,1.4942 3.0938,1.4942 1.5468,0 2.707,-0.791 3.4804,-2.3731 v -9.5097 c -0.8086,-1.5586 -1.957,-2.3379 -3.4453,-2.3379 -1.4297,0 -2.4609,0.5039 -3.0937,1.5117 -0.6328,0.9961 -0.9551,2.5312 -0.9668,4.6055 z m 22.0608,8.9473 c -2.367,0 -4.184,-0.7032 -5.4495,-2.1094 -1.2656,-1.418 -1.9102,-3.4922 -1.9336,-6.2227 v -2.3027 c 0,-2.8359 0.6152,-5.0566 1.8457,-6.6621 1.2422,-1.6172 2.9704,-2.42579 5.1854,-2.42579 2.227,0 3.891,0.70898 4.992,2.12695 1.102,1.41794 1.664,3.62694 1.688,6.62694 v 2.0391 H 99.9517 v 0.4394 c 0,2.0391 0.3813,3.5215 1.1423,4.4473 0.774,0.9258 1.881,1.3887 3.323,1.3887 0.914,0 1.716,-0.17 2.408,-0.5098 0.703,-0.3516 1.359,-0.9023 1.968,-1.6523 l 1.618,1.9687 c -1.348,1.8984 -3.405,2.8477 -6.17,2.8477 z m -0.352,-17.0508 c -1.289,0 -2.244,0.4453 -2.865,1.3359 -0.621,0.8789 -0.973,2.25 -1.0548,4.1133 h 7.4888 v -0.4219 c -0.083,-1.8047 -0.411,-3.0937 -0.985,-3.8672 -0.562,-0.7734 -1.424,-1.1601 -2.584,-1.1601 z m 25.787,3.9551 5.239,-12.84965 h 3.638 L 131.276,17.4551 V 27 h -3.217 V 17.4551 L 120.782,1.40625 h 3.656 z m 9.967,2.3554 c 0,-2.7656 0.668,-4.9511 2.004,-6.5566 1.348,-1.6172 3.123,-2.42579 5.326,-2.42579 2.203,0 3.973,0.78515 5.309,2.35547 1.347,1.57032 2.039,3.70902 2.074,6.41602 v 2.0039 c 0,2.7539 -0.668,4.9336 -2.004,6.5391 -1.336,1.6054 -3.117,2.4082 -5.344,2.4082 -2.203,0 -3.972,-0.7793 -5.308,-2.3379 -1.325,-1.5586 -2.01,-3.668 -2.057,-6.3282 z m 3.111,1.793 c 0,1.957 0.381,3.498 1.143,4.623 0.773,1.1133 1.811,1.67 3.111,1.67 2.742,0 4.155,-1.9805 4.237,-5.9414 v -2.1446 c 0,-1.9453 -0.387,-3.4804 -1.161,-4.6054 -0.773,-1.1368 -1.81,-1.7051 -3.111,-1.7051 -1.277,0 -2.303,0.5683 -3.076,1.7051 -0.762,1.125 -1.143,2.6543 -1.143,4.5879 z m 25.313,6.9258 c -1.031,1.3476 -2.537,2.0215 -4.518,2.0215 -1.722,0 -3.023,-0.5918 -3.902,-1.7754 -0.879,-1.1953 -1.324,-2.9297 -1.336,-5.2032 V 7.98047 h 3.094 V 20.1445 c 0,2.9649 0.89,4.4473 2.672,4.4473 1.886,0 3.187,-0.8438 3.902,-2.5313 V 7.98047 h 3.111 V 27 h -2.953 z m 15.557,-14.4317 c -0.434,-0.082 -0.903,-0.123 -1.407,-0.123 -1.593,0 -2.707,0.873 -3.34,2.6191 V 27 h -3.111 V 7.98047 h 3.024 l 0.052,1.93359 c 0.832,-1.52344 2.01,-2.28515 3.533,-2.28515 0.493,0 0.903,0.08203 1.231,0.24609 z m 26.068,-6.71481 h -6.733 V 27 h -3.216 V 4.18359 h -6.715 V 1.40625 h 16.664 z M 216.389,27 h -3.111 V 7.98047 h 3.111 z m 0.246,-24.06445 c 0,0.52734 -0.146,0.96679 -0.439,1.31836 -0.293,0.35156 -0.738,0.52734 -1.336,0.52734 -0.586,0 -1.026,-0.17578 -1.318,-0.52734 -0.293,-0.35157 -0.44,-0.79102 -0.44,-1.31836 0,-0.52735 0.147,-0.97266 0.44,-1.33594 0.292,-0.36328 0.732,-0.54492 1.318,-0.54492 0.586,0 1.025,0.1875 1.318,0.5625 0.305,0.36328 0.457,0.80273 0.457,1.31836 z m 11.268,21.76175 c 1.031,0 1.857,-0.3164 2.478,-0.9493 0.621,-0.6445 0.961,-1.5585 1.02,-2.7421 h 2.935 c -0.07,1.8281 -0.72,3.3457 -1.951,4.5527 -1.218,1.1953 -2.713,1.793 -4.482,1.793 -2.356,0 -4.154,-0.7383 -5.397,-2.2149 -1.23,-1.4883 -1.845,-3.6972 -1.845,-6.6269 V 16.418 c 0,-2.8711 0.615,-5.0508 1.845,-6.53909 1.231,-1.5 3.024,-2.25 5.379,-2.25 1.946,0 3.487,0.61523 4.623,1.8457 1.149,1.23049 1.758,2.91209 1.828,5.04489 h -2.935 c -0.07,-1.4062 -0.41,-2.4609 -1.02,-3.164 -0.597,-0.7032 -1.429,-1.0547 -2.496,-1.0547 -1.383,0 -2.408,0.457 -3.076,1.3711 -0.668,0.9023 -1.014,2.3906 -1.037,4.4648 v 2.4258 c 0,2.2383 0.328,3.8203 0.984,4.7461 0.668,0.9258 1.717,1.3887 3.147,1.3887 z M 241.034,9.93164 c 1.183,-1.53516 2.695,-2.30273 4.535,-2.30273 3.363,0 5.068,2.24414 5.115,6.73239 V 27 H 247.59 V 14.502 c 0,-1.4883 -0.252,-2.543 -0.756,-3.1641 -0.492,-0.6328 -1.236,-0.9492 -2.232,-0.9492 -0.773,0 -1.471,0.2578 -2.092,0.7734 -0.609,0.5156 -1.101,1.1895 -1.476,2.0215 V 27 h -3.112 V 0 h 3.112 z m 23.994,15.39846 c -1.031,1.3476 -2.537,2.0215 -4.518,2.0215 -1.722,0 -3.023,-0.5918 -3.902,-1.7754 -0.879,-1.1953 -1.324,-2.9297 -1.336,-5.2032 V 7.98047 h 3.094 V 20.1445 c 0,2.9649 0.89,4.4473 2.672,4.4473 1.886,0 3.187,-0.8438 3.902,-2.5313 V 7.98047 h 3.111 V 27 h -2.953 z m 32.414,-1.5117 -0.563,0.7031 c -1.617,1.8867 -3.984,2.8301 -7.101,2.8301 -2.766,0 -4.94,-0.9141 -6.522,-2.7422 -1.57,-1.8399 -2.373,-4.4356 -2.408,-7.7871 v -5.0274 c 0,-3.58592 0.715,-6.26951 2.145,-8.05076 1.441,-1.79297 3.591,-2.68945 6.451,-2.68945 2.437,0 4.342,0.67969 5.713,2.03906 1.383,1.35937 2.144,3.29883 2.285,5.81836 h -3.217 c -0.129,-1.59375 -0.574,-2.83594 -1.336,-3.72656 -0.75,-0.90235 -1.892,-1.35352 -3.428,-1.35352 -1.839,0 -3.187,0.60352 -4.043,1.81055 -0.855,1.19531 -1.3,3.11133 -1.335,5.74802 v 5.2207 c 0,2.5782 0.492,4.5586 1.476,5.9414 0.984,1.3711 2.397,2.0567 4.236,2.0567 1.735,0 3.053,-0.4219 3.955,-1.2656 l 0.475,-0.4395 V 16.998 h -4.676 v -2.7421 h 7.893 z M 312.049,27 c -0.187,-0.4102 -0.322,-1.1016 -0.404,-2.0742 -1.102,1.6172 -2.508,2.4258 -4.219,2.4258 -1.722,0 -3.07,-0.4805 -4.043,-1.4414 -0.961,-0.9727 -1.441,-2.3379 -1.441,-4.0957 0,-1.9336 0.656,-3.4688 1.969,-4.6055 1.312,-1.1367 3.111,-1.7168 5.396,-1.7402 h 2.285 v -2.0215 c 0,-1.1368 -0.252,-1.9453 -0.756,-2.4258 -0.503,-0.4805 -1.271,-0.7207 -2.302,-0.7207 -0.938,0 -1.7,0.2812 -2.285,0.8437 -0.586,0.5508 -0.879,1.2539 -0.879,2.1094 h -3.112 c 0,-0.9727 0.287,-1.8984 0.862,-2.7773 0.574,-0.89066 1.347,-1.58793 2.32,-2.09183 0.973,-0.50391 2.057,-0.75586 3.252,-0.75586 1.945,0 3.422,0.48632 4.43,1.45898 1.019,0.96091 1.541,2.36721 1.564,4.21871 v 9.5977 c 0.012,1.4648 0.211,2.7363 0.598,3.8145 V 27 Z m -4.148,-2.4785 c 0.762,0 1.488,-0.211 2.18,-0.6328 0.691,-0.4219 1.195,-0.9492 1.511,-1.5821 v -4.5351 h -1.758 c -1.476,0.0234 -2.642,0.3574 -3.498,1.0019 -0.855,0.6328 -1.283,1.5235 -1.283,2.6719 0,1.0781 0.217,1.8633 0.651,2.3555 0.433,0.4804 1.166,0.7207 2.197,0.7207 z m 14.555,-16.54103 0.07,1.75781 c 1.16,-1.40625 2.689,-2.10937 4.588,-2.10937 2.121,0 3.603,0.91992 4.447,2.75979 1.195,-1.83987 2.859,-2.75979 4.992,-2.75979 3.504,0 5.297,2.18554 5.379,6.55659 V 27 h -3.094 V 14.4844 c 0,-1.3828 -0.246,-2.4082 -0.738,-3.0762 -0.492,-0.6797 -1.324,-1.0195 -2.496,-1.0195 -0.937,0 -1.699,0.3633 -2.285,1.0898 -0.586,0.7266 -0.926,1.6524 -1.02,2.7774 V 27 H 329.17 V 14.3438 c -0.035,-2.6368 -1.107,-3.9551 -3.216,-3.9551 -1.571,0 -2.678,0.7851 -3.323,2.3554 V 27 h -3.093 V 7.98047 Z m 30.972,19.37113 c -2.367,0 -4.183,-0.7032 -5.449,-2.1094 -1.266,-1.418 -1.91,-3.4922 -1.934,-6.2227 v -2.3027 c 0,-2.8359 0.616,-5.0566 1.846,-6.6621 1.242,-1.6172 2.971,-2.42579 5.186,-2.42579 2.226,0 3.89,0.70898 4.992,2.12695 1.101,1.41794 1.664,3.62694 1.687,6.62694 v 2.0391 h -10.617 v 0.4394 c 0,2.0391 0.381,3.5215 1.143,4.4473 0.773,0.9258 1.881,1.3887 3.322,1.3887 0.914,0 1.717,-0.17 2.408,-0.5098 0.703,-0.3516 1.36,-0.9023 1.969,-1.6523 l 1.617,1.9687 c -1.348,1.8984 -3.404,2.8477 -6.17,2.8477 z m -0.351,-17.0508 c -1.289,0 -2.244,0.4453 -2.866,1.3359 -0.621,0.8789 -0.972,2.25 -1.054,4.1133 h 7.488 v -0.4219 c -0.082,-1.8047 -0.41,-3.0937 -0.984,-3.8672 -0.563,-0.7734 -1.424,-1.1601 -2.584,-1.1601 z m 19.67,11.8301 c 0,-0.668 -0.252,-1.2422 -0.756,-1.7227 -0.504,-0.4805 -1.477,-1.043 -2.918,-1.6875 -1.676,-0.6914 -2.86,-1.2832 -3.551,-1.7754 -0.68,-0.4922 -1.189,-1.0488 -1.529,-1.6699 -0.34,-0.6328 -0.51,-1.3828 -0.51,-2.25 0,-1.5469 0.562,-2.8301 1.687,-3.84962 1.137,-1.03125 2.584,-1.54687 4.342,-1.54687 1.852,0 3.34,0.53906 4.465,1.61718 1.125,1.07811 1.688,2.46091 1.688,4.14841 h -3.094 c 0,-0.8554 -0.287,-1.582 -0.862,-2.1797 -0.574,-0.6093 -1.306,-0.914 -2.197,-0.914 -0.914,0 -1.635,0.2402 -2.162,0.7207 -0.516,0.4687 -0.773,1.1015 -0.773,1.8984 0,0.6328 0.187,1.1426 0.562,1.5293 0.387,0.3867 1.307,0.8965 2.76,1.5293 2.309,0.9024 3.879,1.7871 4.711,2.6543 0.832,0.8555 1.248,1.9453 1.248,3.2695 0,1.6524 -0.568,2.9766 -1.705,3.9727 -1.137,0.9844 -2.66,1.4766 -4.57,1.4766 -1.981,0 -3.586,-0.5684 -4.817,-1.7051 -1.23,-1.1367 -1.846,-2.5781 -1.846,-4.3242 h 3.129 c 0.035,1.0547 0.358,1.8808 0.967,2.4785 0.609,0.5976 1.465,0.8965 2.567,0.8965 1.031,0 1.816,-0.2285 2.355,-0.6856 0.539,-0.4687 0.809,-1.0957 0.809,-1.8808 z"
           id="path4684" />
      </g>
    </g>
  </g>
</svg>
